<?xml version="1.0" encoding="UTF-8" standalone="no"?>
<svg
   xmlns:dc="http://purl.org/dc/elements/1.1/"
   xmlns:cc="http://creativecommons.org/ns#"
   xmlns:rdf="http://www.w3.org/1999/02/22-rdf-syntax-ns#"
   xmlns:svg="http://www.w3.org/2000/svg"
   xmlns="http://www.w3.org/2000/svg"
   xmlns:sodipodi="http://sodipodi.sourceforge.net/DTD/sodipodi-0.dtd"
   xmlns:inkscape="http://www.inkscape.org/namespaces/inkscape"
   version="1.1"
   id="Layer_1"
   x="0px"
   y="0px"
   viewBox="0 0 512 512"
   style="enable-background:new 0 0 512 512;"
   xml:space="preserve"
   width="512"
   height="512"
   sodipodi:docname="sage--alt.svg"
   inkscape:version="1.0.1 (1.0.1+r74)"><metadata
   id="metadata9"><rdf:RDF><cc:Work
       rdf:about=""><dc:format>image/svg+xml</dc:format><dc:type
         rdf:resource="http://purl.org/dc/dcmitype/StillImage" /><dc:title></dc:title></cc:Work></rdf:RDF></metadata><defs
   id="defs7" /><sodipodi:namedview
   pagecolor="#ffffff"
   bordercolor="#666666"
   borderopacity="1"
   objecttolerance="10"
   gridtolerance="10"
   guidetolerance="10"
   inkscape:pageopacity="0"
   inkscape:pageshadow="2"
   inkscape:window-width="1920"
   inkscape:window-height="1007"
   id="namedview5"
   showgrid="false"
   inkscape:zoom="1.5024424"
   inkscape:cx="212.35602"
   inkscape:cy="239.73978"
   inkscape:window-x="0"
   inkscape:window-y="0"
   inkscape:window-maximized="1"
   inkscape:current-layer="g1012"
   showguides="true"
   inkscape:guide-bbox="true"
   inkscape:document-rotation="0" />
<path
   id="path2"
   style="fill:#57db57;fill-opacity:1;stroke-width:1.00557"
   d="M 107.71345,1.008056 C 103.31271,1.1261695 98.926044,1.7359936 94.662757,2.8345617 94.344697,2.9194313 93.64402,3.1044048 93.173919,3.2384263 79.801331,7.0461338 67.95358,15.846796 60.383395,27.501379 c -3.460848,5.291728 -6.050275,11.15172 -7.630317,17.274225 -0.08446,0.384749 -0.291815,1.161225 -0.406147,1.700921 -1.186666,5.099454 -1.527049,10.351875 -1.426191,15.575134 0,130.614181 -0.01005,261.228441 0.01006,391.842561 0.02715,4.77817 0.650601,9.55113 1.840987,14.17848 0.08447,0.31807 0.269792,1.01868 0.403834,1.48883 3.807667,13.37257 12.608359,25.22034 24.262942,32.7905 5.291778,3.46083 11.1517,6.05028 17.274275,7.63028 0.384729,0.0843 1.161226,0.29182 1.700912,0.40618 5.09941,1.18665 10.35188,1.52707 15.57508,1.42622 116.78805,-0.003 233.57632,0.006 350.36428,-0.005 6.30609,0.0149 12.43842,-3.58395 15.53596,-9.07024 3.40333,-5.77134 3.17196,-13.43918 -0.58071,-18.99126 -3.28317,-5.0588 -9.22494,-8.23142 -15.25692,-8.13401 -117.68442,-0.003 -235.36894,0.007 -353.05326,-0.005 -7.07797,-0.0198 -13.989806,-3.7333 -17.964799,-9.58079 -4.200038,-5.97914 -5.084632,-14.09167 -2.285445,-20.83894 2.768317,-6.95983 9.297642,-12.25983 16.692964,-13.48623 3.28215,-0.57058 6.62897,-0.24845 9.9414,-0.33357 115.6569,-0.003 231.31402,0.006 346.97081,-0.005 6.30609,0.0149 12.43842,-3.58395 15.53607,-9.07024 1.86331,-3.14685 2.57243,-6.85452 2.41215,-10.48202 -0.011,-19.50859 0.0221,-39.0177 -0.0171,-58.52595 -0.15818,-6.42278 -4.07484,-12.5551 -9.80756,-15.44145 -5.90849,-3.11536 -13.53097,-2.54234 -18.89604,1.44259 -4.74737,3.38622 -7.62721,9.17576 -7.48,15.00422 0,13.62578 0,27.25156 0,40.87734 -92.17669,0 -184.35329,0 -276.52999,0 -0.01,-98.62937 0.01,-197.25896 -0.01,-295.888182 -0.0161,-6.340668 -3.69344,-12.481805 -9.24233,-15.53549 -5.78089,-3.31988 -13.39592,-3.026074 -18.90138,0.735136 -5.00972,3.295906 -8.14607,9.203763 -8.04943,15.202499 0,98.495347 0,196.990687 0,295.486037 -8.00711,0.0211 -16.01521,-0.0429 -24.02162,0.0331 -6.48849,0.18273 -12.906394,1.56108 -18.987037,3.80583 -0.529831,0.10463 -1.499697,0.82504 -1.23614,-0.18038 0,-113.25561 -0.01005,-226.5114 0,-339.766909 0.02011,-7.0779 3.733357,-13.989823 9.580809,-17.964786 3.956378,-2.768256 8.831348,-4.091427 13.642668,-3.907217 111.24882,0 222.49765,0 333.74657,0 0,72.149512 -0.01,144.299262 0.01,216.448652 0.0161,6.34067 3.69344,12.4818 9.24233,15.53548 5.78089,3.31989 13.39592,3.02607 18.90128,-0.73512 5.00982,-3.29592 8.14608,-9.20376 8.04944,-15.20251 -0.01,-78.13301 0.01,-156.266263 -0.01,-234.399135 -0.0161,-6.340671 -3.69334,-12.481809 -9.24233,-15.5354946 -3.1093,-1.7932116 -6.74673,-2.46716038 -10.30754,-2.31216281 -117.33278,0.004022 -234.66586,-0.00905 -351.99864,0.006033 -0.34239,0.004022 -0.68479,0.00905 -1.02718,0.0131729 z" />















<g
   id="g994"
   transform="translate(-475.39726,-433.86506)"><g
     id="g937">
	<g
   id="g935">
		
	</g>
</g><g
     id="g939">
</g><g
     id="g941">
</g><g
     id="g943">
</g><g
     id="g945">
</g><g
     id="g947">
</g><g
     id="g949">
</g><g
     id="g951">
</g><g
     id="g953">
</g><g
     id="g955">
</g><g
     id="g957">
</g><g
     id="g959">
</g><g
     id="g961">
</g><g
     id="g963">
</g><g
     id="g965">
</g><g
     id="g967">
</g></g><g
   id="g1075"
   transform="matrix(0.93251601,0,0,0.93251601,101.24433,-747.03593)"><g
     id="g1012"
     transform="translate(-44.75519,788.32908)">
	<g
   id="g1010"
   transform="matrix(1.0705272,0,0,1.0705272,-12.369194,-19.72674)">
		<path
   id="path1008"
   style="fill:#96e996;fill-opacity:1;stroke-width:1.05529"
   d="m 259.22446,101.28122 c -4.46297,0.19651 -8.28926,2.77378 -12.06124,4.89262 -0.68923,0.40297 -1.5626,0.90157 -2.13694,1.24457 -27.20488,16.16802 -49.44136,40.62168 -62.75401,69.34922 -4.51625,9.6734 -8.06801,19.95196 -10.52486,30.24569 -0.60444,2.54746 -1.16361,5.16528 -1.62647,7.65272 -1.54836,8.234 -2.43504,16.59124 -2.66194,24.96636 -0.0388,1.67685 -0.0696,3.57824 -0.057,5.34256 0.10075,18.33935 3.38815,36.65596 9.67468,53.88451 0.41714,1.12314 0.92242,2.49736 1.40835,3.70372 3.25192,8.27067 7.23351,16.25023 11.82405,23.8584 0.48654,0.77106 1.10039,1.80549 1.65823,2.66782 10.67805,16.86215 24.55552,31.69174 40.68544,43.4479 0.77329,0.55261 1.76696,1.28065 2.64387,1.88337 3.56682,2.49066 7.37647,4.8983 11.04037,7.05857 1.28163,0.74018 2.38342,1.37516 3.6971,2.07701 1.88199,0.94338 3.71252,2.04869 5.72365,2.69266 4.71741,1.35574 9.91694,0.26296 13.97324,-2.40661 28.64262,-15.51627 52.35924,-40.02473 66.72828,-69.2773 2.54572,-5.1414 4.79439,-10.42816 6.76874,-15.81446 0.39716,-1.12461 0.89522,-2.4964 1.3013,-3.72596 6.2527,-18.52156 9.0522,-38.19922 8.20545,-57.73005 -0.0544,-0.91409 -0.0965,-2.11665 -0.17011,-3.14577 -1.58355,-25.61812 -9.39109,-50.86208 -22.80279,-72.76491 -10.32995,-16.96614 -23.86096,-31.97847 -39.68937,-43.9817 -1.06138,-0.80571 -2.33752,-1.74497 -3.49863,-2.57686 -5.08284,-3.61077 -10.35022,-6.99577 -15.87662,-10.00931 -2.62323,-1.36609 -5.21189,-3.02242 -8.21577,-3.36885 -1.0773,-0.16427 -2.16889,-0.20128 -3.257,-0.16592 z m 2.02319,34.76328 c 23.31026,14.52685 41.76043,36.76681 51.50045,62.46799 9.11516,23.85029 10.883,50.45896 4.87907,75.28461 -4.66509,19.5401 -14.02656,37.9483 -27.16052,53.15732 -3.87253,4.58785 -8.21119,8.7427 -12.47634,12.9573 l -1.97927,1.96112 v -70.87402 c 10.89684,-10.98747 21.48743,-22.25026 32.26642,-33.35902 4.66553,-5.65845 4.60334,-14.67874 -0.30329,-20.17627 -3.74864,-4.40459 -10.06942,-6.63005 -15.70875,-5.13902 -2.7902,0.98193 -5.25162,3.02972 -7.31345,4.79653 -10.22126,8.75875 -8.94026,9.39954 -8.951,2.58973 -0.0195,-9.86757 0.12452,-22.19969 -0.10091,-32.0657 0.0345,-1.96626 -0.56846,-4.08582 -1.46631,-5.90513 -2.47166,-5.06393 -7.72431,-8.77222 -13.41486,-8.95651 -5.94848,-0.34023 -12.0316,2.89432 -14.79438,8.22814 -1.73078,3.13092 -2.20701,6.7942 -1.96117,10.32243 l -0.19067,77.87641 c -0.004,1.49159 -5.92931,-6.98228 -9.38008,-8.39079 -6.01022,-2.2978 -13.35728,-0.42467 -17.4794,4.5358 -3.89415,4.4351 -4.99672,11.13299 -2.59229,16.54533 1.13885,2.77009 3.16416,5.04825 5.36866,7.02482 8.09128,8.09256 16.18242,16.18525 24.27378,24.27774 v 28.66346 c -6.98342,-6.85623 -14.08039,-13.68793 -19.85304,-21.63041 -13.5781,-18.14272 -22.18114,-39.97602 -24.53409,-62.52074 -2.38142,-22.1839 1.11024,-44.99442 10.20516,-65.38125 8.89364,-20.09888 23.14379,-37.7781 40.86125,-50.77895 2.96799,-2.21122 6.07048,-4.23247 9.19153,-6.21894 0.37115,0.23601 0.74231,0.47201 1.11346,0.70801 z"
   sodipodi:nodetypes="scccccccccccccccccccccccccccsssccccccccsccccccsccccccccccccs" />
	</g>
</g><g
     id="g1014">
</g><g
     id="g1016">
</g><g
     id="g1018">
</g><g
     id="g1020">
</g><g
     id="g1022">
</g><g
     id="g1024">
</g><g
     id="g1026">
</g><g
     id="g1028">
</g><g
     id="g1030">
</g><g
     id="g1032">
</g><g
     id="g1034">
</g><g
     id="g1036">
</g><g
     id="g1038">
</g><g
     id="g1040">
</g><g
     id="g1042">
</g></g></svg>
