<?xml version="1.0" encoding="UTF-8" standalone="no"?>
<svg
   version="1.1"
   id="Layer_1"
   x="0px"
   y="0px"
   viewBox="0 0 1250 500"
   xml:space="preserve"
   width="1250"
   height="500"
   sodipodi:docname="sage.svg"
   inkscape:version="1.1.2 (0a00cf5339, 2022-02-04)"
   inkscape:export-filename="/home/doruk/Code/sage/resources/sage-S.png"
   inkscape:export-xdpi="19.200001"
   inkscape:export-ydpi="19.200001"
   xmlns:inkscape="http://www.inkscape.org/namespaces/inkscape"
   xmlns:sodipodi="http://sodipodi.sourceforge.net/DTD/sodipodi-0.dtd"
   xmlns:xlink="http://www.w3.org/1999/xlink"
   xmlns="http://www.w3.org/2000/svg"
   xmlns:svg="http://www.w3.org/2000/svg"
   xmlns:rdf="http://www.w3.org/1999/02/22-rdf-syntax-ns#"
   xmlns:cc="http://creativecommons.org/ns#"
   xmlns:dc="http://purl.org/dc/elements/1.1/"><metadata
   id="metadata9"><rdf:RDF><cc:Work
       rdf:about=""><dc:format>image/svg+xml</dc:format><dc:type
         rdf:resource="http://purl.org/dc/dcmitype/StillImage" /></cc:Work></rdf:RDF></metadata><defs
   id="defs7"><rect
     x="3252.9663"
     y="2670.2026"
     width="1625.3906"
     height="794.2627"
     id="rect30527" /><linearGradient
     inkscape:collect="always"
     id="linearGradient22659"><stop
       style="stop-color:#e0c885;stop-opacity:1"
       offset="0"
       id="stop22655" /><stop
       style="stop-color:#8cccd9;stop-opacity:1"
       offset="1"
       id="stop22657" /></linearGradient><symbol
     id="u"
     overflow="visible"><path
       d="m 18.766,-1.125 c -0.96875,0.5 -1.9805,0.875 -3.0312,1.125 -1.043,0.25781 -2.1367,0.39062 -3.2812,0.39062 -3.3984,0 -6.0898,-0.94531 -8.0781,-2.8438 -1.9922,-1.9062 -2.9844,-4.4844 -2.9844,-7.7344 0,-3.2578 0.99219,-5.8359 2.9844,-7.7344 1.9883,-1.9062 4.6797,-2.8594 8.0781,-2.8594 1.1445,0 2.2383,0.13281 3.2812,0.39062 1.0508,0.25 2.0625,0.625 3.0312,1.125 v 4.2188 c -0.98047,-0.65625 -1.9453,-1.1406 -2.8906,-1.4531 -0.94922,-0.3125 -1.9492,-0.46875 -3,-0.46875 -1.875,0 -3.3516,0.60547 -4.4219,1.8125 -1.0742,1.1992 -1.6094,2.8555 -1.6094,4.9688 0,2.1055 0.53516,3.7617 1.6094,4.9688 1.0703,1.1992 2.5469,1.7969 4.4219,1.7969 1.0508,0 2.0508,-0.14844 3,-0.45312 0.94531,-0.3125 1.9102,-0.80078 2.8906,-1.4688 z"
       id="path1724" /></symbol><symbol
     id="c"
     overflow="visible"><path
       d="m 13.734,-11.141 c -0.4375,-0.19531 -0.87109,-0.34375 -1.2969,-0.4375 -0.41797,-0.10156 -0.83984,-0.15625 -1.2656,-0.15625 -1.2617,0 -2.2305,0.40625 -2.9062,1.2188 -0.67969,0.80469 -1.0156,1.9531 -1.0156,3.4531 v 7.0625 H 2.3591 v -15.312 h 4.8906 v 2.5156 c 0.625,-1 1.3438,-1.7266 2.1562,-2.1875 0.82031,-0.46875 1.8008,-0.70312 2.9375,-0.70312 0.16406,0 0.34375,0.01172 0.53125,0.03125 0.19531,0.01172 0.47656,0.03906 0.84375,0.07813 z"
       id="path1727" /></symbol><symbol
     id="a"
     overflow="visible"><path
       d="m 17.641,-7.7031 v 1.4062 H 6.188 c 0.125,1.1484 0.53906,2.0078 1.25,2.5781 0.70703,0.57422 1.7031,0.85938 2.9844,0.85938 1.0312,0 2.082,-0.14844 3.1562,-0.45312 1.082,-0.3125 2.1914,-0.77344 3.3281,-1.3906 v 3.7656 c -1.1562,0.4375 -2.3125,0.76562 -3.4688,0.98438 -1.1562,0.22656 -2.3125,0.34375 -3.4688,0.34375 -2.7734,0 -4.9297,-0.70312 -6.4688,-2.1094 -1.5312,-1.4062 -2.2969,-3.3789 -2.2969,-5.9219 0,-2.5 0.75391,-4.4609 2.2656,-5.8906 1.5078,-1.4375 3.582,-2.1562 6.2188,-2.1562 2.4062,0 4.332,0.73047 5.7812,2.1875 1.4453,1.4492 2.1719,3.3828 2.1719,5.7969 z m -5.0312,-1.625 c 0,-0.92578 -0.27344,-1.6719 -0.8125,-2.2344 -0.54297,-0.57031 -1.25,-0.85938 -2.125,-0.85938 -0.94922,0 -1.7188,0.26562 -2.3125,0.79688 -0.5937,0.53126 -0.96484,1.2969 -1.1094,2.2969 z"
       id="path1730" /></symbol><symbol
     id="j"
     overflow="visible"><path
       d="m 9.2188,-6.8906 c -1.0234,0 -1.793,0.17188 -2.3125,0.51562 -0.51172,0.34375 -0.76562,0.85547 -0.76562,1.5312 0,0.625 0.20703,1.1172 0.625,1.4688 0.41406,0.34375 0.98828,0.51562 1.7188,0.51562 0.92578,0 1.7031,-0.32812 2.3281,-0.98438 0.63281,-0.66406 0.95312,-1.4922 0.95312,-2.4844 v -0.5625 z m 7.4688,-1.8438 V 0 h -4.9219 v -2.2656 c -0.65625,0.92969 -1.3984,1.6055 -2.2188,2.0312 -0.82422,0.41406 -1.8242,0.625 -3,0.625 -1.5859,0 -2.8711,-0.45703 -3.8594,-1.375 -0.99219,-0.92578 -1.4844,-2.1289 -1.4844,-3.6094 0,-1.7891 0.61328,-3.1016 1.8438,-3.9375 1.2383,-0.84375 3.1797,-1.2656 5.8281,-1.2656 h 2.8906 v -0.39062 c 0,-0.76953 -0.30859,-1.332 -0.92188,-1.6875 -0.61719,-0.36328 -1.5703,-0.54688 -2.8594,-0.54688 -1.0547,0 -2.0312,0.10547 -2.9375,0.3125 -0.89844,0.21094 -1.7305,0.52344 -2.5,0.9375 v -3.7344 c 1.0391,-0.25 2.0859,-0.44141 3.1406,-0.57812 1.0625,-0.13281 2.125,-0.20312 3.1875,-0.20312 2.7578,0 4.75,0.54688 5.9688,1.6406 1.2266,1.0859 1.8438,2.8555 1.8438,5.3125 z"
       id="path1733" /></symbol><symbol
     id="b"
     overflow="visible"><path
       d="m 7.7031,-19.656 v 4.3438 H 12.75 v 3.5 H 7.7031 v 6.5 c 0,0.71094 0.14062,1.1875 0.42188,1.4375 0.28126,0.25 0.83594,0.375 1.6719,0.375 h 2.5156 v 3.5 h -4.1875 c -1.9375,0 -3.3125,-0.39844 -4.125,-1.2031 -0.80469,-0.8125 -1.2031,-2.1797 -1.2031,-4.1094 v -6.5 h -2.4219 v -3.5 h 2.4219 v -4.3438 z"
       id="path1736" /></symbol><symbol
     id="i"
     overflow="visible"><path
       d="m 12.766,-13.078 v -8.2031 h 4.9219 V -1e-4 H 12.766 v -2.2188 c -0.66797,0.90625 -1.4062,1.5703 -2.2188,1.9844 -0.8126,0.4141 -1.7578,0.625 -2.8281,0.625 -1.8867,0 -3.4336,-0.75 -4.6406,-2.25 -1.2109,-1.5 -1.8125,-3.4258 -1.8125,-5.7812 0,-2.3633 0.60156,-4.2969 1.8125,-5.7969 1.207,-1.5 2.7539,-2.25 4.6406,-2.25 1.0625,0 2,0.21484 2.8125,0.64062 0.82031,0.42969 1.5664,1.0859 2.2344,1.9688 z m -3.2188,9.9219 c 1.0391,0 1.8359,-0.37891 2.3906,-1.1406 0.55078,-0.76953 0.82812,-1.8828 0.82812,-3.3438 0,-1.457 -0.27734,-2.5664 -0.82812,-3.3281 -0.55469,-0.76953 -1.3516,-1.1562 -2.3906,-1.1562 -1.043,0 -1.8398,0.38672 -2.3906,1.1562 -0.55469,0.76172 -0.82812,1.8711 -0.82812,3.3281 0,1.4609 0.27344,2.5742 0.82812,3.3438 0.55078,0.76172 1.3477,1.1406 2.3906,1.1406 z"
       id="path1739" /></symbol><symbol
     id="h"
     overflow="visible"><path
       d="m 10.5,-3.1562 c 1.0508,0 1.8516,-0.37891 2.4062,-1.1406 0.55078,-0.76953 0.82812,-1.8828 0.82812,-3.3438 0,-1.457 -0.27734,-2.5664 -0.82812,-3.3281 -0.55469,-0.76953 -1.3555,-1.1562 -2.4062,-1.1562 -1.0547,0 -1.8594,0.38672 -2.4219,1.1562 -0.55469,0.77344 -0.82812,1.8828 -0.82812,3.3281 0,1.4492 0.27344,2.5586 0.82812,3.3281 0.5625,0.77344 1.3672,1.1562 2.4219,1.1562 z m -3.25,-9.9219 c 0.67578,-0.88281 1.4219,-1.5391 2.2344,-1.9688 0.82031,-0.42578 1.7656,-0.64062 2.8281,-0.64062 1.8945,0 3.4453,0.75 4.6562,2.25 1.207,1.5 1.8125,3.4336 1.8125,5.7969 0,2.3555 -0.60547,4.2812 -1.8125,5.7812 -1.2109,1.5 -2.7617,2.25 -4.6562,2.25 -1.0625,0 -2.0078,-0.21094 -2.8281,-0.625 C 8.6719,-0.6602 7.9258,-1.32032 7.25,-2.21882 V -2e-5 H 2.3594 v -21.281 H 7.25 Z"
       id="path1742" /></symbol><symbol
     id="g"
     overflow="visible"><path
       d="m 0.34375,-15.312 h 4.8906 l 4.125,10.391 3.5,-10.391 h 4.8906 l -6.4375,16.766 c -0.64844,1.6953 -1.4023,2.8828 -2.2656,3.5625 -0.86719,0.6875 -2,1.0312 -3.4062,1.0312 H 2.79685 V 2.8289 h 1.5312 c 0.83203,0 1.4375,-0.13672 1.8125,-0.40625 C 6.52336,2.16093 6.82024,1.69218 7.03117,1.01645 L 7.17179,0.59457 Z"
       id="path1745" /></symbol><symbol
     id="f"
     overflow="visible"><path
       d="M 2.3594,-21.281 H 7.25 V 0 H 2.3594 Z"
       id="path1748" /></symbol><symbol
     id="e"
     overflow="visible"><path
       d="M 2.3594,-15.312 H 7.25 V 0 H 2.3594 Z m 0,-5.9688 H 7.25 v 4 H 2.3594 Z"
       id="path1751" /></symbol><symbol
     id="t"
     overflow="visible"><path
       d="M 7.25,-2.2188 V 5.8281 H 2.3594 v -21.141 H 7.25 v 2.2344 c 0.67578,-0.88281 1.4219,-1.5391 2.2344,-1.9688 0.82031,-0.42578 1.7656,-0.64062 2.8281,-0.64062 1.8945,0 3.4453,0.75 4.6562,2.25 1.207,1.5 1.8125,3.4336 1.8125,5.7969 0,2.3555 -0.60547,4.2812 -1.8125,5.7812 -1.2109,1.5 -2.7617,2.25 -4.6562,2.25 -1.0625,0 -2.0078,-0.21094 -2.8281,-0.625 C 8.6719,-0.6606 7.9258,-1.32072 7.25,-2.21922 Z m 3.25,-9.9062 c -1.0547,0 -1.8594,0.38672 -2.4219,1.1562 -0.55469,0.77344 -0.82812,1.8828 -0.82812,3.3281 0,1.4492 0.27344,2.5586 0.82812,3.3281 0.5625,0.77344 1.3672,1.1562 2.4219,1.1562 1.0508,0 1.8516,-0.37891 2.4062,-1.1406 0.55078,-0.76953 0.82812,-1.8828 0.82812,-3.3438 0,-1.457 -0.27734,-2.5664 -0.82812,-3.3281 -0.55469,-0.76953 -1.3555,-1.1562 -2.4062,-1.1562 z"
       id="path1754" /></symbol><symbol
     id="s"
     overflow="visible"><path
       d="m 12.422,-21.281 v 3.2188 H 9.7189 c -0.6875,0 -1.1719,0.125 -1.4531,0.375 -0.27344,0.25 -0.40625,0.6875 -0.40625,1.3125 v 1.0625 h 4.1875 v 3.5 H 7.85955 V -2e-4 h -4.8906 v -11.812 h -2.4375 v -3.5 h 2.4375 v -1.0625 c 0,-1.6641 0.46094,-2.8984 1.3906,-3.7031 0.92578,-0.80078 2.3672,-1.2031 4.3281,-1.2031 z"
       id="path1757" /></symbol><symbol
     id="d"
     overflow="visible"><path
       d="m 9.6406,-12.188 c -1.0859,0 -1.9141,0.39062 -2.4844,1.1719 -0.57422,0.78125 -0.85938,1.9062 -0.85938,3.375 0,1.4688 0.28516,2.5938 0.85938,3.375 0.57031,0.77344 1.3984,1.1562 2.4844,1.1562 1.0625,0 1.875,-0.38281 2.4375,-1.1562 0.57031,-0.78125 0.85938,-1.9062 0.85938,-3.375 0,-1.4688 -0.28906,-2.5938 -0.85938,-3.375 -0.5625,-0.78125 -1.375,-1.1719 -2.4375,-1.1719 z m 0,-3.5 c 2.6328,0 4.6914,0.71484 6.1719,2.1406 1.4766,1.418 2.2188,3.3867 2.2188,5.9062 0,2.5117 -0.74219,4.4805 -2.2188,5.9062 C 14.332,-0.317 12.2734,0.39 9.6406,0.39 6.9922,0.39 4.9258,-0.31703 3.4375,-1.735 1.9453,-3.1608 1.2031,-5.1295 1.2031,-7.6412 c 0,-2.5195 0.74219,-4.4883 2.2344,-5.9062 1.4883,-1.4258 3.5547,-2.1406 6.2031,-2.1406 z"
       id="path1760" /></symbol><symbol
     id="r"
     overflow="visible"><path
       d="m 16.547,-12.766 c 0.61328,-0.94531 1.3477,-1.6719 2.2031,-2.1719 0.85156,-0.5 1.7891,-0.75 2.8125,-0.75 1.7578,0 3.0977,0.54688 4.0156,1.6406 0.92578,1.0859 1.3906,2.6562 1.3906,4.7188 V -4e-4 h -4.9219 v -7.9844 -0.35938 c 0.0078,-0.13281 0.01563,-0.32031 0.01563,-0.5625 0,-1.082 -0.16406,-1.8633 -0.48438,-2.3438 -0.3125,-0.48828 -0.82422,-0.73438 -1.5312,-0.73438 -0.92969,0 -1.6484,0.38672 -2.1562,1.1562 -0.51172,0.76172 -0.77344,1.8672 -0.78125,3.3125 v 7.5156 h -4.9219 v -7.9844 c 0,-1.6953 -0.14844,-2.7852 -0.4375,-3.2656 -0.29297,-0.48828 -0.8125,-0.73438 -1.5625,-0.73438 -0.9375,0 -1.6641,0.38672 -2.1719,1.1562 -0.51172,0.76172 -0.76562,1.8594 -0.76562,3.2969 v 7.5312 h -4.9219 v -15.312 h 4.9219 v 2.2344 c 0.60156,-0.86328 1.2891,-1.5156 2.0625,-1.9531 0.78125,-0.4375 1.6406,-0.65625 2.5781,-0.65625 1.0625,0 2,0.25781 2.8125,0.76562 0.8125,0.51172 1.4258,1.2305 1.8438,2.1562 z"
       id="path1763" /></symbol><symbol
     id="q"
     overflow="visible"><path
       d="M 17.75,-9.3281 V 0 h -4.9219 v -7.1094 c 0,-1.3438 -0.03125,-2.2656 -0.09375,-2.7656 -0.0625,-0.5 -0.16797,-0.86719 -0.3125,-1.1094 -0.1875,-0.3125 -0.44922,-0.55469 -0.78125,-0.73438 -0.32422,-0.17578 -0.69531,-0.26562 -1.1094,-0.26562 -1.0234,0 -1.8242,0.39844 -2.4062,1.1875 -0.58594,0.78125 -0.875,1.8711 -0.875,3.2656 V -1e-4 H 2.3594 v -21.281 H 7.25 v 8.2031 c 0.73828,-0.88281 1.5195,-1.5391 2.3438,-1.9688 0.83203,-0.42578 1.75,-0.64062 2.75,-0.64062 1.7695,0 3.1133,0.54688 4.0312,1.6406 0.91406,1.0859 1.375,2.6562 1.375,4.7188 z"
       id="path1766" /></symbol><symbol
     id="p"
     overflow="visible"><path
       d="m 2.5781,-20.406 h 5.875 l 7.4219,14 v -14 h 4.9844 V 0 h -5.875 L 7.5625,-14 V 0 H 2.5781 Z"
       id="path1769" /></symbol><symbol
     id="o"
     overflow="visible"><path
       d="m 2.1875,-5.9688 v -9.3438 h 4.9219 v 1.5312 c 0,0.83594 -0.00781,1.875 -0.015625,3.125 -0.011719,1.25 -0.015625,2.0859 -0.015625,2.5 0,1.2422 0.03125,2.1328 0.09375,2.6719 0.070313,0.54297 0.17969,0.93359 0.32812,1.1719 0.20703,0.32422 0.47266,0.57422 0.79688,0.75 0.32031,0.16797 0.69141,0.25 1.1094,0.25 1.0195,0 1.8203,-0.39062 2.4062,-1.1719 0.58203,-0.78125 0.875,-1.8672 0.875,-3.2656 v -7.5625 h 4.8906 V -6e-4 H 12.6875 V -2.2194 C 11.94531,-1.32096 11.1641,-0.6608 10.3437,-0.235 9.51948,0.17906 8.6093,0.39 7.6093,0.39 5.8476,0.39 4.5038,-0.14906 3.5781,-1.235 2.64841,-2.317 2.1875,-3.8952 2.1875,-5.9694 Z"
       id="path1772" /></symbol><symbol
     id="n"
     overflow="visible"><path
       d="M 17.75,-9.3281 V 0 h -4.9219 v -7.1406 c 0,-1.3203 -0.03125,-2.2344 -0.09375,-2.7344 -0.0625,-0.5 -0.16797,-0.86719 -0.3125,-1.1094 -0.1875,-0.3125 -0.44922,-0.55469 -0.78125,-0.73438 -0.32422,-0.17578 -0.69531,-0.26562 -1.1094,-0.26562 -1.0234,0 -1.8242,0.39844 -2.4062,1.1875 -0.58594,0.78125 -0.875,1.8711 -0.875,3.2656 V -1e-4 H 2.3594 v -15.312 H 7.25 v 2.2344 c 0.73828,-0.88281 1.5195,-1.5391 2.3438,-1.9688 0.83203,-0.42578 1.75,-0.64062 2.75,-0.64062 1.7695,0 3.1133,0.54688 4.0312,1.6406 0.91406,1.0859 1.375,2.6562 1.375,4.7188 z"
       id="path1775" /></symbol><symbol
     id="m"
     overflow="visible"><path
       d="m 2.5781,-20.406 h 8.7344 c 2.5938,0 4.582,0.57812 5.9688,1.7344 1.3945,1.1484 2.0938,2.7891 2.0938,4.9219 0,2.1367 -0.69922,3.7812 -2.0938,4.9375 -1.3867,1.1562 -3.375,1.7344 -5.9688,1.7344 H 7.8281 V 3e-4 h -5.25 z m 5.25,3.8125 v 5.7031 H 10.75 c 1.0195,0 1.8047,-0.25 2.3594,-0.75 0.5625,-0.5 0.84375,-1.2031 0.84375,-2.1094 0,-0.91406 -0.28125,-1.6172 -0.84375,-2.1094 -0.55469,-0.48828 -1.3398,-0.73438 -2.3594,-0.73438 z"
       id="path1778" /></symbol><symbol
     id="l"
     overflow="visible"><path
       d="M 2.3594,-15.312 H 7.25 v 15.031 c 0,2.0508 -0.49609,3.6172 -1.4844,4.7031 -0.98047,1.082 -2.4062,1.625 -4.2812,1.625 H -0.9375 V 2.8283 h 0.85938 c 0.92578,0 1.5625,-0.21094 1.9062,-0.625 0.35156,-0.41797 0.53125,-1.2461 0.53125,-2.4844 z m 0,-5.9688 H 7.25 v 4 H 2.3594 Z"
       id="path1781" /></symbol><symbol
     id="k"
     overflow="visible"><path
       d="m 14.719,-14.828 v 3.9844 c -0.65625,-0.45703 -1.3242,-0.79688 -2,-1.0156 -0.66797,-0.21875 -1.3594,-0.32812 -2.0781,-0.32812 -1.3672,0 -2.4336,0.40234 -3.2031,1.2031 -0.76172,0.79297 -1.1406,1.9062 -1.1406,3.3438 0,1.4297 0.37891,2.543 1.1406,3.3438 0.76953,0.79297 1.8359,1.1875 3.2031,1.1875 0.75781,0 1.4844,-0.10938 2.1719,-0.32812 0.6875,-0.22656 1.3203,-0.56641 1.9062,-1.0156 v 4 c -0.76172,0.28125 -1.5391,0.48828 -2.3281,0.625 -0.78125,0.14453 -1.5742,0.21875 -2.375,0.21875 -2.7617,0 -4.9219,-0.70703 -6.4844,-2.125 -1.5547,-1.4141 -2.3281,-3.3828 -2.3281,-5.9062 0,-2.5312 0.77344,-4.5039 2.3281,-5.9219 1.5625,-1.4141 3.7227,-2.125 6.4844,-2.125 0.80078,0 1.5938,0.07422 2.375,0.21875 0.78125,0.13672 1.5547,0.35156 2.3281,0.64062 z"
       id="path1784" /></symbol><symbol
     id="h-3"
     overflow="visible"><path
       d="m 18.766,-1.125 c -0.96875,0.5 -1.9805,0.875 -3.0312,1.125 -1.043,0.25781 -2.1367,0.39062 -3.2812,0.39062 -3.3984,0 -6.0898,-0.94531 -8.0781,-2.8438 -1.9922,-1.9062 -2.9844,-4.4844 -2.9844,-7.7344 0,-3.2578 0.99219,-5.8359 2.9844,-7.7344 1.9883,-1.9062 4.6797,-2.8594 8.0781,-2.8594 1.1445,0 2.2383,0.13281 3.2812,0.39062 1.0508,0.25 2.0625,0.625 3.0312,1.125 v 4.2188 c -0.98047,-0.65625 -1.9453,-1.1406 -2.8906,-1.4531 -0.94922,-0.3125 -1.9492,-0.46875 -3,-0.46875 -1.875,0 -3.3516,0.60547 -4.4219,1.8125 -1.0742,1.1992 -1.6094,2.8555 -1.6094,4.9688 0,2.1055 0.53516,3.7617 1.6094,4.9688 1.0703,1.1992 2.5469,1.7969 4.4219,1.7969 1.0508,0 2.0508,-0.14844 3,-0.45312 0.94531,-0.3125 1.9102,-0.80078 2.8906,-1.4688 z"
       id="path1937" /></symbol><symbol
     id="c-6"
     overflow="visible"><path
       d="m 13.734,-11.141 c -0.4375,-0.19531 -0.87109,-0.34375 -1.2969,-0.4375 -0.41797,-0.10156 -0.83984,-0.15625 -1.2656,-0.15625 -1.2617,0 -2.2305,0.40625 -2.9062,1.2188 -0.67969,0.80469 -1.0156,1.9531 -1.0156,3.4531 v 7.0625 H 2.3591 v -15.312 h 4.8906 v 2.5156 c 0.625,-1 1.3438,-1.7266 2.1562,-2.1875 0.82031,-0.46875 1.8008,-0.70312 2.9375,-0.70312 0.16406,0 0.34375,0.01172 0.53125,0.03125 0.19531,0.01172 0.47656,0.03906 0.84375,0.07813 z"
       id="path1940" /></symbol><symbol
     id="a-7"
     overflow="visible"><path
       d="m 17.641,-7.7031 v 1.4062 H 6.188 c 0.125,1.1484 0.53906,2.0078 1.25,2.5781 0.70703,0.57422 1.7031,0.85938 2.9844,0.85938 1.0312,0 2.082,-0.14844 3.1562,-0.45312 1.082,-0.3125 2.1914,-0.77344 3.3281,-1.3906 v 3.7656 c -1.1562,0.4375 -2.3125,0.76562 -3.4688,0.98438 -1.1562,0.22656 -2.3125,0.34375 -3.4688,0.34375 -2.7734,0 -4.9297,-0.70312 -6.4688,-2.1094 -1.5312,-1.4062 -2.2969,-3.3789 -2.2969,-5.9219 0,-2.5 0.75391,-4.4609 2.2656,-5.8906 1.5078,-1.4375 3.582,-2.1562 6.2188,-2.1562 2.4062,0 4.332,0.73047 5.7812,2.1875 1.4453,1.4492 2.1719,3.3828 2.1719,5.7969 z m -5.0312,-1.625 c 0,-0.92578 -0.27344,-1.6719 -0.8125,-2.2344 -0.54297,-0.57031 -1.25,-0.85938 -2.125,-0.85938 -0.94922,0 -1.7188,0.26562 -2.3125,0.79688 -0.5937,0.53126 -0.96484,1.2969 -1.1094,2.2969 z"
       id="path1943" /></symbol><symbol
     id="l-5"
     overflow="visible"><path
       d="m 9.2188,-6.8906 c -1.0234,0 -1.793,0.17188 -2.3125,0.51562 -0.51172,0.34375 -0.76562,0.85547 -0.76562,1.5312 0,0.625 0.20703,1.1172 0.625,1.4688 0.41406,0.34375 0.98828,0.51562 1.7188,0.51562 0.92578,0 1.7031,-0.32812 2.3281,-0.98438 0.63281,-0.66406 0.95312,-1.4922 0.95312,-2.4844 v -0.5625 z m 7.4688,-1.8438 V 0 h -4.9219 v -2.2656 c -0.65625,0.92969 -1.3984,1.6055 -2.2188,2.0312 -0.82422,0.41406 -1.8242,0.625 -3,0.625 -1.5859,0 -2.8711,-0.45703 -3.8594,-1.375 -0.99219,-0.92578 -1.4844,-2.1289 -1.4844,-3.6094 0,-1.7891 0.61328,-3.1016 1.8438,-3.9375 1.2383,-0.84375 3.1797,-1.2656 5.8281,-1.2656 h 2.8906 v -0.39062 c 0,-0.76953 -0.30859,-1.332 -0.92188,-1.6875 -0.61719,-0.36328 -1.5703,-0.54688 -2.8594,-0.54688 -1.0547,0 -2.0312,0.10547 -2.9375,0.3125 -0.89844,0.21094 -1.7305,0.52344 -2.5,0.9375 v -3.7344 c 1.0391,-0.25 2.0859,-0.44141 3.1406,-0.57812 1.0625,-0.13281 2.125,-0.20312 3.1875,-0.20312 2.7578,0 4.75,0.54688 5.9688,1.6406 1.2266,1.0859 1.8438,2.8555 1.8438,5.3125 z"
       id="path1946" /></symbol><symbol
     id="b-3"
     overflow="visible"><path
       d="m 7.7031,-19.656 v 4.3438 H 12.75 v 3.5 H 7.7031 v 6.5 c 0,0.71094 0.14062,1.1875 0.42188,1.4375 0.28126,0.25 0.83594,0.375 1.6719,0.375 h 2.5156 v 3.5 h -4.1875 c -1.9375,0 -3.3125,-0.39844 -4.125,-1.2031 -0.80469,-0.8125 -1.2031,-2.1797 -1.2031,-4.1094 v -6.5 h -2.4219 v -3.5 h 2.4219 v -4.3438 z"
       id="path1949" /></symbol><symbol
     id="e-5"
     overflow="visible"><path
       d="m 12.766,-13.078 v -8.2031 h 4.9219 V -1e-4 H 12.766 v -2.2188 c -0.66797,0.90625 -1.4062,1.5703 -2.2188,1.9844 -0.8126,0.4141 -1.7578,0.625 -2.8281,0.625 -1.8867,0 -3.4336,-0.75 -4.6406,-2.25 -1.2109,-1.5 -1.8125,-3.4258 -1.8125,-5.7812 0,-2.3633 0.60156,-4.2969 1.8125,-5.7969 1.207,-1.5 2.7539,-2.25 4.6406,-2.25 1.0625,0 2,0.21484 2.8125,0.64062 0.82031,0.42969 1.5664,1.0859 2.2344,1.9688 z m -3.2188,9.9219 c 1.0391,0 1.8359,-0.37891 2.3906,-1.1406 0.55078,-0.76953 0.82812,-1.8828 0.82812,-3.3438 0,-1.457 -0.27734,-2.5664 -0.82812,-3.3281 -0.55469,-0.76953 -1.3516,-1.1562 -2.3906,-1.1562 -1.043,0 -1.8398,0.38672 -2.3906,1.1562 -0.55469,0.76172 -0.82812,1.8711 -0.82812,3.3281 0,1.4609 0.27344,2.5742 0.82812,3.3438 0.55078,0.76172 1.3477,1.1406 2.3906,1.1406 z"
       id="path1952" /></symbol><symbol
     id="k-6"
     overflow="visible"><path
       d="m 10.5,-3.1562 c 1.0508,0 1.8516,-0.37891 2.4062,-1.1406 0.55078,-0.76953 0.82812,-1.8828 0.82812,-3.3438 0,-1.457 -0.27734,-2.5664 -0.82812,-3.3281 -0.55469,-0.76953 -1.3555,-1.1562 -2.4062,-1.1562 -1.0547,0 -1.8594,0.38672 -2.4219,1.1562 -0.55469,0.77344 -0.82812,1.8828 -0.82812,3.3281 0,1.4492 0.27344,2.5586 0.82812,3.3281 0.5625,0.77344 1.3672,1.1562 2.4219,1.1562 z m -3.25,-9.9219 c 0.67578,-0.88281 1.4219,-1.5391 2.2344,-1.9688 0.82031,-0.42578 1.7656,-0.64062 2.8281,-0.64062 1.8945,0 3.4453,0.75 4.6562,2.25 1.207,1.5 1.8125,3.4336 1.8125,5.7969 0,2.3555 -0.60547,4.2812 -1.8125,5.7812 -1.2109,1.5 -2.7617,2.25 -4.6562,2.25 -1.0625,0 -2.0078,-0.21094 -2.8281,-0.625 C 8.6719,-0.6602 7.9258,-1.32032 7.25,-2.21882 V -2e-5 H 2.3594 v -21.281 H 7.25 Z"
       id="path1955" /></symbol><symbol
     id="j-2"
     overflow="visible"><path
       d="m 0.34375,-15.312 h 4.8906 l 4.125,10.391 3.5,-10.391 h 4.8906 l -6.4375,16.766 c -0.64844,1.6953 -1.4023,2.8828 -2.2656,3.5625 -0.86719,0.6875 -2,1.0312 -3.4062,1.0312 H 2.79685 V 2.8289 h 1.5312 c 0.83203,0 1.4375,-0.13672 1.8125,-0.40625 C 6.52336,2.16093 6.82024,1.69218 7.03117,1.01645 L 7.17179,0.59457 Z"
       id="path1958" /></symbol><symbol
     id="i-9"
     overflow="visible"><path
       d="M 14.953,-3.7188 H 6.7342 L 5.4217,0 H 0.1405 L 7.703,-20.406 h 6.2656 L 21.5311,0 H 16.2499 Z M 8.0468,-7.5 h 5.5781 l -2.7812,-8.125 z"
       id="path1961" /></symbol><symbol
     id="u-1"
     overflow="visible"><path
       d="M 2.3594,-15.312 H 7.25 V 0 H 2.3594 Z m 0,-5.9688 H 7.25 v 4 H 2.3594 Z"
       id="path1964" /></symbol><symbol
     id="g-2"
     overflow="visible"><path
       d="M 17.75,-9.3281 V 0 h -4.9219 v -7.1406 c 0,-1.3203 -0.03125,-2.2344 -0.09375,-2.7344 -0.0625,-0.5 -0.16797,-0.86719 -0.3125,-1.1094 -0.1875,-0.3125 -0.44922,-0.55469 -0.78125,-0.73438 -0.32422,-0.17578 -0.69531,-0.26562 -1.1094,-0.26562 -1.0234,0 -1.8242,0.39844 -2.4062,1.1875 -0.58594,0.78125 -0.875,1.8711 -0.875,3.2656 V -1e-4 H 2.3594 v -15.312 H 7.25 v 2.2344 c 0.73828,-0.88281 1.5195,-1.5391 2.3438,-1.9688 0.83203,-0.42578 1.75,-0.64062 2.75,-0.64062 1.7695,0 3.1133,0.54688 4.0312,1.6406 0.91406,1.0859 1.375,2.6562 1.375,4.7188 z"
       id="path1967" /></symbol><symbol
     id="d-7"
     overflow="visible"><path
       d="m 9.6406,-12.188 c -1.0859,0 -1.9141,0.39062 -2.4844,1.1719 -0.57422,0.78125 -0.85938,1.9062 -0.85938,3.375 0,1.4688 0.28516,2.5938 0.85938,3.375 0.57031,0.77344 1.3984,1.1562 2.4844,1.1562 1.0625,0 1.875,-0.38281 2.4375,-1.1562 0.57031,-0.78125 0.85938,-1.9062 0.85938,-3.375 0,-1.4688 -0.28906,-2.5938 -0.85938,-3.375 -0.5625,-0.78125 -1.375,-1.1719 -2.4375,-1.1719 z m 0,-3.5 c 2.6328,0 4.6914,0.71484 6.1719,2.1406 1.4766,1.418 2.2188,3.3867 2.2188,5.9062 0,2.5117 -0.74219,4.4805 -2.2188,5.9062 C 14.332,-0.317 12.2734,0.39 9.6406,0.39 6.9922,0.39 4.9258,-0.31703 3.4375,-1.735 1.9453,-3.1608 1.2031,-5.1295 1.2031,-7.6412 c 0,-2.5195 0.74219,-4.4883 2.2344,-5.9062 1.4883,-1.4258 3.5547,-2.1406 6.2031,-2.1406 z"
       id="path1970" /></symbol><symbol
     id="t-0"
     overflow="visible"><path
       d="m 9.5469,-12.125 c -1.043,0 -1.8398,0.38672 -2.3906,1.1562 -0.55469,0.76172 -0.82812,1.8711 -0.82812,3.3281 0,1.4609 0.27344,2.5742 0.82812,3.3438 0.55078,0.76172 1.3477,1.1406 2.3906,1.1406 1.0391,0 1.8359,-0.37891 2.3906,-1.1406 0.55078,-0.76953 0.82812,-1.8828 0.82812,-3.3438 0,-1.457 -0.27734,-2.5664 -0.82812,-3.3281 -0.55469,-0.76953 -1.3516,-1.1562 -2.3906,-1.1562 z m 3.2188,9.9062 c -0.66797,0.90625 -1.4062,1.5703 -2.2188,1.9844 -0.8126,0.4141 -1.7578,0.625 -2.8281,0.625 -1.8867,0 -3.4336,-0.75 -4.6406,-2.25 -1.2109,-1.5 -1.8125,-3.4258 -1.8125,-5.7812 0,-2.3633 0.60156,-4.2891 1.8125,-5.7812 1.207,-1.4883 2.7539,-2.2344 4.6406,-2.2344 1.0703,0 2.0156,0.21484 2.8281,0.64062 0.8125,0.41797 1.5508,1.0742 2.2188,1.9688 v -2.2656 h 4.9219 v 21.141 h -4.9219 z"
       id="path1973" /></symbol><symbol
     id="f-9"
     overflow="visible"><path
       d="m 2.1875,-5.9688 v -9.3438 h 4.9219 v 1.5312 c 0,0.83594 -0.00781,1.875 -0.015625,3.125 -0.011719,1.25 -0.015625,2.0859 -0.015625,2.5 0,1.2422 0.03125,2.1328 0.09375,2.6719 0.070313,0.54297 0.17969,0.93359 0.32812,1.1719 0.20703,0.32422 0.47266,0.57422 0.79688,0.75 0.32031,0.16797 0.69141,0.25 1.1094,0.25 1.0195,0 1.8203,-0.39062 2.4062,-1.1719 0.58203,-0.78125 0.875,-1.8672 0.875,-3.2656 v -7.5625 h 4.8906 V -6e-4 H 12.6875 V -2.2194 C 11.94531,-1.32096 11.1641,-0.6608 10.3437,-0.235 9.51948,0.17906 8.6093,0.39 7.6093,0.39 5.8476,0.39 4.5038,-0.14906 3.5781,-1.235 2.64841,-2.317 2.1875,-3.8952 2.1875,-5.9694 Z"
       id="path1976" /></symbol><symbol
     id="s-3"
     overflow="visible"><path
       d="m 12.422,-21.281 v 3.2188 H 9.7189 c -0.6875,0 -1.1719,0.125 -1.4531,0.375 -0.27344,0.25 -0.40625,0.6875 -0.40625,1.3125 v 1.0625 h 4.1875 v 3.5 H 7.85955 V -2e-4 h -4.8906 v -11.812 h -2.4375 v -3.5 h 2.4375 v -1.0625 c 0,-1.6641 0.46094,-2.8984 1.3906,-3.7031 0.92578,-0.80078 2.3672,-1.2031 4.3281,-1.2031 z"
       id="path1979" /></symbol><symbol
     id="r-6"
     overflow="visible"><path
       d="m 16.547,-12.766 c 0.61328,-0.94531 1.3477,-1.6719 2.2031,-2.1719 0.85156,-0.5 1.7891,-0.75 2.8125,-0.75 1.7578,0 3.0977,0.54688 4.0156,1.6406 0.92578,1.0859 1.3906,2.6562 1.3906,4.7188 V -4e-4 h -4.9219 v -7.9844 -0.35938 c 0.0078,-0.13281 0.01563,-0.32031 0.01563,-0.5625 0,-1.082 -0.16406,-1.8633 -0.48438,-2.3438 -0.3125,-0.48828 -0.82422,-0.73438 -1.5312,-0.73438 -0.92969,0 -1.6484,0.38672 -2.1562,1.1562 -0.51172,0.76172 -0.77344,1.8672 -0.78125,3.3125 v 7.5156 h -4.9219 v -7.9844 c 0,-1.6953 -0.14844,-2.7852 -0.4375,-3.2656 -0.29297,-0.48828 -0.8125,-0.73438 -1.5625,-0.73438 -0.9375,0 -1.6641,0.38672 -2.1719,1.1562 -0.51172,0.76172 -0.76562,1.8594 -0.76562,3.2969 v 7.5312 h -4.9219 v -15.312 h 4.9219 v 2.2344 c 0.60156,-0.86328 1.2891,-1.5156 2.0625,-1.9531 0.78125,-0.4375 1.6406,-0.65625 2.5781,-0.65625 1.0625,0 2,0.25781 2.8125,0.76562 0.8125,0.51172 1.4258,1.2305 1.8438,2.1562 z"
       id="path1982" /></symbol><symbol
     id="q-0"
     overflow="visible"><path
       d="M 17.75,-9.3281 V 0 h -4.9219 v -7.1094 c 0,-1.3438 -0.03125,-2.2656 -0.09375,-2.7656 -0.0625,-0.5 -0.16797,-0.86719 -0.3125,-1.1094 -0.1875,-0.3125 -0.44922,-0.55469 -0.78125,-0.73438 -0.32422,-0.17578 -0.69531,-0.26562 -1.1094,-0.26562 -1.0234,0 -1.8242,0.39844 -2.4062,1.1875 -0.58594,0.78125 -0.875,1.8711 -0.875,3.2656 V -1e-4 H 2.3594 v -21.281 H 7.25 v 8.2031 c 0.73828,-0.88281 1.5195,-1.5391 2.3438,-1.9688 0.83203,-0.42578 1.75,-0.64062 2.75,-0.64062 1.7695,0 3.1133,0.54688 4.0312,1.6406 0.91406,1.0859 1.375,2.6562 1.375,4.7188 z"
       id="path1985" /></symbol><symbol
     id="p-6"
     overflow="visible"><path
       d="m 2.5781,-20.406 h 5.875 l 7.4219,14 v -14 h 4.9844 V 0 h -5.875 L 7.5625,-14 V 0 H 2.5781 Z"
       id="path1988" /></symbol><symbol
     id="o-2"
     overflow="visible"><path
       d="m 2.5781,-20.406 h 8.7344 c 2.5938,0 4.582,0.57812 5.9688,1.7344 1.3945,1.1484 2.0938,2.7891 2.0938,4.9219 0,2.1367 -0.69922,3.7812 -2.0938,4.9375 -1.3867,1.1562 -3.375,1.7344 -5.9688,1.7344 H 7.8281 V 3e-4 h -5.25 z m 5.25,3.8125 v 5.7031 H 10.75 c 1.0195,0 1.8047,-0.25 2.3594,-0.75 0.5625,-0.5 0.84375,-1.2031 0.84375,-2.1094 0,-0.91406 -0.28125,-1.6172 -0.84375,-2.1094 -0.55469,-0.48828 -1.3398,-0.73438 -2.3594,-0.73438 z"
       id="path1991" /></symbol><symbol
     id="n-6"
     overflow="visible"><path
       d="M 2.3594,-15.312 H 7.25 v 15.031 c 0,2.0508 -0.49609,3.6172 -1.4844,4.7031 -0.98047,1.082 -2.4062,1.625 -4.2812,1.625 H -0.9375 V 2.8283 h 0.85938 c 0.92578,0 1.5625,-0.21094 1.9062,-0.625 0.35156,-0.41797 0.53125,-1.2461 0.53125,-2.4844 z m 0,-5.9688 H 7.25 v 4 H 2.3594 Z"
       id="path1994" /></symbol><symbol
     id="m-1"
     overflow="visible"><path
       d="m 14.719,-14.828 v 3.9844 c -0.65625,-0.45703 -1.3242,-0.79688 -2,-1.0156 -0.66797,-0.21875 -1.3594,-0.32812 -2.0781,-0.32812 -1.3672,0 -2.4336,0.40234 -3.2031,1.2031 -0.76172,0.79297 -1.1406,1.9062 -1.1406,3.3438 0,1.4297 0.37891,2.543 1.1406,3.3438 0.76953,0.79297 1.8359,1.1875 3.2031,1.1875 0.75781,0 1.4844,-0.10938 2.1719,-0.32812 0.6875,-0.22656 1.3203,-0.56641 1.9062,-1.0156 v 4 c -0.76172,0.28125 -1.5391,0.48828 -2.3281,0.625 -0.78125,0.14453 -1.5742,0.21875 -2.375,0.21875 -2.7617,0 -4.9219,-0.70703 -6.4844,-2.125 -1.5547,-1.4141 -2.3281,-3.3828 -2.3281,-5.9062 0,-2.5312 0.77344,-4.5039 2.3281,-5.9219 1.5625,-1.4141 3.7227,-2.125 6.4844,-2.125 0.80078,0 1.5938,0.07422 2.375,0.21875 0.78125,0.13672 1.5547,0.35156 2.3281,0.64062 z"
       id="path1997" /></symbol><symbol
     id="g-8"
     overflow="visible"><path
       d="m 18.766,-1.125 c -0.96875,0.5 -1.9805,0.875 -3.0312,1.125 -1.043,0.25781 -2.1367,0.39062 -3.2812,0.39062 -3.3984,0 -6.0898,-0.94531 -8.0781,-2.8438 -1.9922,-1.9062 -2.9844,-4.4844 -2.9844,-7.7344 0,-3.2578 0.99219,-5.8359 2.9844,-7.7344 1.9883,-1.9062 4.6797,-2.8594 8.0781,-2.8594 1.1445,0 2.2383,0.13281 3.2812,0.39062 1.0508,0.25 2.0625,0.625 3.0312,1.125 v 4.2188 c -0.98047,-0.65625 -1.9453,-1.1406 -2.8906,-1.4531 -0.94922,-0.3125 -1.9492,-0.46875 -3,-0.46875 -1.875,0 -3.3516,0.60547 -4.4219,1.8125 -1.0742,1.1992 -1.6094,2.8555 -1.6094,4.9688 0,2.1055 0.53516,3.7617 1.6094,4.9688 1.0703,1.1992 2.5469,1.7969 4.4219,1.7969 1.0508,0 2.0508,-0.14844 3,-0.45312 0.94531,-0.3125 1.9102,-0.80078 2.8906,-1.4688 z"
       id="path2171" /></symbol><symbol
     id="a-79"
     overflow="visible"><path
       d="m 13.734,-11.141 c -0.4375,-0.19531 -0.87109,-0.34375 -1.2969,-0.4375 -0.41797,-0.10156 -0.83984,-0.15625 -1.2656,-0.15625 -1.2617,0 -2.2305,0.40625 -2.9062,1.2188 -0.67969,0.80469 -1.0156,1.9531 -1.0156,3.4531 v 7.0625 H 2.3591 v -15.312 h 4.8906 v 2.5156 c 0.625,-1 1.3438,-1.7266 2.1562,-2.1875 0.82031,-0.46875 1.8008,-0.70312 2.9375,-0.70312 0.16406,0 0.34375,0.01172 0.53125,0.03125 0.19531,0.01172 0.47656,0.03906 0.84375,0.07813 z"
       id="path2174" /></symbol><symbol
     id="b-2"
     overflow="visible"><path
       d="m 17.641,-7.7031 v 1.4062 H 6.188 c 0.125,1.1484 0.53906,2.0078 1.25,2.5781 0.70703,0.57422 1.7031,0.85938 2.9844,0.85938 1.0312,0 2.082,-0.14844 3.1562,-0.45312 1.082,-0.3125 2.1914,-0.77344 3.3281,-1.3906 v 3.7656 c -1.1562,0.4375 -2.3125,0.76562 -3.4688,0.98438 -1.1562,0.22656 -2.3125,0.34375 -3.4688,0.34375 -2.7734,0 -4.9297,-0.70312 -6.4688,-2.1094 -1.5312,-1.4062 -2.2969,-3.3789 -2.2969,-5.9219 0,-2.5 0.75391,-4.4609 2.2656,-5.8906 1.5078,-1.4375 3.582,-2.1562 6.2188,-2.1562 2.4062,0 4.332,0.73047 5.7812,2.1875 1.4453,1.4492 2.1719,3.3828 2.1719,5.7969 z m -5.0312,-1.625 c 0,-0.92578 -0.27344,-1.6719 -0.8125,-2.2344 -0.54297,-0.57031 -1.25,-0.85938 -2.125,-0.85938 -0.94922,0 -1.7188,0.26562 -2.3125,0.79688 -0.5937,0.53126 -0.96484,1.2969 -1.1094,2.2969 z"
       id="path2177" /></symbol><symbol
     id="c-0"
     overflow="visible"><path
       d="m 9.2188,-6.8906 c -1.0234,0 -1.793,0.17188 -2.3125,0.51562 -0.51172,0.34375 -0.76562,0.85547 -0.76562,1.5312 0,0.625 0.20703,1.1172 0.625,1.4688 0.41406,0.34375 0.98828,0.51562 1.7188,0.51562 0.92578,0 1.7031,-0.32812 2.3281,-0.98438 0.63281,-0.66406 0.95312,-1.4922 0.95312,-2.4844 v -0.5625 z m 7.4688,-1.8438 V 0 h -4.9219 v -2.2656 c -0.65625,0.92969 -1.3984,1.6055 -2.2188,2.0312 -0.82422,0.41406 -1.8242,0.625 -3,0.625 -1.5859,0 -2.8711,-0.45703 -3.8594,-1.375 -0.99219,-0.92578 -1.4844,-2.1289 -1.4844,-3.6094 0,-1.7891 0.61328,-3.1016 1.8438,-3.9375 1.2383,-0.84375 3.1797,-1.2656 5.8281,-1.2656 h 2.8906 v -0.39062 c 0,-0.76953 -0.30859,-1.332 -0.92188,-1.6875 -0.61719,-0.36328 -1.5703,-0.54688 -2.8594,-0.54688 -1.0547,0 -2.0312,0.10547 -2.9375,0.3125 -0.89844,0.21094 -1.7305,0.52344 -2.5,0.9375 v -3.7344 c 1.0391,-0.25 2.0859,-0.44141 3.1406,-0.57812 1.0625,-0.13281 2.125,-0.20312 3.1875,-0.20312 2.7578,0 4.75,0.54688 5.9688,1.6406 1.2266,1.0859 1.8438,2.8555 1.8438,5.3125 z"
       id="path2180" /></symbol><symbol
     id="e-2"
     overflow="visible"><path
       d="m 7.7031,-19.656 v 4.3438 H 12.75 v 3.5 H 7.7031 v 6.5 c 0,0.71094 0.14062,1.1875 0.42188,1.4375 0.28126,0.25 0.83594,0.375 1.6719,0.375 h 2.5156 v 3.5 h -4.1875 c -1.9375,0 -3.3125,-0.39844 -4.125,-1.2031 -0.80469,-0.8125 -1.2031,-2.1797 -1.2031,-4.1094 v -6.5 h -2.4219 v -3.5 h 2.4219 v -4.3438 z"
       id="path2183" /></symbol><symbol
     id="j-3"
     overflow="visible"><path
       d="m 12.766,-13.078 v -8.2031 h 4.9219 V -1e-4 H 12.766 v -2.2188 c -0.66797,0.90625 -1.4062,1.5703 -2.2188,1.9844 -0.8126,0.4141 -1.7578,0.625 -2.8281,0.625 -1.8867,0 -3.4336,-0.75 -4.6406,-2.25 -1.2109,-1.5 -1.8125,-3.4258 -1.8125,-5.7812 0,-2.3633 0.60156,-4.2969 1.8125,-5.7969 1.207,-1.5 2.7539,-2.25 4.6406,-2.25 1.0625,0 2,0.21484 2.8125,0.64062 0.82031,0.42969 1.5664,1.0859 2.2344,1.9688 z m -3.2188,9.9219 c 1.0391,0 1.8359,-0.37891 2.3906,-1.1406 0.55078,-0.76953 0.82812,-1.8828 0.82812,-3.3438 0,-1.457 -0.27734,-2.5664 -0.82812,-3.3281 -0.55469,-0.76953 -1.3516,-1.1562 -2.3906,-1.1562 -1.043,0 -1.8398,0.38672 -2.3906,1.1562 -0.55469,0.76172 -0.82812,1.8711 -0.82812,3.3281 0,1.4609 0.27344,2.5742 0.82812,3.3438 0.55078,0.76172 1.3477,1.1406 2.3906,1.1406 z"
       id="path2186" /></symbol><symbol
     id="f-7"
     overflow="visible"><path
       d="m 10.5,-3.1562 c 1.0508,0 1.8516,-0.37891 2.4062,-1.1406 0.55078,-0.76953 0.82812,-1.8828 0.82812,-3.3438 0,-1.457 -0.27734,-2.5664 -0.82812,-3.3281 -0.55469,-0.76953 -1.3555,-1.1562 -2.4062,-1.1562 -1.0547,0 -1.8594,0.38672 -2.4219,1.1562 -0.55469,0.77344 -0.82812,1.8828 -0.82812,3.3281 0,1.4492 0.27344,2.5586 0.82812,3.3281 0.5625,0.77344 1.3672,1.1562 2.4219,1.1562 z m -3.25,-9.9219 c 0.67578,-0.88281 1.4219,-1.5391 2.2344,-1.9688 0.82031,-0.42578 1.7656,-0.64062 2.8281,-0.64062 1.8945,0 3.4453,0.75 4.6562,2.25 1.207,1.5 1.8125,3.4336 1.8125,5.7969 0,2.3555 -0.60547,4.2812 -1.8125,5.7812 -1.2109,1.5 -2.7617,2.25 -4.6562,2.25 -1.0625,0 -2.0078,-0.21094 -2.8281,-0.625 C 8.6719,-0.6602 7.9258,-1.32032 7.25,-2.21882 V -2e-5 H 2.3594 v -21.281 H 7.25 Z"
       id="path2189" /></symbol><symbol
     id="i-5"
     overflow="visible"><path
       d="m 0.34375,-15.312 h 4.8906 l 4.125,10.391 3.5,-10.391 h 4.8906 l -6.4375,16.766 c -0.64844,1.6953 -1.4023,2.8828 -2.2656,3.5625 -0.86719,0.6875 -2,1.0312 -3.4062,1.0312 H 2.79685 V 2.8289 h 1.5312 c 0.83203,0 1.4375,-0.13672 1.8125,-0.40625 C 6.52336,2.16093 6.82024,1.69218 7.03117,1.01645 L 7.17179,0.59457 Z"
       id="path2192" /></symbol><symbol
     id="h-9"
     overflow="visible"><path
       d="M 14.953,-3.7188 H 6.7342 L 5.4217,0 H 0.1405 L 7.703,-20.406 h 6.2656 L 21.5311,0 H 16.2499 Z M 8.0468,-7.5 h 5.5781 l -2.7812,-8.125 z"
       id="path2195" /></symbol><symbol
     id="u-2"
     overflow="visible"><path
       d="M 2.3594,-21.281 H 7.25 V 0 H 2.3594 Z"
       id="path2198" /></symbol><symbol
     id="t-2"
     overflow="visible"><path
       d="m 0.42188,-15.312 h 4.8906 l 3.8281,10.578 3.7969,-10.578 h 4.9062 L 11.81248,0 h -5.375 z"
       id="path2201" /></symbol><symbol
     id="d-8"
     overflow="visible"><path
       d="m 9.6406,-12.188 c -1.0859,0 -1.9141,0.39062 -2.4844,1.1719 -0.57422,0.78125 -0.85938,1.9062 -0.85938,3.375 0,1.4688 0.28516,2.5938 0.85938,3.375 0.57031,0.77344 1.3984,1.1562 2.4844,1.1562 1.0625,0 1.875,-0.38281 2.4375,-1.1562 0.57031,-0.78125 0.85938,-1.9062 0.85938,-3.375 0,-1.4688 -0.28906,-2.5938 -0.85938,-3.375 -0.5625,-0.78125 -1.375,-1.1719 -2.4375,-1.1719 z m 0,-3.5 c 2.6328,0 4.6914,0.71484 6.1719,2.1406 1.4766,1.418 2.2188,3.3867 2.2188,5.9062 0,2.5117 -0.74219,4.4805 -2.2188,5.9062 C 14.332,-0.317 12.2734,0.39 9.6406,0.39 6.9922,0.39 4.9258,-0.31703 3.4375,-1.735 1.9453,-3.1608 1.2031,-5.1295 1.2031,-7.6412 c 0,-2.5195 0.74219,-4.4883 2.2344,-5.9062 1.4883,-1.4258 3.5547,-2.1406 6.2031,-2.1406 z"
       id="path2204" /></symbol><symbol
     id="s-9"
     overflow="visible"><path
       d="m 12.422,-21.281 v 3.2188 H 9.7189 c -0.6875,0 -1.1719,0.125 -1.4531,0.375 -0.27344,0.25 -0.40625,0.6875 -0.40625,1.3125 v 1.0625 h 4.1875 v 3.5 H 7.85955 V -2e-4 h -4.8906 v -11.812 h -2.4375 v -3.5 h 2.4375 v -1.0625 c 0,-1.6641 0.46094,-2.8984 1.3906,-3.7031 0.92578,-0.80078 2.3672,-1.2031 4.3281,-1.2031 z"
       id="path2207" /></symbol><symbol
     id="r-7"
     overflow="visible"><path
       d="m 16.547,-12.766 c 0.61328,-0.94531 1.3477,-1.6719 2.2031,-2.1719 0.85156,-0.5 1.7891,-0.75 2.8125,-0.75 1.7578,0 3.0977,0.54688 4.0156,1.6406 0.92578,1.0859 1.3906,2.6562 1.3906,4.7188 V -4e-4 h -4.9219 v -7.9844 -0.35938 c 0.0078,-0.13281 0.01563,-0.32031 0.01563,-0.5625 0,-1.082 -0.16406,-1.8633 -0.48438,-2.3438 -0.3125,-0.48828 -0.82422,-0.73438 -1.5312,-0.73438 -0.92969,0 -1.6484,0.38672 -2.1562,1.1562 -0.51172,0.76172 -0.77344,1.8672 -0.78125,3.3125 v 7.5156 h -4.9219 v -7.9844 c 0,-1.6953 -0.14844,-2.7852 -0.4375,-3.2656 -0.29297,-0.48828 -0.8125,-0.73438 -1.5625,-0.73438 -0.9375,0 -1.6641,0.38672 -2.1719,1.1562 -0.51172,0.76172 -0.76562,1.8594 -0.76562,3.2969 v 7.5312 h -4.9219 v -15.312 h 4.9219 v 2.2344 c 0.60156,-0.86328 1.2891,-1.5156 2.0625,-1.9531 0.78125,-0.4375 1.6406,-0.65625 2.5781,-0.65625 1.0625,0 2,0.25781 2.8125,0.76562 0.8125,0.51172 1.4258,1.2305 1.8438,2.1562 z"
       id="path2210" /></symbol><symbol
     id="q-3"
     overflow="visible"><path
       d="M 17.75,-9.3281 V 0 h -4.9219 v -7.1094 c 0,-1.3438 -0.03125,-2.2656 -0.09375,-2.7656 -0.0625,-0.5 -0.16797,-0.86719 -0.3125,-1.1094 -0.1875,-0.3125 -0.44922,-0.55469 -0.78125,-0.73438 -0.32422,-0.17578 -0.69531,-0.26562 -1.1094,-0.26562 -1.0234,0 -1.8242,0.39844 -2.4062,1.1875 -0.58594,0.78125 -0.875,1.8711 -0.875,3.2656 V -1e-4 H 2.3594 v -21.281 H 7.25 v 8.2031 c 0.73828,-0.88281 1.5195,-1.5391 2.3438,-1.9688 0.83203,-0.42578 1.75,-0.64062 2.75,-0.64062 1.7695,0 3.1133,0.54688 4.0312,1.6406 0.91406,1.0859 1.375,2.6562 1.375,4.7188 z"
       id="path2213" /></symbol><symbol
     id="p-61"
     overflow="visible"><path
       d="m 2.5781,-20.406 h 5.875 l 7.4219,14 v -14 h 4.9844 V 0 h -5.875 L 7.5625,-14 V 0 H 2.5781 Z"
       id="path2216" /></symbol><symbol
     id="o-29"
     overflow="visible"><path
       d="m 2.1875,-5.9688 v -9.3438 h 4.9219 v 1.5312 c 0,0.83594 -0.00781,1.875 -0.015625,3.125 -0.011719,1.25 -0.015625,2.0859 -0.015625,2.5 0,1.2422 0.03125,2.1328 0.09375,2.6719 0.070313,0.54297 0.17969,0.93359 0.32812,1.1719 0.20703,0.32422 0.47266,0.57422 0.79688,0.75 0.32031,0.16797 0.69141,0.25 1.1094,0.25 1.0195,0 1.8203,-0.39062 2.4062,-1.1719 0.58203,-0.78125 0.875,-1.8672 0.875,-3.2656 v -7.5625 h 4.8906 V -6e-4 H 12.6875 V -2.2194 C 11.94531,-1.32096 11.1641,-0.6608 10.3437,-0.235 9.51948,0.17906 8.6093,0.39 7.6093,0.39 5.8476,0.39 4.5038,-0.14906 3.5781,-1.235 2.64841,-2.317 2.1875,-3.8952 2.1875,-5.9694 Z"
       id="path2219" /></symbol><symbol
     id="n-3"
     overflow="visible"><path
       d="M 17.75,-9.3281 V 0 h -4.9219 v -7.1406 c 0,-1.3203 -0.03125,-2.2344 -0.09375,-2.7344 -0.0625,-0.5 -0.16797,-0.86719 -0.3125,-1.1094 -0.1875,-0.3125 -0.44922,-0.55469 -0.78125,-0.73438 -0.32422,-0.17578 -0.69531,-0.26562 -1.1094,-0.26562 -1.0234,0 -1.8242,0.39844 -2.4062,1.1875 -0.58594,0.78125 -0.875,1.8711 -0.875,3.2656 V -1e-4 H 2.3594 v -15.312 H 7.25 v 2.2344 c 0.73828,-0.88281 1.5195,-1.5391 2.3438,-1.9688 0.83203,-0.42578 1.75,-0.64062 2.75,-0.64062 1.7695,0 3.1133,0.54688 4.0312,1.6406 0.91406,1.0859 1.375,2.6562 1.375,4.7188 z"
       id="path2222" /></symbol><symbol
     id="m-19"
     overflow="visible"><path
       d="m 2.5781,-20.406 h 8.7344 c 2.5938,0 4.582,0.57812 5.9688,1.7344 1.3945,1.1484 2.0938,2.7891 2.0938,4.9219 0,2.1367 -0.69922,3.7812 -2.0938,4.9375 -1.3867,1.1562 -3.375,1.7344 -5.9688,1.7344 H 7.8281 V 3e-4 h -5.25 z m 5.25,3.8125 v 5.7031 H 10.75 c 1.0195,0 1.8047,-0.25 2.3594,-0.75 0.5625,-0.5 0.84375,-1.2031 0.84375,-2.1094 0,-0.91406 -0.28125,-1.6172 -0.84375,-2.1094 -0.55469,-0.48828 -1.3398,-0.73438 -2.3594,-0.73438 z"
       id="path2225" /></symbol><symbol
     id="l-4"
     overflow="visible"><path
       d="M 2.3594,-15.312 H 7.25 v 15.031 c 0,2.0508 -0.49609,3.6172 -1.4844,4.7031 -0.98047,1.082 -2.4062,1.625 -4.2812,1.625 H -0.9375 V 2.8283 h 0.85938 c 0.92578,0 1.5625,-0.21094 1.9062,-0.625 0.35156,-0.41797 0.53125,-1.2461 0.53125,-2.4844 z m 0,-5.9688 H 7.25 v 4 H 2.3594 Z"
       id="path2228" /></symbol><symbol
     id="k-7"
     overflow="visible"><path
       d="m 14.719,-14.828 v 3.9844 c -0.65625,-0.45703 -1.3242,-0.79688 -2,-1.0156 -0.66797,-0.21875 -1.3594,-0.32812 -2.0781,-0.32812 -1.3672,0 -2.4336,0.40234 -3.2031,1.2031 -0.76172,0.79297 -1.1406,1.9062 -1.1406,3.3438 0,1.4297 0.37891,2.543 1.1406,3.3438 0.76953,0.79297 1.8359,1.1875 3.2031,1.1875 0.75781,0 1.4844,-0.10938 2.1719,-0.32812 0.6875,-0.22656 1.3203,-0.56641 1.9062,-1.0156 v 4 c -0.76172,0.28125 -1.5391,0.48828 -2.3281,0.625 -0.78125,0.14453 -1.5742,0.21875 -2.375,0.21875 -2.7617,0 -4.9219,-0.70703 -6.4844,-2.125 -1.5547,-1.4141 -2.3281,-3.3828 -2.3281,-5.9062 0,-2.5312 0.77344,-4.5039 2.3281,-5.9219 1.5625,-1.4141 3.7227,-2.125 6.4844,-2.125 0.80078,0 1.5938,0.07422 2.375,0.21875 0.78125,0.13672 1.5547,0.35156 2.3281,0.64062 z"
       id="path2231" /></symbol><symbol
     id="v"
     overflow="visible"><path
       d="m 18.766,-1.125 c -0.96875,0.5 -1.9805,0.875 -3.0312,1.125 -1.043,0.25781 -2.1367,0.39062 -3.2812,0.39062 -3.3984,0 -6.0898,-0.94531 -8.0781,-2.8438 -1.9922,-1.9062 -2.9844,-4.4844 -2.9844,-7.7344 0,-3.2578 0.99219,-5.8359 2.9844,-7.7344 1.9883,-1.9062 4.6797,-2.8594 8.0781,-2.8594 1.1445,0 2.2383,0.13281 3.2812,0.39062 1.0508,0.25 2.0625,0.625 3.0312,1.125 v 4.2188 c -0.98047,-0.65625 -1.9453,-1.1406 -2.8906,-1.4531 -0.94922,-0.3125 -1.9492,-0.46875 -3,-0.46875 -1.875,0 -3.3516,0.60547 -4.4219,1.8125 -1.0742,1.1992 -1.6094,2.8555 -1.6094,4.9688 0,2.1055 0.53516,3.7617 1.6094,4.9688 1.0703,1.1992 2.5469,1.7969 4.4219,1.7969 1.0508,0 2.0508,-0.14844 3,-0.45312 0.94531,-0.3125 1.9102,-0.80078 2.8906,-1.4688 z"
       id="path2408" /></symbol><symbol
     id="e-8"
     overflow="visible"><path
       d="m 13.734,-11.141 c -0.4375,-0.19531 -0.87109,-0.34375 -1.2969,-0.4375 -0.41797,-0.10156 -0.83984,-0.15625 -1.2656,-0.15625 -1.2617,0 -2.2305,0.40625 -2.9062,1.2188 -0.67969,0.80469 -1.0156,1.9531 -1.0156,3.4531 v 7.0625 H 2.3591 v -15.312 h 4.8906 v 2.5156 c 0.625,-1 1.3438,-1.7266 2.1562,-2.1875 0.82031,-0.46875 1.8008,-0.70312 2.9375,-0.70312 0.16406,0 0.34375,0.01172 0.53125,0.03125 0.19531,0.01172 0.47656,0.03906 0.84375,0.07813 z"
       id="path2411" /></symbol><symbol
     id="a-4"
     overflow="visible"><path
       d="m 17.641,-7.7031 v 1.4062 H 6.188 c 0.125,1.1484 0.53906,2.0078 1.25,2.5781 0.70703,0.57422 1.7031,0.85938 2.9844,0.85938 1.0312,0 2.082,-0.14844 3.1562,-0.45312 1.082,-0.3125 2.1914,-0.77344 3.3281,-1.3906 v 3.7656 c -1.1562,0.4375 -2.3125,0.76562 -3.4688,0.98438 -1.1562,0.22656 -2.3125,0.34375 -3.4688,0.34375 -2.7734,0 -4.9297,-0.70312 -6.4688,-2.1094 -1.5312,-1.4062 -2.2969,-3.3789 -2.2969,-5.9219 0,-2.5 0.75391,-4.4609 2.2656,-5.8906 1.5078,-1.4375 3.582,-2.1562 6.2188,-2.1562 2.4062,0 4.332,0.73047 5.7812,2.1875 1.4453,1.4492 2.1719,3.3828 2.1719,5.7969 z m -5.0312,-1.625 c 0,-0.92578 -0.27344,-1.6719 -0.8125,-2.2344 -0.54297,-0.57031 -1.25,-0.85938 -2.125,-0.85938 -0.94922,0 -1.7188,0.26562 -2.3125,0.79688 -0.5937,0.53126 -0.96484,1.2969 -1.1094,2.2969 z"
       id="path2414" /></symbol><symbol
     id="d-5"
     overflow="visible"><path
       d="m 9.2188,-6.8906 c -1.0234,0 -1.793,0.17188 -2.3125,0.51562 -0.51172,0.34375 -0.76562,0.85547 -0.76562,1.5312 0,0.625 0.20703,1.1172 0.625,1.4688 0.41406,0.34375 0.98828,0.51562 1.7188,0.51562 0.92578,0 1.7031,-0.32812 2.3281,-0.98438 0.63281,-0.66406 0.95312,-1.4922 0.95312,-2.4844 v -0.5625 z m 7.4688,-1.8438 V 0 h -4.9219 v -2.2656 c -0.65625,0.92969 -1.3984,1.6055 -2.2188,2.0312 -0.82422,0.41406 -1.8242,0.625 -3,0.625 -1.5859,0 -2.8711,-0.45703 -3.8594,-1.375 -0.99219,-0.92578 -1.4844,-2.1289 -1.4844,-3.6094 0,-1.7891 0.61328,-3.1016 1.8438,-3.9375 1.2383,-0.84375 3.1797,-1.2656 5.8281,-1.2656 h 2.8906 v -0.39062 c 0,-0.76953 -0.30859,-1.332 -0.92188,-1.6875 -0.61719,-0.36328 -1.5703,-0.54688 -2.8594,-0.54688 -1.0547,0 -2.0312,0.10547 -2.9375,0.3125 -0.89844,0.21094 -1.7305,0.52344 -2.5,0.9375 v -3.7344 c 1.0391,-0.25 2.0859,-0.44141 3.1406,-0.57812 1.0625,-0.13281 2.125,-0.20312 3.1875,-0.20312 2.7578,0 4.75,0.54688 5.9688,1.6406 1.2266,1.0859 1.8438,2.8555 1.8438,5.3125 z"
       id="path2417" /></symbol><symbol
     id="c-03"
     overflow="visible"><path
       d="m 7.7031,-19.656 v 4.3438 H 12.75 v 3.5 H 7.7031 v 6.5 c 0,0.71094 0.14062,1.1875 0.42188,1.4375 0.28126,0.25 0.83594,0.375 1.6719,0.375 h 2.5156 v 3.5 h -4.1875 c -1.9375,0 -3.3125,-0.39844 -4.125,-1.2031 -0.80469,-0.8125 -1.2031,-2.1797 -1.2031,-4.1094 v -6.5 h -2.4219 v -3.5 h 2.4219 v -4.3438 z"
       id="path2420" /></symbol><symbol
     id="l-6"
     overflow="visible"><path
       d="m 12.766,-13.078 v -8.2031 h 4.9219 V -1e-4 H 12.766 v -2.2188 c -0.66797,0.90625 -1.4062,1.5703 -2.2188,1.9844 -0.8126,0.4141 -1.7578,0.625 -2.8281,0.625 -1.8867,0 -3.4336,-0.75 -4.6406,-2.25 -1.2109,-1.5 -1.8125,-3.4258 -1.8125,-5.7812 0,-2.3633 0.60156,-4.2969 1.8125,-5.7969 1.207,-1.5 2.7539,-2.25 4.6406,-2.25 1.0625,0 2,0.21484 2.8125,0.64062 0.82031,0.42969 1.5664,1.0859 2.2344,1.9688 z m -3.2188,9.9219 c 1.0391,0 1.8359,-0.37891 2.3906,-1.1406 0.55078,-0.76953 0.82812,-1.8828 0.82812,-3.3438 0,-1.457 -0.27734,-2.5664 -0.82812,-3.3281 -0.55469,-0.76953 -1.3516,-1.1562 -2.3906,-1.1562 -1.043,0 -1.8398,0.38672 -2.3906,1.1562 -0.55469,0.76172 -0.82812,1.8711 -0.82812,3.3281 0,1.4609 0.27344,2.5742 0.82812,3.3438 0.55078,0.76172 1.3477,1.1406 2.3906,1.1406 z"
       id="path2423" /></symbol><symbol
     id="k-1"
     overflow="visible"><path
       d="m 10.5,-3.1562 c 1.0508,0 1.8516,-0.37891 2.4062,-1.1406 0.55078,-0.76953 0.82812,-1.8828 0.82812,-3.3438 0,-1.457 -0.27734,-2.5664 -0.82812,-3.3281 -0.55469,-0.76953 -1.3555,-1.1562 -2.4062,-1.1562 -1.0547,0 -1.8594,0.38672 -2.4219,1.1562 -0.55469,0.77344 -0.82812,1.8828 -0.82812,3.3281 0,1.4492 0.27344,2.5586 0.82812,3.3281 0.5625,0.77344 1.3672,1.1562 2.4219,1.1562 z m -3.25,-9.9219 c 0.67578,-0.88281 1.4219,-1.5391 2.2344,-1.9688 0.82031,-0.42578 1.7656,-0.64062 2.8281,-0.64062 1.8945,0 3.4453,0.75 4.6562,2.25 1.207,1.5 1.8125,3.4336 1.8125,5.7969 0,2.3555 -0.60547,4.2812 -1.8125,5.7812 -1.2109,1.5 -2.7617,2.25 -4.6562,2.25 -1.0625,0 -2.0078,-0.21094 -2.8281,-0.625 C 8.6719,-0.6602 7.9258,-1.32032 7.25,-2.21882 V -2e-5 H 2.3594 v -21.281 H 7.25 Z"
       id="path2426" /></symbol><symbol
     id="j-0"
     overflow="visible"><path
       d="m 0.34375,-15.312 h 4.8906 l 4.125,10.391 3.5,-10.391 h 4.8906 l -6.4375,16.766 c -0.64844,1.6953 -1.4023,2.8828 -2.2656,3.5625 -0.86719,0.6875 -2,1.0312 -3.4062,1.0312 H 2.79685 V 2.8289 h 1.5312 c 0.83203,0 1.4375,-0.13672 1.8125,-0.40625 C 6.52336,2.16093 6.82024,1.69218 7.03117,1.01645 L 7.17179,0.59457 Z"
       id="path2429" /></symbol><symbol
     id="i-6"
     overflow="visible"><path
       d="m 0.14062,-20.406 h 18.812 v 3.9688 h -6.7656 V 8e-4 h -5.2656 v -16.438 h -6.7812 z"
       id="path2432" /></symbol><symbol
     id="h-32"
     overflow="visible"><path
       d="M 17.75,-9.3281 V 0 h -4.9219 v -7.1094 c 0,-1.3438 -0.03125,-2.2656 -0.09375,-2.7656 -0.0625,-0.5 -0.16797,-0.86719 -0.3125,-1.1094 -0.1875,-0.3125 -0.44922,-0.55469 -0.78125,-0.73438 -0.32422,-0.17578 -0.69531,-0.26562 -1.1094,-0.26562 -1.0234,0 -1.8242,0.39844 -2.4062,1.1875 -0.58594,0.78125 -0.875,1.8711 -0.875,3.2656 V -1e-4 H 2.3594 v -21.281 H 7.25 v 8.2031 c 0.73828,-0.88281 1.5195,-1.5391 2.3438,-1.9688 0.83203,-0.42578 1.75,-0.64062 2.75,-0.64062 1.7695,0 3.1133,0.54688 4.0312,1.6406 0.91406,1.0859 1.375,2.6562 1.375,4.7188 z"
       id="path2435" /></symbol><symbol
     id="b-0"
     overflow="visible"><path
       d="m 9.6406,-12.188 c -1.0859,0 -1.9141,0.39062 -2.4844,1.1719 -0.57422,0.78125 -0.85938,1.9062 -0.85938,3.375 0,1.4688 0.28516,2.5938 0.85938,3.375 0.57031,0.77344 1.3984,1.1562 2.4844,1.1562 1.0625,0 1.875,-0.38281 2.4375,-1.1562 0.57031,-0.78125 0.85938,-1.9062 0.85938,-3.375 0,-1.4688 -0.28906,-2.5938 -0.85938,-3.375 -0.5625,-0.78125 -1.375,-1.1719 -2.4375,-1.1719 z m 0,-3.5 c 2.6328,0 4.6914,0.71484 6.1719,2.1406 1.4766,1.418 2.2188,3.3867 2.2188,5.9062 0,2.5117 -0.74219,4.4805 -2.2188,5.9062 C 14.332,-0.317 12.2734,0.39 9.6406,0.39 6.9922,0.39 4.9258,-0.31703 3.4375,-1.735 1.9453,-3.1608 1.2031,-5.1295 1.2031,-7.6412 c 0,-2.5195 0.74219,-4.4883 2.2344,-5.9062 1.4883,-1.4258 3.5547,-2.1406 6.2031,-2.1406 z"
       id="path2438" /></symbol><symbol
     id="g-6"
     overflow="visible"><path
       d="m 16.547,-12.766 c 0.61328,-0.94531 1.3477,-1.6719 2.2031,-2.1719 0.85156,-0.5 1.7891,-0.75 2.8125,-0.75 1.7578,0 3.0977,0.54688 4.0156,1.6406 0.92578,1.0859 1.3906,2.6562 1.3906,4.7188 V -4e-4 h -4.9219 v -7.9844 -0.35938 c 0.0078,-0.13281 0.01563,-0.32031 0.01563,-0.5625 0,-1.082 -0.16406,-1.8633 -0.48438,-2.3438 -0.3125,-0.48828 -0.82422,-0.73438 -1.5312,-0.73438 -0.92969,0 -1.6484,0.38672 -2.1562,1.1562 -0.51172,0.76172 -0.77344,1.8672 -0.78125,3.3125 v 7.5156 h -4.9219 v -7.9844 c 0,-1.6953 -0.14844,-2.7852 -0.4375,-3.2656 -0.29297,-0.48828 -0.8125,-0.73438 -1.5625,-0.73438 -0.9375,0 -1.6641,0.38672 -2.1719,1.1562 -0.51172,0.76172 -0.76562,1.8594 -0.76562,3.2969 v 7.5312 h -4.9219 v -15.312 h 4.9219 v 2.2344 c 0.60156,-0.86328 1.2891,-1.5156 2.0625,-1.9531 0.78125,-0.4375 1.6406,-0.65625 2.5781,-0.65625 1.0625,0 2,0.25781 2.8125,0.76562 0.8125,0.51172 1.4258,1.2305 1.8438,2.1562 z"
       id="path2441" /></symbol><symbol
     id="f-1"
     overflow="visible"><path
       d="m 14.312,-14.828 v 3.7188 c -1.043,-0.4375 -2.0547,-0.76562 -3.0312,-0.98438 -0.98047,-0.21875 -1.9023,-0.32812 -2.7656,-0.32812 -0.92969,0 -1.6211,0.11719 -2.0781,0.34375 -0.44922,0.23047 -0.67188,0.58984 -0.67188,1.0781 0,0.38672 0.17188,0.68359 0.51562,0.89062 0.34375,0.21094 0.95703,0.36719 1.8438,0.46875 l 0.85938,0.125 c 2.5078,0.32422 4.1953,0.85156 5.0625,1.5781 0.86328,0.73047 1.2969,1.8711 1.2969,3.4219 0,1.6367 -0.60547,2.8672 -1.8125,3.6875 -1.1992,0.8125 -2.9922,1.2188 -5.375,1.2188 -1.0234,0 -2.0742,-0.078125 -3.1562,-0.23438 -1.0742,-0.15625 -2.1797,-0.39453 -3.3125,-0.71875 v -3.7188 c 0.96875,0.48047 1.9609,0.83984 2.9844,1.0781 1.0312,0.23047 2.0781,0.34375 3.1406,0.34375 0.95703,0 1.6758,-0.12891 2.1562,-0.39062 0.47656,-0.26953 0.71875,-0.66406 0.71875,-1.1875 0,-0.4375 -0.16797,-0.75781 -0.5,-0.96875 -0.33594,-0.21875 -0.99609,-0.38281 -1.9844,-0.5 L 7.34339,-6.01551 c -2.1797,-0.26953 -3.7031,-0.77344 -4.5781,-1.5156 -0.875,-0.73828 -1.3125,-1.8594 -1.3125,-3.3594 0,-1.625 0.55078,-2.8281 1.6562,-3.6094 1.1133,-0.78906 2.8203,-1.1875 5.125,-1.1875 0.89453,0 1.8359,0.07422 2.8281,0.21875 1,0.13672 2.082,0.35156 3.25,0.64062 z"
       id="path2444" /></symbol><symbol
     id="u-5"
     overflow="visible"><path
       d="m 2.5781,-20.406 h 5.25 v 16.422 h 9.25 V 4e-4 h -14.5 z"
       id="path2447" /></symbol><symbol
     id="t-5"
     overflow="visible"><path
       d="m 10.75,-12.516 c 0.82031,0 1.4453,-0.17969 1.875,-0.54688 0.4375,-0.36328 0.65625,-0.89844 0.65625,-1.6094 0,-0.69531 -0.21875,-1.2266 -0.65625,-1.5938 -0.42969,-0.375 -1.0547,-0.5625 -1.875,-0.5625 H 7.8281 v 4.3125 z m 0.17188,8.9375 c 1.0625,0 1.8594,-0.22266 2.3906,-0.67188 0.53125,-0.44531 0.79688,-1.125 0.79688,-2.0312 0,-0.88281 -0.26562,-1.5469 -0.79688,-1.9844 -0.52344,-0.4375 -1.3203,-0.65625 -2.3906,-0.65625 h -3.0938 v 5.3438 z m 4.8906,-7.3438 c 1.1328,0.32422 2.0078,0.92969 2.625,1.8125 0.625,0.88672 0.9375,1.9688 0.9375,3.25 0,1.9688 -0.66797,3.4375 -2,4.4062 -1.3359,0.96875 -3.3555,1.4531 -6.0625,1.4531 h -8.7344 v -20.406 h 7.8906 c 2.832,0 4.8828,0.42969 6.1562,1.2812 1.2812,0.85547 1.9219,2.2266 1.9219,4.1094 0,1 -0.23438,1.8516 -0.70312,2.5469 -0.46875,0.6875 -1.1484,1.2031 -2.0312,1.5469 z"
       id="path2450" /></symbol><symbol
     id="s-4"
     overflow="visible"><path
       d="m 12.422,-21.281 v 3.2188 H 9.7189 c -0.6875,0 -1.1719,0.125 -1.4531,0.375 -0.27344,0.25 -0.40625,0.6875 -0.40625,1.3125 v 1.0625 h 4.1875 v 3.5 H 7.85955 V -2e-4 h -4.8906 v -11.812 h -2.4375 v -3.5 h 2.4375 v -1.0625 c 0,-1.6641 0.46094,-2.8984 1.3906,-3.7031 0.92578,-0.80078 2.3672,-1.2031 4.3281,-1.2031 z"
       id="path2453" /></symbol><symbol
     id="r-76"
     overflow="visible"><path
       d="m 2.5781,-20.406 h 5.875 l 7.4219,14 v -14 h 4.9844 V 0 h -5.875 L 7.5625,-14 V 0 H 2.5781 Z"
       id="path2456" /></symbol><symbol
     id="q-5"
     overflow="visible"><path
       d="m 2.1875,-5.9688 v -9.3438 h 4.9219 v 1.5312 c 0,0.83594 -0.00781,1.875 -0.015625,3.125 -0.011719,1.25 -0.015625,2.0859 -0.015625,2.5 0,1.2422 0.03125,2.1328 0.09375,2.6719 0.070313,0.54297 0.17969,0.93359 0.32812,1.1719 0.20703,0.32422 0.47266,0.57422 0.79688,0.75 0.32031,0.16797 0.69141,0.25 1.1094,0.25 1.0195,0 1.8203,-0.39062 2.4062,-1.1719 0.58203,-0.78125 0.875,-1.8672 0.875,-3.2656 v -7.5625 h 4.8906 V -6e-4 H 12.6875 V -2.2194 C 11.94531,-1.32096 11.1641,-0.6608 10.3437,-0.235 9.51948,0.17906 8.6093,0.39 7.6093,0.39 5.8476,0.39 4.5038,-0.14906 3.5781,-1.235 2.64841,-2.317 2.1875,-3.8952 2.1875,-5.9694 Z"
       id="path2459" /></symbol><symbol
     id="p-69"
     overflow="visible"><path
       d="M 17.75,-9.3281 V 0 h -4.9219 v -7.1406 c 0,-1.3203 -0.03125,-2.2344 -0.09375,-2.7344 -0.0625,-0.5 -0.16797,-0.86719 -0.3125,-1.1094 -0.1875,-0.3125 -0.44922,-0.55469 -0.78125,-0.73438 -0.32422,-0.17578 -0.69531,-0.26562 -1.1094,-0.26562 -1.0234,0 -1.8242,0.39844 -2.4062,1.1875 -0.58594,0.78125 -0.875,1.8711 -0.875,3.2656 V -1e-4 H 2.3594 v -15.312 H 7.25 v 2.2344 c 0.73828,-0.88281 1.5195,-1.5391 2.3438,-1.9688 0.83203,-0.42578 1.75,-0.64062 2.75,-0.64062 1.7695,0 3.1133,0.54688 4.0312,1.6406 0.91406,1.0859 1.375,2.6562 1.375,4.7188 z"
       id="path2462" /></symbol><symbol
     id="o-3"
     overflow="visible"><path
       d="m 2.5781,-20.406 h 8.7344 c 2.5938,0 4.582,0.57812 5.9688,1.7344 1.3945,1.1484 2.0938,2.7891 2.0938,4.9219 0,2.1367 -0.69922,3.7812 -2.0938,4.9375 -1.3867,1.1562 -3.375,1.7344 -5.9688,1.7344 H 7.8281 V 3e-4 h -5.25 z m 5.25,3.8125 v 5.7031 H 10.75 c 1.0195,0 1.8047,-0.25 2.3594,-0.75 0.5625,-0.5 0.84375,-1.2031 0.84375,-2.1094 0,-0.91406 -0.28125,-1.6172 -0.84375,-2.1094 -0.55469,-0.48828 -1.3398,-0.73438 -2.3594,-0.73438 z"
       id="path2465" /></symbol><symbol
     id="n-7"
     overflow="visible"><path
       d="M 2.3594,-15.312 H 7.25 v 15.031 c 0,2.0508 -0.49609,3.6172 -1.4844,4.7031 -0.98047,1.082 -2.4062,1.625 -4.2812,1.625 H -0.9375 V 2.8283 h 0.85938 c 0.92578,0 1.5625,-0.21094 1.9062,-0.625 0.35156,-0.41797 0.53125,-1.2461 0.53125,-2.4844 z m 0,-5.9688 H 7.25 v 4 H 2.3594 Z"
       id="path2468" /></symbol><symbol
     id="m-4"
     overflow="visible"><path
       d="m 14.719,-14.828 v 3.9844 c -0.65625,-0.45703 -1.3242,-0.79688 -2,-1.0156 -0.66797,-0.21875 -1.3594,-0.32812 -2.0781,-0.32812 -1.3672,0 -2.4336,0.40234 -3.2031,1.2031 -0.76172,0.79297 -1.1406,1.9062 -1.1406,3.3438 0,1.4297 0.37891,2.543 1.1406,3.3438 0.76953,0.79297 1.8359,1.1875 3.2031,1.1875 0.75781,0 1.4844,-0.10938 2.1719,-0.32812 0.6875,-0.22656 1.3203,-0.56641 1.9062,-1.0156 v 4 c -0.76172,0.28125 -1.5391,0.48828 -2.3281,0.625 -0.78125,0.14453 -1.5742,0.21875 -2.375,0.21875 -2.7617,0 -4.9219,-0.70703 -6.4844,-2.125 -1.5547,-1.4141 -2.3281,-3.3828 -2.3281,-5.9062 0,-2.5312 0.77344,-4.5039 2.3281,-5.9219 1.5625,-1.4141 3.7227,-2.125 6.4844,-2.125 0.80078,0 1.5938,0.07422 2.375,0.21875 0.78125,0.13672 1.5547,0.35156 2.3281,0.64062 z"
       id="path2471" /></symbol><symbol
     id="u-52"
     overflow="visible"><path
       d="m 14.656,-0.875 c -0.76172,0.39844 -1.5547,0.69531 -2.375,0.89062 -0.8125,0.19531 -1.6641,0.29688 -2.5469,0.29688 -2.6562,0 -4.7617,-0.73828 -6.3125,-2.2188 -1.5547,-1.4883 -2.3281,-3.5039 -2.3281,-6.0469 0,-2.5508 0.77344,-4.5664 2.3281,-6.0469 1.5508,-1.4883 3.6562,-2.2344 6.3125,-2.2344 0.88281,0 1.7344,0.10156 2.5469,0.29688 0.82031,0.19922 1.6133,0.49609 2.375,0.89062 v 3.2969 c -0.76172,-0.51953 -1.5117,-0.89844 -2.25,-1.1406 -0.74219,-0.23828 -1.5234,-0.35938 -2.3438,-0.35938 -1.4688,0 -2.625,0.46875 -3.4688,1.4062 -0.83594,0.9375 -1.25,2.2344 -1.25,3.8906 0,1.6484 0.41406,2.9375 1.25,3.875 0.84375,0.9375 2,1.4062 3.4688,1.4062 0.82031,0 1.6016,-0.11719 2.3438,-0.35938 0.73828,-0.23828 1.4883,-0.61719 2.25,-1.1406 z"
       id="path2686" /></symbol><symbol
     id="c-5"
     overflow="visible"><path
       d="m 10.719,-8.7031 c -0.33594,-0.15625 -0.66797,-0.26953 -1,-0.34375 -0.32422,-0.082031 -0.65625,-0.125 -1,-0.125 -0.98047,0 -1.7344,0.32031 -2.2656,0.95312 -0.53125,0.625 -0.79688,1.5273 -0.79688,2.7031 V -3e-5 h -3.8125 v -11.969 h 3.8125 v 1.9688 c 0.48828,-0.78125 1.0508,-1.3477 1.6875,-1.7031 0.64453,-0.36328 1.4102,-0.54688 2.2969,-0.54688 0.13281,0 0.27344,0.0078 0.42188,0.01563 0.14453,0.01172 0.36328,0.03125 0.65625,0.0625 z"
       id="path2689" /></symbol><symbol
     id="b-4"
     overflow="visible"><path
       d="m 13.781,-6.0156 v 1.0938 H 4.8435 c 0.09375,0.89844 0.41406,1.5703 0.96875,2.0156 0.55078,0.44922 1.3281,0.67188 2.3281,0.67188 0.80078,0 1.625,-0.11719 2.4688,-0.35938 0.84375,-0.23828 1.7109,-0.59766 2.6094,-1.0781 v 2.9531 c -0.90625,0.33594 -1.8125,0.58984 -2.7188,0.76562 -0.9063,0.17578 -1.8125,0.26562 -2.7188,0.26562 -2.1562,0 -3.8398,-0.54688 -5.0469,-1.6406 -1.1992,-1.1016 -1.7969,-2.6484 -1.7969,-4.6406 0,-1.9453 0.58594,-3.4766 1.7656,-4.5938 1.1758,-1.125 2.8008,-1.6875 4.875,-1.6875 1.875,0 3.375,0.57031 4.5,1.7031 1.1328,1.125 1.7031,2.6367 1.7031,4.5312 z M 9.8435,-7.2812 c 0,-0.72656 -0.21484,-1.3125 -0.64062,-1.75 -0.41797,-0.44531 -0.96875,-0.67188 -1.6562,-0.67188 -0.74219,0 -1.3438,0.21094 -1.8125,0.625 -0.46094,0.41797 -0.74609,1.0156 -0.85938,1.7969 z"
       id="path2692" /></symbol><symbol
     id="a-74"
     overflow="visible"><path
       d="m 7.2031,-5.3906 c -0.80469,0 -1.4062,0.13672 -1.8125,0.40625 -0.39844,0.27344 -0.59375,0.67188 -0.59375,1.2031 0,0.48047 0.16016,0.85938 0.48438,1.1406 0.32031,0.27344 0.77344,0.40625 1.3594,0.40625 0.71875,0 1.3203,-0.25391 1.8125,-0.76562 0.48828,-0.51953 0.73438,-1.1719 0.73438,-1.9531 v -0.4375 z m 5.8438,-1.4375 V 0 H 9.1875 v -1.7656 c -0.51172,0.71875 -1.0898,1.2461 -1.7344,1.5781 -0.63672,0.33203 -1.418,0.5 -2.3438,0.5 -1.2422,0 -2.2461,-0.35938 -3.0156,-1.0781 -0.77344,-0.72656 -1.1562,-1.6719 -1.1562,-2.8281 0,-1.3945 0.47656,-2.4219 1.4375,-3.0781 0.96875,-0.65625 2.4883,-0.98438 4.5625,-0.98438 h 2.25 v -0.29688 c 0,-0.60156 -0.24219,-1.0469 -0.71875,-1.3281 -0.48047,-0.28125 -1.2266,-0.42188 -2.2344,-0.42188 -0.8125,0 -1.5742,0.085937 -2.2812,0.25 -0.71094,0.15625 -1.3672,0.40234 -1.9688,0.73438 v -2.9219 c 0.82031,-0.19531 1.6445,-0.34766 2.4688,-0.45312 0.82031,-0.10156 1.6484,-0.15625 2.4844,-0.15625 2.1562,0 3.7109,0.42969 4.6719,1.2812 0.95703,0.84375 1.4375,2.2266 1.4375,4.1406 z"
       id="path2695" /></symbol><symbol
     id="d-4"
     overflow="visible"><path
       d="m 6.0156,-15.359 v 3.3906 H 9.9531 V -9.234 H 6.0156 v 5.0781 c 0,0.55469 0.10938,0.92969 0.32812,1.125 0.21875,0.19922 0.65625,0.29688 1.3125,0.29688 h 1.9688 v 2.7344 h -3.2812 c -1.5117,0 -2.5859,-0.3125 -3.2188,-0.9375 -0.625,-0.63281 -0.9375,-1.707 -0.9375,-3.2188 v -5.0781 h -1.9062 v -2.7344 h 1.9062 v -3.3906 z"
       id="path2698" /></symbol><symbol
     id="f-3"
     overflow="visible"><path
       d="m 9.9688,-10.219 v -6.4062 h 3.8594 V -2e-4 H 9.9688 V -1.7346 C 9.44536,-1.02366 8.8672,-0.5041 8.2344,-0.1721 7.59768,0.14821 6.8633,0.31228 6.0313,0.31228 c -1.4688,0 -2.6797,-0.58203 -3.625,-1.75 -0.94922,-1.1758 -1.4219,-2.6875 -1.4219,-4.5312 0,-1.8437 0.47266,-3.3477 1.4219,-4.5156 0.94531,-1.1758 2.1562,-1.7656 3.625,-1.7656 0.83203,0 1.5664,0.16797 2.2031,0.5 0.63281,0.32422 1.2109,0.83594 1.7344,1.5312 z m -2.5156,7.75 c 0.82031,0 1.4453,-0.29688 1.875,-0.89062 0.42578,-0.60156 0.64062,-1.4727 0.64062,-2.6094 0,-1.1445 -0.21484,-2.0156 -0.64062,-2.6094 -0.42969,-0.59375 -1.0547,-0.89062 -1.875,-0.89062 -0.8125,0 -1.4336,0.29688 -1.8594,0.89062 -0.42969,0.59375 -0.64062,1.4648 -0.64062,2.6094 0,1.1367 0.21094,2.0078 0.64062,2.6094 0.42578,0.59375 1.0469,0.89062 1.8594,0.89062 z"
       id="path2701" /></symbol><symbol
     id="l-0"
     overflow="visible"><path
       d="m 8.2031,-2.4688 c 0.82031,0 1.4453,-0.29688 1.875,-0.89062 0.42578,-0.60156 0.64062,-1.4727 0.64062,-2.6094 0,-1.1445 -0.21484,-2.0156 -0.64062,-2.6094 -0.42969,-0.59375 -1.0547,-0.89062 -1.875,-0.89062 -0.82422,0 -1.4531,0.30469 -1.8906,0.90625 -0.4375,0.59375 -0.65625,1.4609 -0.65625,2.5938 0,1.1367 0.21875,2.0078 0.65625,2.6094 0.4375,0.59375 1.0664,0.89062 1.8906,0.89062 z m -2.5469,-7.75 c 0.53125,-0.69531 1.1133,-1.207 1.75,-1.5312 0.64453,-0.33203 1.3828,-0.5 2.2188,-0.5 1.4688,0 2.6758,0.58984 3.625,1.7656 0.94531,1.168 1.4219,2.6719 1.4219,4.5156 0,1.8437 -0.47656,3.3555 -1.4219,4.5312 -0.94922,1.168 -2.1562,1.75 -3.625,1.75 -0.83594,0 -1.5742,-0.16797 -2.2188,-0.5 -0.63672,-0.33203 -1.2188,-0.84766 -1.75,-1.5469 V -1e-4 H 1.8437 v -16.625 h 3.8125 z"
       id="path2704" /></symbol><symbol
     id="k-78"
     overflow="visible"><path
       d="m 0.26562,-11.969 h 3.8281 l 3.2188,8.125 2.7344,-8.125 h 3.8125 L 8.82822,1.125 c -0.5,1.332 -1.0898,2.2656 -1.7656,2.7969 -0.66797,0.53125 -1.5547,0.79688 -2.6562,0.79688 h -2.2188 v -2.5 h 1.2031 c 0.64453,0 1.1133,-0.10547 1.4062,-0.3125 C 5.0977,1.69534 5.32817,1.32816 5.48442,0.79688 L 5.5938,0.45313 Z"
       id="path2707" /></symbol><symbol
     id="j-6"
     overflow="visible"><path
       d="M 11.688,-2.9062 H 5.2505 L 4.2349,0 h -4.125 l 5.9062,-15.953 h 4.9062 L 16.8285,0 H 12.6879 Z M 6.2818,-5.8593 h 4.375 l -2.1875,-6.3438 z"
       id="path2710" /></symbol><symbol
     id="i-8"
     overflow="visible"><path
       d="M 13.859,-7.2812 V 0 h -3.8438 v -5.5469 c 0,-1.0508 -0.027344,-1.7695 -0.078125,-2.1562 -0.042969,-0.39453 -0.12109,-0.6875 -0.23438,-0.875 -0.14844,-0.25 -0.35156,-0.44141 -0.60938,-0.57812 -0.25,-0.14453 -0.54297,-0.21875 -0.875,-0.21875 -0.79297,0 -1.418,0.3125 -1.875,0.9375 -0.46094,0.61719 -0.6875,1.4648 -0.6875,2.5469 V 3e-5 h -3.8125 v -16.625 h 3.8125 v 6.4062 c 0.58203,-0.69531 1.1953,-1.207 1.8438,-1.5312 0.64453,-0.33203 1.3594,-0.5 2.1406,-0.5 1.3828,0 2.4297,0.42969 3.1406,1.2812 0.71875,0.84375 1.0781,2.0742 1.0781,3.6875 z"
       id="path2713" /></symbol><symbol
     id="t-8"
     overflow="visible"><path
       d="M 1.8438,-11.969 H 5.6563 V 0 H 1.8438 Z m 0,-4.6562 h 3.8125 v 3.125 H 1.8438 Z"
       id="path2716" /></symbol><symbol
     id="h-4"
     overflow="visible"><path
       d="M 13.859,-7.2812 V 0 h -3.8438 v -5.5781 c 0,-1.0312 -0.027344,-1.7383 -0.078125,-2.125 -0.042969,-0.39453 -0.12109,-0.6875 -0.23438,-0.875 -0.14844,-0.25 -0.35156,-0.44141 -0.60938,-0.57812 -0.25,-0.14453 -0.54297,-0.21875 -0.875,-0.21875 -0.79297,0 -1.418,0.3125 -1.875,0.9375 -0.46094,0.61719 -0.6875,1.4648 -0.6875,2.5469 V 3e-5 h -3.8125 v -11.969 h 3.8125 v 1.75 c 0.58203,-0.69531 1.1953,-1.207 1.8438,-1.5312 0.64453,-0.33203 1.3594,-0.5 2.1406,-0.5 1.3828,0 2.4297,0.42969 3.1406,1.2812 0.71875,0.84375 1.0781,2.0742 1.0781,3.6875 z"
       id="path2719" /></symbol><symbol
     id="s-31"
     overflow="visible"><path
       d="m 7.8438,-8.875 c 0.86328,0 1.4844,-0.16016 1.8594,-0.48438 0.375,-0.32031 0.5625,-0.84766 0.5625,-1.5781 0,-0.72656 -0.1875,-1.25 -0.5625,-1.5625 -0.375,-0.3125 -0.99609,-0.46875 -1.8594,-0.46875 H 6.125 v 4.0938 z M 6.125,-6.0312 V 0 H 2.0156 v -15.953 h 6.2656 c 2.1016,0 3.6445,0.35547 4.625,1.0625 0.97656,0.71094 1.4688,1.8242 1.4688,3.3438 0,1.0547 -0.25781,1.918 -0.76562,2.5938 -0.51172,0.67969 -1.2773,1.1797 -2.2969,1.5 0.5625,0.125 1.0625,0.41797 1.5,0.875 0.44531,0.44922 0.89844,1.1328 1.3594,2.0469 l 2.2344,4.5312 h -4.375 l -1.9531,-3.9688 C 9.69146,-4.75766 9.29693,-5.3006 8.89068,-5.5936 8.48443,-5.88266 7.94537,-6.0311 7.28128,-6.0311 Z"
       id="path2722" /></symbol><symbol
     id="g-4"
     overflow="visible"><path
       d="m 12.922,-9.9688 c 0.48828,-0.75 1.0625,-1.3164 1.7188,-1.7031 0.66406,-0.38281 1.3984,-0.57812 2.2031,-0.57812 1.375,0 2.4219,0.42969 3.1406,1.2812 0.71875,0.84375 1.0781,2.0742 1.0781,3.6875 v 7.2812 h -3.8438 v -6.2344 c 0.0078,-0.09375 0.01563,-0.1875 0.01563,-0.28125 v -0.4375 c 0,-0.84375 -0.125,-1.457 -0.375,-1.8438 -0.25,-0.38281 -0.65234,-0.57812 -1.2031,-0.57812 -0.73047,0 -1.293,0.30469 -1.6875,0.90625 -0.38672,0.59375 -0.58984,1.4609 -0.60938,2.5938 v 5.875 h -3.8438 v -6.2344 c 0,-1.3203 -0.11719,-2.1758 -0.34375,-2.5625 -0.23047,-0.38281 -0.63672,-0.57812 -1.2188,-0.57812 -0.73047,0 -1.2969,0.30469 -1.7031,0.90625 -0.39844,0.60547 -0.59375,1.4648 -0.59375,2.5781 v 5.8906 h -3.8438 v -11.969 h 3.8438 v 1.75 c 0.46875,-0.66406 1.0039,-1.1719 1.6094,-1.5156 0.61328,-0.34375 1.2891,-0.51562 2.0312,-0.51562 0.82031,0 1.5508,0.19922 2.1875,0.59375 0.63281,0.39844 1.1133,0.96094 1.4375,1.6875 z"
       id="path2725" /></symbol><symbol
     id="r-9"
     overflow="visible"><path
       d="m 9.7031,-16.625 v 2.5156 H 7.5937 c -0.54297,0 -0.92188,0.10156 -1.1406,0.29688 -0.21094,0.19922 -0.3125,0.53906 -0.3125,1.0156 v 0.82812 h 3.2656 v 2.7344 H 6.1406 V 0 H 2.3125 V -9.2344 H 0.4219 v -2.7344 h 1.8906 v -0.82812 c 0,-1.3008 0.36328,-2.2656 1.0938,-2.8906 0.72656,-0.625 1.8516,-0.9375 3.375,-0.9375 z"
       id="path2728" /></symbol><symbol
     id="e-20"
     overflow="visible"><path
       d="m 7.5312,-9.5156 c -0.84375,0 -1.4922,0.30859 -1.9375,0.92188 -0.44922,0.60547 -0.67188,1.4805 -0.67188,2.625 0,1.1484 0.22266,2.0273 0.67188,2.6406 0.44531,0.60547 1.0938,0.90625 1.9375,0.90625 0.83203,0 1.4688,-0.30078 1.9062,-0.90625 0.44531,-0.61328 0.67188,-1.4922 0.67188,-2.6406 0,-1.1445 -0.22656,-2.0195 -0.67188,-2.625 C 8.9999,-9.207 8.3632,-9.5156 7.5312,-9.5156 Z m 0,-2.7344 c 2.0508,0 3.6562,0.55859 4.8125,1.6719 1.1641,1.1055 1.75,2.6406 1.75,4.6094 0,1.9688 -0.58594,3.5117 -1.75,4.625 -1.1562,1.1055 -2.7617,1.6562 -4.8125,1.6562 -2.0625,0 -3.6797,-0.55078 -4.8438,-1.6562 -1.168,-1.1133 -1.75,-2.6562 -1.75,-4.625 0,-1.9688 0.58203,-3.5039 1.75,-4.6094 1.1641,-1.1133 2.7812,-1.6719 4.8438,-1.6719 z"
       id="path2731" /></symbol><symbol
     id="q-6"
     overflow="visible"><path
       d="m 2.0156,-15.953 h 4.5781 l 5.8125,10.938 v -10.938 h 3.8906 V 0 H 11.703 L 5.9061,-10.938 V 0 H 2.0155 Z"
       id="path2734" /></symbol><symbol
     id="p-8"
     overflow="visible"><path
       d="m 1.7031,-4.6562 v -7.3125 h 3.8438 v 1.2031 c 0,0.64844 -0.00781,1.4609 -0.015625,2.4375 v 1.9688 c 0,0.96094 0.023438,1.6523 0.078125,2.0781 0.050781,0.41797 0.13281,0.72656 0.25,0.92188 0.15625,0.25 0.35938,0.44531 0.60938,0.57812 0.25781,0.13672 0.55078,0.20312 0.875,0.20312 0.80078,0 1.4258,-0.30469 1.875,-0.92188 0.45703,-0.61328 0.6875,-1.4688 0.6875,-2.5625 v -5.9062 h 3.8281 v 11.969 h -3.8281 v -1.7344 c -0.57422,0.69922 -1.1836,1.2148 -1.8281,1.5469 -0.64844,0.33203 -1.3555,0.5 -2.125,0.5 -1.3867,0 -2.4453,-0.42188 -3.1719,-1.2656 -0.71875,-0.85156 -1.0781,-2.0859 -1.0781,-3.7031 z"
       id="path2737" /></symbol><symbol
     id="o-9"
     overflow="visible"><path
       d="m 2.0156,-15.953 h 6.8125 c 2.0312,0 3.5859,0.45312 4.6719,1.3594 1.0938,0.89844 1.6406,2.1797 1.6406,3.8438 0,1.6797 -0.54688,2.9688 -1.6406,3.875 -1.0859,0.89844 -2.6406,1.3438 -4.6719,1.3438 H 6.125 V 2e-4 H 2.0156 Z m 4.1094,2.9844 v 4.4531 h 2.2656 c 0.80078,0 1.4141,-0.19141 1.8438,-0.57812 0.4375,-0.38281 0.65625,-0.9375 0.65625,-1.6562 0,-0.70703 -0.21875,-1.2539 -0.65625,-1.6406 -0.42969,-0.38281 -1.043,-0.57812 -1.8438,-0.57812 z"
       id="path2740" /></symbol><symbol
     id="n-2"
     overflow="visible"><path
       d="m 1.8438,-11.969 h 3.8125 v 11.75 c 0,1.6016 -0.38672,2.8281 -1.1562,3.6719 C 3.73838,4.29665 2.629,4.7185 1.172,4.7185 h -1.8906 v -2.5 h 0.65625 c 0.72656,0 1.2266,-0.16797 1.5,-0.5 C 1.70718,1.39428 1.8439,0.74975 1.8439,-0.219 Z m 0,-4.6562 h 3.8125 v 3.125 H 1.8438 Z"
       id="path2743" /></symbol><symbol
     id="m-6"
     overflow="visible"><path
       d="m 11.5,-11.594 v 3.125 C 10.97656,-8.82056 10.457,-9.08228 9.9375,-9.25025 9.41406,-9.42603 8.875,-9.51587 8.3125,-9.51587 c -1.0742,0 -1.9062,0.3125 -2.5,0.9375 -0.5938,0.625 -0.89062,1.4961 -0.89062,2.6094 0,1.1172 0.29688,1.9844 0.89062,2.6094 0.59374,0.625 1.4258,0.9375 2.5,0.9375 0.59375,0 1.1562,-0.085937 1.6875,-0.26562 0.53906,-0.17578 1.0391,-0.44141 1.5,-0.79688 v 3.125 c -0.59375,0.23047 -1.1992,0.39453 -1.8125,0.5 -0.61719,0.11328 -1.2344,0.17188 -1.8594,0.17188 -2.1562,0 -3.8438,-0.55078 -5.0625,-1.6562 -1.2188,-1.1133 -1.8281,-2.6562 -1.8281,-4.625 0,-1.9688 0.60938,-3.5039 1.8281,-4.6094 1.2188,-1.1133 2.9062,-1.6719 5.0625,-1.6719 0.625,0 1.2383,0.05859 1.8438,0.17188 0.61328,0.10547 1.2227,0.26562 1.8281,0.48438 z"
       id="path2746" /></symbol><linearGradient
     inkscape:collect="always"
     xlink:href="#linearGradient22659"
     id="linearGradient20181"
     x1="157.67062"
     y1="243.75438"
     x2="561.37842"
     y2="243.75438"
     gradientUnits="userSpaceOnUse" /></defs><sodipodi:namedview
   pagecolor="#ffffff"
   bordercolor="#666666"
   borderopacity="1"
   objecttolerance="10"
   gridtolerance="10"
   guidetolerance="10"
   inkscape:pageopacity="0"
   inkscape:pageshadow="2"
   inkscape:window-width="1920"
   inkscape:window-height="947"
   id="namedview5"
   showgrid="false"
   inkscape:zoom="0.64"
   inkscape:cx="739.0625"
   inkscape:cy="474.21875"
   inkscape:window-x="0"
   inkscape:window-y="0"
   inkscape:window-maximized="1"
   inkscape:current-layer="Layer_1"
   showguides="true"
   inkscape:guide-bbox="true"
   inkscape:document-rotation="0"
   inkscape:pagecheckerboard="0"
   width="500px" />
















<g
   id="g994"
   transform="translate(-475.39726,-433.86506)"><g
     id="g937">
	<g
   id="g935">
		
	</g>
</g><g
     id="g939">
</g><g
     id="g941">
</g><g
     id="g943">
</g><g
     id="g945">
</g><g
     id="g947">
</g><g
     id="g949">
</g><g
     id="g951">
</g><g
     id="g953">
</g><g
     id="g955">
</g><g
     id="g957">
</g><g
     id="g959">
</g><g
     id="g961">
</g><g
     id="g963">
</g><g
     id="g965">
</g><g
     id="g967">
</g></g><g
   id="g2082"
   transform="matrix(0.86734113,0,0,0.86734113,-78.93355,10.492876)"><path
     d="M 545.53584,421.2798 V 51.060079 C 545.53584,27.188377 529.28661,14 508.06561,14 H 200.86482 C 179.36718,14 162.4016,27.66794 162.4016,52.468952 V 468.16 c 0,28.559 22.961,51.52 51.52,51.52 10.09733,0 16.62017,-4.32558 16.62017,-16.4477 0,-10.36714 -4.20785,-16.0323 -16.61659,-16.0323 -10.641,0 -19.039,-8.3984 -19.039,-19.039 0,-10.6406 8.3984,-19.602 19.039,-19.602 h 33.602 v 89.602 c 0,6.1602 7.2812,10.078 12.32,6.7188 l 24.078,-16.238 c 2.8008,-1.6797 6.1602,-1.6797 8.9609,0 l 24.078,16.238 c 5.0391,3.3594 12.32,0 12.32,-6.7188 v -89.602 h 162.96 c -1.6797,5.6016 -3.3594,12.32 -3.3594,19.602 0,7.282 1.1211,13.441 3.3594,19.039 H 363.88343 c -8.91038,0 -14.99935,5.63278 -14.99935,15.98551 0,8.60934 5.55063,16.49449 14.99935,16.49449 h 157.48065 c 6.7188,0 12.32,-3.9219 15.121,-10.641 2.2383,-6.1602 0.55859,-13.441 -4.4805,-17.922 0,0 -10.641,-10.078 -10.641,-23.52 0,-6.7188 3.11446,-18.47434 12.97334,-24.16637 8.31019,-4.7979 11.19892,-13.21474 11.19892,-22.15083 z"
     id="path2002"
     sodipodi:nodetypes="csssssssssscsccccsccscsccsccssc"
     style="fill:url(#linearGradient20181);fill-opacity:1" /></g><g
   id="g14804"
   transform="matrix(0.85735746,0,0,0.85735746,36.22778,-672.91872)"
   style="fill:#ffffff"><g
     id="g14772"
     transform="translate(-44.75519,788.32908)"
     style="fill:#ffffff;fill-opacity:1"><g
       id="g14770"
       transform="matrix(1.0705272,0,0,1.0705272,-12.369194,-19.72674)"
       style="fill:#ffffff;fill-opacity:1"><path
         id="path14768"
         style="fill:#ffffff;fill-opacity:1;stroke-width:1.07302"
         d="m 262.18077,94.842478 c -4.53794,0.199811 -8.42851,2.820382 -12.26386,4.974812 -0.70081,0.40974 -1.58885,0.91672 -2.17284,1.26548 -27.6619,16.43963 -50.27193,41.30409 -63.80822,70.51423 -4.59212,9.8359 -8.20355,20.28714 -10.70167,30.75379 -0.6146,2.59026 -1.18316,5.25205 -1.6538,7.78128 -1.57437,8.37233 -2.47594,16.86996 -2.70665,25.38578 -0.0395,1.70502 -0.0708,3.63835 -0.058,5.43231 0.10244,18.64743 3.44507,37.27175 9.8372,54.78972 0.42415,1.14201 0.93792,2.53932 1.43201,3.76594 3.30655,8.40961 7.35503,16.52322 12.02269,24.2592 0.49471,0.78402 1.11887,1.83583 1.68609,2.71264 10.85743,17.14542 24.96803,32.22414 41.36892,44.17779 0.78628,0.5619 1.79664,1.30217 2.68828,1.91501 3.62674,2.5325 7.50039,4.98059 11.22584,7.17715 1.30316,0.75261 2.42346,1.39826 3.75921,2.1119 1.91361,0.95923 3.77489,2.08311 5.8198,2.7379 4.79666,1.37851 10.08354,0.26737 14.20798,-2.44704 29.1238,-15.77693 53.23884,-40.69712 67.84926,-70.44111 2.58849,-5.22777 4.87494,-10.60334 6.88245,-16.08013 0.40384,-1.1435 0.91026,-2.53833 1.32316,-3.78855 6.35774,-18.83271 9.20427,-38.84094 8.3433,-58.69987 -0.0553,-0.92944 -0.0981,-2.15221 -0.17297,-3.19861 -1.61015,-26.04849 -9.54885,-51.71653 -23.18586,-73.98731 -10.50348,-17.25115 -24.2618,-32.51568 -40.35612,-44.72055 -1.07921,-0.81925 -2.37679,-1.77429 -3.5574,-2.62015 -5.16823,-3.67143 -10.5241,-7.1133 -16.14334,-10.17746 -2.66729,-1.38904 -5.29944,-3.073195 -8.35378,-3.425445 -1.0954,-0.167029 -2.20533,-0.204661 -3.31172,-0.168707 z m 2.05718,35.347272 c 23.70185,14.77089 42.46197,37.38447 52.36562,63.51741 9.26828,24.25095 11.06582,51.30662 4.96103,76.54933 -4.74346,19.86835 -14.2622,38.5858 -27.61679,54.05032 -3.93759,4.66492 -8.34914,8.88957 -12.68594,13.17497 l -2.01252,1.99406 V 267.4112 c 11.0799,-11.17205 21.8484,-22.62405 32.80847,-33.91943 4.74391,-5.75351 4.68067,-14.92533 -0.30838,-20.51521 -3.81162,-4.47859 -10.23858,-6.74143 -15.97265,-5.22535 -2.83707,0.99842 -5.33984,3.08061 -7.43631,4.8771 -10.39297,8.90589 -9.09045,9.55745 -9.10137,2.63324 -0.0198,-10.03334 0.12662,-25.05382 -0.1026,-35.08557 0.0351,-1.99929 -0.57801,-4.15446 -1.49094,-6.00433 -2.51319,-5.149 -7.85408,-8.91959 -13.64022,-9.10698 -6.04841,-0.34594 -12.23372,2.94295 -15.04292,8.36637 -1.75985,3.18352 -2.24408,6.90834 -1.99411,10.49584 l -0.19388,81.66586 c -0.004,1.51665 -6.02891,-7.09957 -9.53765,-8.53175 -6.11119,-2.3364 -13.58168,-0.4318 -17.77304,4.612 -3.95957,4.50961 -5.08066,11.32002 -2.63584,16.82328 1.15798,2.81663 3.21731,5.13306 5.45885,7.14283 8.2272,8.22851 16.45427,16.45715 24.68156,24.68559 v 29.14498 c -7.10074,-6.97141 -14.31693,-13.91787 -20.18656,-21.99378 -13.8062,-18.44751 -22.55376,-40.64759 -24.94624,-63.57104 -2.42143,-22.55657 1.12889,-45.75029 10.3766,-66.4796 9.04304,-20.43653 23.53258,-38.41274 41.54768,-51.632 3.01785,-2.24836 6.17246,-4.30357 9.34594,-6.32341 0.37739,0.23997 0.75478,0.47994 1.13217,0.7199 z"
         sodipodi:nodetypes="scccccccccccccccccccccccccccsssccccccccsccccccsccccccccccccs" /></g></g><g
     id="g14774"
     style="fill:#ffffff" /><g
     id="g14776"
     style="fill:#ffffff" /><g
     id="g14778"
     style="fill:#ffffff" /><g
     id="g14780"
     style="fill:#ffffff" /><g
     id="g14782"
     style="fill:#ffffff" /><g
     id="g14784"
     style="fill:#ffffff" /><g
     id="g14786"
     style="fill:#ffffff" /><g
     id="g14788"
     style="fill:#ffffff" /><g
     id="g14790"
     style="fill:#ffffff" /><g
     id="g14792"
     style="fill:#ffffff" /><g
     id="g14794"
     style="fill:#ffffff" /><g
     id="g14796"
     style="fill:#ffffff" /><g
     id="g14798"
     style="fill:#ffffff" /><g
     id="g14800"
     style="fill:#ffffff" /><g
     id="g14802"
     style="fill:#ffffff" /></g><text
   xml:space="preserve"
   style="font-style:normal;font-weight:normal;font-size:333.902px;line-height:1.25;font-family:sans-serif;letter-spacing:-13.157px;fill:#000000;fill-opacity:1;stroke:none;stroke-width:8.34757"
   x="399.82022"
   y="396.02957"
   id="text27214"
   transform="scale(1.1263772,0.88780205)"><tspan
     sodipodi:role="line"
     id="tspan27212"
     x="399.82022"
     y="396.02957"
     style="font-style:normal;font-variant:normal;font-weight:bold;font-stretch:normal;font-family:'Tlwg Typewriter';-inkscape-font-specification:'Tlwg Typewriter Bold';stroke-width:8.34757" /></text><g
   aria-label="SAGE"
   transform="scale(0.9546193,1.047538)"
   id="text227594"
   style="font-weight:bold;font-size:334.601px;line-height:1.25;font-family:'Tlwg Typewriter';-inkscape-font-specification:'Tlwg Typewriter Bold';letter-spacing:-10px;stroke-width:8.36503" /><g
   aria-label="sage"
   transform="matrix(0.94917779,0,0,1.0848409,17.1464,-7.9049371)"
   id="text388106"
   style="font-weight:bold;font-size:361.816px;line-height:1.25;font-family:'Tlwg Typewriter';-inkscape-font-specification:'Tlwg Typewriter Bold';letter-spacing:-27.0334px;fill:#22282a;fill-opacity:1;stroke-width:9.04543"><g
     aria-label="sage"
     transform="matrix(0.57040831,0,0,0.4990768,220.46183,103.60435)"
     id="text27314"
     style="font-weight:normal;font-size:637.213px;font-family:Rubik;-inkscape-font-specification:Rubik;fill:#000000;stroke-width:144.097"><path
       id="path28516"
       style="font-weight:300;-inkscape-font-specification:'Rubik Light';fill:#23262a;fill-opacity:1;stroke-width:142.044"
       d="m 958.29515,66.263598 c -16.95038,0.331454 -34.04855,2.258996 -50.15576,7.770896 -2.42563,0.848043 -5.00001,1.825963 -7.27416,2.748968 -1.08174,0.442314 -1.93213,0.791815 -3.00346,1.251448 -13.3301,5.723535 -25.90663,13.42254 -36.47093,23.41729 -1.12893,1.04339 -2.23607,2.10972 -3.34052,3.17887 -0.23269,0.22712 -0.83858,0.83519 -1.21433,1.20837 -2.59146,2.58784 -5.07033,5.28751 -7.43606,8.08315 -0.18239,0.21689 -0.67936,0.80759 -0.98354,1.1845 -5.66031,6.8797 -10.40765,14.53763 -13.74921,22.80817 -2.68478,6.58193 -4.62105,13.54768 -5.02881,20.66799 -0.34445,7.6848 1.62728,15.68281 6.517,21.74257 3.16724,3.98304 7.59034,6.91166 12.473,8.33202 4.93027,1.52029 10.1434,1.59109 15.25597,1.47945 5.36504,0.0471 10.93938,0.15448 15.97458,-1.98545 6.9814,-2.79013 12.55777,-8.66624 15.26959,-15.64798 1.61764,-3.95781 3.07598,-8.03268 5.51796,-11.58031 5.44762,-8.45933 13.61632,-14.90004 22.58441,-19.30249 8.8602,-4.32703 18.68343,-6.25087 28.45749,-6.99474 8.52574,-0.62328 17.10477,-0.41747 25.61046,0.39619 8.88694,0.9058 17.79264,2.67804 25.98367,6.33902 9.2072,4.15249 16.999,11.3908 21.7207,20.32842 3.8091,7.07231 5.5169,15.08462 5.9857,23.05304 0.4274,7.50361 -3.4954,12.8866 -12.8152,15.38384 -27.31268,3.79917 -54.63032,7.56462 -81.91825,11.53576 -14.91926,2.50375 -29.66589,6.18554 -43.86541,11.43054 -0.55864,0.21485 -1.43248,0.53855 -2.11205,0.79515 -2.13508,0.81995 -4.25623,1.67526 -6.36505,2.56066 -0.3688,0.16305 -1.08724,0.46773 -1.58986,0.685 -12.39112,5.36884 -24.22917,12.08416 -34.99093,20.25653 -10.95608,8.35704 -20.55603,18.66402 -27.30059,30.72971 -1.61606,2.83436 -3.20925,6.08983 -4.41682,8.87602 -3.53152,8.12681 -5.93018,16.85681 -7.01972,25.58508 -0.9569,7.02502 -1.24125,14.14334 -0.80478,21.22072 0.0255,0.2853 0.0979,1.36177 0.12008,1.66734 0.90164,11.63743 3.90054,23.12606 9.01899,33.62722 5.08294,10.5472 12.13613,20.09123 20.46387,28.30173 8.27029,8.30508 17.69013,15.44758 27.852,21.28076 0.25009,0.14444 1.03182,0.57905 1.4861,0.83497 14.46136,8.06755 30.40358,13.44108 46.78416,15.84945 4.14731,0.62756 8.32441,1.04719 12.50969,1.31718 0.35607,0.0222 1.18178,0.0658 1.71772,0.0962 5.5711,0.28993 11.1545,0.28926 16.72861,0.0847 0.55496,-0.0275 1.44481,-0.0621 2.12818,-0.0923 14.01237,-0.55983 28.17576,-2.2224 41.73115,-6.10158 5.97151,-1.71643 11.78661,-3.94637 17.47321,-6.44192 0.3313,-0.15529 1.0785,-0.48743 1.5692,-0.71042 7.8416,-3.59557 15.4157,-7.79691 22.5029,-12.72234 0.6527,-0.43836 1.3053,-0.87672 1.958,-1.31508 1.5228,3.37258 2.8584,6.8888 5.1704,9.82554 3.8838,5.209 9.5993,9.05709 15.9564,10.48598 5.7392,1.37025 11.6784,0.86325 17.5202,0.94163 4.8622,-0.0599 9.8344,-0.65997 14.2468,-2.83183 8.5858,-3.99625 14.9539,-12.55478 15.9836,-22.0108 0.2009,-1.48091 0.3205,-3.27103 0.3613,-4.57222 0.1327,-4.81097 -0.097,-9.62356 0.011,-14.4352 -0.017,-66.43166 0.021,-132.86373 -0.095,-199.29507 -0.07,-2.07898 -0.2029,-4.32731 -0.3467,-6.29318 -0.064,-0.79814 -0.1156,-1.50852 -0.1844,-2.21399 -1.3174,-14.68594 -4.6607,-29.23999 -10.3725,-42.8512 -2.7105,-6.16584 -6.0415,-12.05223 -9.8436,-17.60927 -0.2324,-0.32463 -0.6553,-0.94969 -0.974,-1.39438 -1.2663,-1.80451 -2.7205,-3.72257 -4.0087,-5.35188 -0.4334,-0.53877 -0.813,-1.02049 -1.1906,-1.47254 -4.8619,-5.90972 -10.1801,-11.485452 -16.2402,-16.181984 -5.9367,-4.677412 -12.3955,-8.668986 -19.1307,-12.087585 -0.636,-0.317052 -1.5445,-0.776397 -2.2925,-1.131628 -1.2867,-0.618486 -2.4047,-1.145238 -3.7261,-1.732969 -5.5944,-2.508219 -11.3524,-4.654717 -17.2467,-6.346061 -0.4283,-0.124913 -1.2009,-0.342695 -1.7645,-0.501181 -7.2268,-1.985869 -14.60438,-3.396631 -22.03428,-4.364064 -0.83707,-0.10212 -1.95968,-0.247927 -2.9079,-0.351422 -10.09899,-1.154687 -20.27227,-1.511104 -30.42944,-1.43912 z m 72.82215,206.258922 c -0.3328,12.82124 -1.886,25.7083 -5.7681,37.96986 -4.0687,12.75025 -10.7665,24.77325 -20.0899,34.43097 -6.55609,6.8439 -14.59071,12.17445 -23.25643,15.96382 -17.49918,7.74099 -37.26345,9.72131 -56.09867,6.80487 -8.23341,-1.28804 -16.42975,-3.41756 -23.88381,-7.21708 -6.31855,-3.2678 -12.15567,-7.57281 -16.87743,-12.91282 -2.82926,-3.18184 -4.89796,-7.00203 -6.07991,-11.08868 -1.53101,-5.18613 -1.90546,-10.6957 -1.30121,-16.05942 0.60905,-4.86915 2.51249,-9.56415 5.52455,-13.44348 5.11428,-6.83728 12.35492,-11.70271 19.82268,-15.64521 11.20011,-5.81964 23.3502,-9.5535 35.59083,-12.47119 16.99693,-4.02263 34.38847,-5.90668 51.64542,-8.42567 11.13718,-1.55499 22.27468,-3.10862 33.41188,-4.66386 4.1344,-1.10781 7.4861,2.6596 7.3601,6.75789 z"
       sodipodi:nodetypes="scccccccccccccccccccccccccccccccccccccccccccccccccccccccccccccccccccccccssccccccccccccccc" /><path
       id="path28514"
       style="font-weight:300;-inkscape-font-specification:'Rubik Light';fill:#23262a;fill-opacity:1;stroke-width:142.044"
       d="m 631.17628,66.302104 c -2.2593,0.06438 -4.73403,0.189085 -6.85602,0.306123 -2.87733,0.177128 -5.75087,0.41645 -8.61767,0.720064 -1.00757,0.112442 -2.28088,0.255959 -3.38852,0.396613 -1.38032,0.176741 -2.81796,0.373308 -4.08988,0.572206 -12.83637,1.922395 -25.46456,5.526843 -37.15626,11.207634 -13.76353,6.617947 -26.39346,15.758495 -36.55587,27.191786 -6.37295,7.2444 -11.77295,15.34285 -16.01425,24.00894 -0.1512,0.33006 -0.49642,1.02981 -0.71914,1.50455 -0.4108,0.86578 -0.90485,1.98151 -1.23117,2.71186 -3.98205,9.08952 -6.69396,18.7575 -7.7024,28.64041 -0.67569,6.2426 -0.67396,12.54722 -0.14515,18.80102 0.038,0.3778 0.0923,1.12392 0.14572,1.65172 0.62008,6.69725 1.81299,13.34579 3.6375,19.82122 0.10443,0.36553 0.30843,1.08766 0.46314,1.59606 1.98548,6.54563 4.54873,12.94972 7.97878,18.87805 6.98187,11.76307 17.28185,21.24061 28.64466,28.70048 0.56969,0.3718 0.89543,0.58177 1.48528,0.95064 9.90698,6.23461 20.70164,10.91947 31.69406,14.87305 0.5545,0.19902 1.4254,0.50387 2.10123,0.7435 8.5128,3.01661 17.19893,5.51772 25.95623,7.71627 11.76403,2.96121 23.75554,5.53768 35.55885,8.61423 11.99357,3.11034 23.92796,6.52307 35.55623,10.82027 6.46657,2.46375 12.86572,5.33189 18.46934,9.44315 4.08298,2.96668 7.50028,7.06029 8.94547,11.9581 1.54676,5.55475 1.53343,11.46329 0.56554,17.11785 -1.11816,5.96715 -3.99378,11.65737 -8.47658,15.79906 -5.02717,4.7882 -11.31511,7.99163 -17.68512,10.60388 -12.88899,5.14355 -26.84301,6.98523 -40.64252,7.29182 -9.03775,0.15052 -18.10746,-0.26291 -27.04988,-1.62531 -9.84519,-1.53028 -19.52692,-4.67888 -28.00354,-9.9846 -4.4685,-2.77052 -8.51415,-6.19661 -12.04229,-10.09101 -5.47544,-5.59476 -10.27324,-11.79406 -15.31926,-17.76319 -4.76687,-5.21142 -11.26473,-9.11292 -18.3871,-9.79078 -5.04736,-0.5637 -10.13561,-0.25373 -15.20027,-0.25361 -5.97686,0.32361 -11.68017,2.72625 -16.52879,6.1567 -4.55699,3.09586 -8.47031,7.56355 -10.19363,12.78951 -2.39708,6.75337 -1.78585,14.27732 0.67022,20.92243 2.35,6.80743 5.83442,13.17442 9.78083,19.17786 6.96393,10.08301 15.80662,18.73597 25.328,26.39217 12.78889,9.92992 27.50071,17.08867 42.62173,22.71128 15.68811,5.65331 32.32133,8.2831 48.93309,9.10423 0.39788,0.0129 1.18248,0.0513 1.72838,0.0739 2.10817,0.0898 4.47825,0.14852 6.69487,0.1837 5.68838,0.0748 11.3787,-0.0425 17.06009,-0.3307 1.61517,-0.0884 3.43959,-0.18952 5.13604,-0.3128 2.86725,-0.18678 5.72754,-0.46377 8.58367,-0.77499 0.98196,-0.11633 2.23011,-0.26175 3.31113,-0.40292 1.68157,-0.21394 3.6184,-0.49276 5.39511,-0.77151 0.73059,-0.12377 1.76092,-0.28489 2.60525,-0.435 4.88842,-0.84105 9.7405,-1.89418 14.53574,-3.1634 0.36981,-0.10394 1.30087,-0.35599 1.64805,-0.44667 10.16076,-2.8114 20.01726,-6.74304 29.25694,-11.82716 0.43821,-0.2414 1.17813,-0.64929 1.73168,-0.96596 13.37076,-7.57653 25.50601,-17.57706 34.68946,-29.96055 2.7254,-3.63494 5.21779,-7.44451 7.46038,-11.39552 0.15522,-0.29096 0.52015,-0.92679 0.75339,-1.35747 5.64431,-10.30778 9.58964,-21.58879 11.16972,-33.25198 1.24438,-8.85945 1.28197,-17.87171 0.30835,-26.75962 -0.0453,-0.33851 -0.12269,-1.08116 -0.18878,-1.58177 -0.85558,-7.00038 -2.43122,-13.91701 -4.76309,-20.57466 -0.15141,-0.43029 -0.42221,-1.19934 -0.63472,-1.75532 -4.48071,-12.08761 -11.63085,-23.23395 -21.08727,-32.03082 -10.10654,-9.44749 -22.18727,-16.51264 -34.68588,-22.30284 -11.88188,-5.51699 -24.35842,-9.64432 -36.97712,-13.10838 -0.67526,-0.18542 -1.65008,-0.44435 -2.44032,-0.658 -3.76495,-1.00299 -7.77536,-2.00855 -11.66418,-2.94244 -19.16587,-4.47073 -38.29363,-9.27079 -56.90425,-15.71681 -8.21351,-2.894 -16.28288,-6.49262 -23.32126,-11.68244 -3.08311,-2.27478 -5.65492,-5.32426 -6.97636,-8.95225 -2.43649,-6.2586 -2.38971,-13.27411 -0.80098,-19.73379 1.27151,-5.20278 3.94811,-10.0233 7.6269,-13.90903 5.74138,-6.18621 13.46053,-10.29216 21.58265,-12.39161 11.06142,-2.9181 22.59974,-3.42943 33.9858,-3.08591 8.72165,0.28801 17.51515,1.10805 25.87462,3.74743 6.27092,2.06092 12.54416,4.5586 17.76871,8.68685 2.05001,1.60441 3.92166,3.4298 5.63261,5.39018 0.55633,0.60971 1.28858,1.42014 1.89042,2.13321 3.74841,4.36328 6.89421,9.18961 10.20468,13.88025 3.56323,4.7462 8.25191,8.91781 13.96603,10.79933 1.74681,0.38061 3.50296,0.71772 5.26935,0.99438 0.34011,0.0446 1.11182,0.16957 1.62227,0.23467 0.54571,0.0798 1.37765,0.17795 1.74892,0.22163 7.26506,0.80033 14.7911,0.82476 21.8214,-1.40547 8.51306,-2.81519 15.83106,-9.63412 18.46963,-18.29947 2.1989,-7.27153 1.04809,-15.1529 -1.68788,-22.11438 -3.22312,-8.16644 -7.80393,-15.7402 -13.00304,-22.79042 -7.61102,-9.73308 -17.05302,-17.896065 -27.14101,-24.966361 -4.48089,-3.027078 -9.17003,-5.74065 -13.99244,-8.185092 -0.29726,-0.150273 -1.06128,-0.523972 -1.53741,-0.759875 -5.48429,-2.700144 -11.14635,-5.028974 -16.90316,-7.081891 -0.3229,-0.105631 -1.11894,-0.385887 -1.62311,-0.558431 -7.16117,-2.545093 -14.57155,-4.338931 -22.06583,-5.575588 -0.37344,-0.05631 -1.25036,-0.198478 -1.63968,-0.261009 -1.81783,-0.277761 -3.72396,-0.543007 -5.44666,-0.746365 -10.14008,-1.200402 -20.37269,-1.60009 -30.5784,-1.405033 z" /><path
       id="path28518"
       style="font-weight:300;-inkscape-font-specification:'Rubik Light';fill:#23262a;fill-opacity:1;stroke-width:142.044"
       d="m 1286.5564,66.257821 c -2.8021,0.02776 -5.7795,0.09559 -8.4694,0.236813 -1.4536,0.07637 -2.9151,0.161822 -4.2811,0.262515 -1.3772,0.09594 -2.9418,0.231336 -4.1941,0.351657 -3.9515,0.384705 -7.891,0.895739 -11.8059,1.555647 -0.4068,0.06906 -1.3316,0.227504 -1.7276,0.300968 -13.2535,2.378571 -26.245,6.506252 -38.1684,12.809569 -16.6819,8.757488 -31.4527,21.15044 -42.9038,36.11826 -9.8894,12.90102 -17.6011,27.40717 -23.3027,42.61065 -6.8482,18.46321 -10.7757,37.92305 -12.6226,57.50051 -0.507,5.58336 -0.8013,11.32731 -0.9692,16.84079 -0.2512,9.42162 -0.273,18.84963 -0.1302,28.27316 0.067,3.57471 0.1927,7.31936 0.3631,10.78164 0.053,1.00285 0.1223,2.2142 0.1657,3.08819 0.6148,10.269 1.7428,20.51719 3.6637,30.62774 0.1733,0.91034 0.394,2.08895 0.5987,3.1014 3.5367,17.66687 9.0234,35.03783 17.3501,51.05623 1.7851,3.46681 3.7032,6.86452 5.7266,10.1976 0.215,0.33771 0.6232,1.00633 0.9119,1.4707 2.8139,4.49597 5.8587,8.84777 9.1325,13.02106 0.2631,0.32307 0.7487,0.94478 1.0994,1.38045 15.6617,19.53402 37.1381,34.37135 60.9922,41.99975 9.1798,2.90321 18.6643,4.79157 28.2206,5.91723 0.5557,0.0565 1.4389,0.16466 2.1252,0.23159 4.1811,0.43339 8.3777,0.71445 12.5783,0.86584 0.8683,0.0287 2.0206,0.0639 2.9983,0.0818 3.2856,0.0718 6.7256,0.0473 9.9147,-0.0336 4.0842,-0.11138 8.0326,-0.32961 12.1147,-0.64938 1.6251,-0.13349 3.0528,-0.27199 4.669,-0.44685 5.4399,-0.58782 10.8526,-1.43334 16.2065,-2.56379 0.3604,-0.0833 1.1057,-0.24207 1.6133,-0.35426 11.9484,-2.66512 23.5761,-6.94528 34.1634,-13.12546 7.9893,-4.6126 15.4293,-6.58143 15.4293,5.18848 -0.033,8.96706 -0.067,17.93413 -0.1684,26.90056 -0.4785,11.34414 -1.9086,22.75572 -5.5372,33.55653 -2.9606,8.51867 -7.3854,16.62773 -13.5362,23.26708 -6.0513,6.32185 -13.9597,10.82774 -22.2761,13.28897 -11.7184,3.79523 -24.0291,5.39172 -36.2912,6.05767 -12.9465,0.60954 -26.035,0.43676 -38.7922,-2.06915 -7.306,-1.47397 -14.4815,-3.94354 -20.7983,-7.95759 -6.1084,-3.84632 -11.8718,-8.47202 -16.1322,-14.35554 -2.8266,-4.06311 -5.1626,-8.4408 -7.511,-12.79024 -2.2339,-4.30766 -4.1058,-8.79657 -5.6249,-13.40403 -10.1832,-27.82495 -43.502,-25.83968 -59.1294,-10.36074 -4.4487,4.58395 -7.3079,10.71872 -7.7198,17.11251 -0.5052,6.76264 1.0306,13.45795 2.6564,19.97505 1.0325,3.88545 2.2571,7.71809 3.6296,11.4963 0.148,0.38536 0.4383,1.1835 0.592,1.59356 0.3653,0.97218 0.6558,1.70343 1.0408,2.68062 1.7164,4.3856 3.7012,8.6668 6.0624,12.7446 1.9688,3.45523 4.1336,6.79771 6.4635,10.02021 0.2682,0.35583 0.7278,1.00134 1.084,1.46842 5.2216,6.93828 11.1718,13.3414 17.7707,18.98779 3.2555,2.75121 6.6781,5.30173 10.2117,7.68404 0.3921,0.26215 1.0682,0.71598 1.5805,1.04586 9.2319,5.99172 19.1847,10.84126 29.4853,14.69571 15.8097,5.67087 32.5703,8.17791 49.2778,9.22232 0.8954,0.0472 1.9964,0.11581 2.7473,0.14867 1.3324,0.055 2.7882,0.12591 3.9923,0.16885 10.9364,0.39607 21.8958,0.20668 32.8074,-0.64137 0.3802,-0.0375 1.1792,-0.10113 1.7198,-0.14861 17.8819,-1.50609 35.7923,-4.76147 52.4407,-11.64395 9.9325,-4.07819 19.2581,-9.57818 27.7766,-16.10317 0.2546,-0.20508 0.857,-0.66686 1.2438,-0.97229 12.9348,-10.199 23.9173,-22.9774 31.5277,-37.61833 4.8075,-9.11419 8.225,-18.88997 11.043,-28.78007 2.6407,-9.45565 4.6248,-19.09737 5.9444,-28.82523 0.538,-4.47101 0.8269,-8.96684 1.1095,-13.45981 0.021,-0.48016 0.07,-1.31298 0.101,-1.92827 0.07,-1.35831 0.1501,-2.67174 0.2044,-3.95448 0.2352,-4.98519 0.4147,-10.07475 0.5588,-14.99911 0.3704,-13.13915 0.5323,-26.28464 0.4216,-39.42868 -0.011,-99.00032 0.022,-198.00116 -0.071,-297.00117 -0.426,-8.303502 -4.8398,-16.122123 -11.2405,-21.321979 -5.881,-5.060534 -13.8706,-7.289586 -21.5452,-6.771852 -5.9619,0.0071 -12.1504,-0.405098 -17.8224,1.793704 -7.8331,2.880938 -14.1391,9.342772 -17.2014,17.066448 -0.4748,1.081417 -0.9495,2.162854 -1.4243,3.244277 -5.9166,-4.178956 -11.9108,-8.271627 -18.2685,-11.75875 -7.5402,-4.202939 -15.4822,-7.715022 -23.767,-10.167328 -8.8616,-2.689604 -18.0027,-4.392791 -27.2043,-5.382451 -0.5476,-0.04952 -1.4179,-0.1465 -2.0966,-0.208328 -3.7403,-0.353874 -7.4913,-0.588179 -11.2455,-0.727369 -0.644,-0.02114 -1.6015,-0.05422 -2.3681,-0.0711 -2.3939,-0.06099 -4.7889,-0.08004 -7.1834,-0.0656 z m 5.5872,72.432589 c 11.9717,0.0782 24.142,1.55817 35.2525,6.23479 8.4563,3.50639 15.8376,9.20925 22.1781,15.74334 9.5734,11.55374 18.9711,25.48938 22.8637,37.3887 3.1187,9.88954 4.9856,20.16512 5.5992,30.51518 0.73,11.67025 0.8215,23.37665 0.499,35.06329 -0.2611,10.42136 -0.9581,20.88928 -3.2743,31.07994 -2.0746,9.33879 -5.0445,14.93666 -8.8781,23.7022 -2.6868,6.20257 -6.0476,12.1243 -10.1864,17.47662 -5.5717,7.24808 -12.3182,13.61168 -19.9379,18.66868 -9.8015,6.29447 -21.3647,9.27644 -32.8679,10.34428 -9.2835,0.85567 -18.6653,0.64587 -27.9094,-0.54821 -11.0795,-1.50285 -22.1209,-4.92149 -31.321,-11.43017 -7.3018,-5.2135 -13.4328,-11.98203 -18.2886,-19.50401 -4.1084,-6.36198 -7.1401,-13.36191 -9.4209,-20.56929 -5.5102,-16.88039 -8.1908,-31.07222 -8.5313,-48.80646 -0.2587,-11.47666 -0.2577,-22.97038 0.4205,-34.43323 1.1131,-16.60758 4.3551,-28.67729 10.2056,-44.28062 2.8739,-7.52919 6.8195,-14.66456 11.8722,-20.95411 6.6887,-8.4402 15.3221,-15.50434 25.3776,-19.5152 11.4869,-4.68622 24.0319,-6.08697 36.3474,-6.17572 z"
       sodipodi:nodetypes="ssccccccccccccccccccccccccccccccccccccccccccccccccccccccccccccccccccccccccccccccccccssccccccccccccccccccccc" /><path
       id="path28520"
       style="font-weight:300;-inkscape-font-specification:'Rubik Light';fill:#23262a;fill-opacity:1;stroke-width:142.044"
       d="m 1631.4432,66.252046 c -2.8171,0.04055 -5.6335,0.136669 -8.4462,0.302273 -0.4385,0.02628 -1.2466,0.08146 -1.8267,0.118813 -22.1992,1.533677 -44.3274,7.344825 -63.6469,18.567947 -20.6312,11.947342 -37.8999,29.451351 -50.0451,49.930241 -2.1845,3.64471 -4.2213,7.37699 -6.1259,11.17532 -0.1662,0.3309 -0.5224,1.06212 -0.7613,1.54628 -10.2489,21.0531 -16.2449,44.01972 -18.8551,67.2419 -1.4755,13.19209 -1.7011,26.4834 -1.6119,39.74549 0.011,4.76601 0.085,9.53203 0.2579,14.29499 0.042,0.86738 0.082,2.01578 0.1295,2.99243 0.084,1.79581 0.1888,3.59055 0.3056,5.38457 0.043,0.62745 0.1134,1.57341 0.1667,2.32307 0.1072,1.33841 0.2357,2.95073 0.3812,4.41857 0.5841,6.35519 1.524,12.67248 2.6461,18.95347 0.1469,0.79505 0.3422,1.87387 0.5223,2.77753 2.6643,13.72029 6.6115,27.21044 12.0635,40.08746 0.1636,0.36849 0.4693,1.08654 0.6874,1.58883 0.3859,0.88333 0.8216,1.87265 1.1675,2.62393 0.8298,1.82823 1.6963,3.63946 2.5868,5.43878 0.1797,0.34506 0.5348,1.05584 0.7818,1.54089 4.9217,9.6291 10.735,18.80985 17.4296,27.30595 0.2574,0.31439 0.7403,0.92553 1.084,1.35349 9.0216,11.17964 19.6758,21.09971 31.7974,28.84639 3.8731,2.49148 7.8774,4.77777 11.9879,6.85454 0.2971,0.15068 1.0607,0.52502 1.5365,0.76144 5.8692,2.86599 11.95,5.29515 18.1728,7.27863 0.3312,0.10561 1.1305,0.35054 1.6409,0.50952 9.3821,2.82272 19.0416,4.68959 28.779,5.74195 0.5268,0.0484 1.3842,0.14332 2.0408,0.20525 14.2363,1.34296 28.614,1.03172 42.8078,-0.64937 15.7747,-1.93154 31.3088,-5.98529 45.9142,-12.27407 3.4111,-1.44146 6.7738,-2.99672 10.0846,-4.65576 0.2771,-0.14912 1.0519,-0.54232 1.5199,-0.78506 9.1123,-4.68192 17.7171,-10.33545 25.662,-16.80172 10.0947,-8.07993 19.3772,-17.34514 26.4674,-28.21094 4.7419,-7.28709 8.848,-15.24807 10.172,-23.93225 0.6626,-4.20085 0.5763,-8.5721 -0.7676,-12.63649 -1.3884,-4.4153 -4.0439,-8.42144 -7.616,-11.37227 -9.7786,-7.51382 -21.0003,-9.16061 -32.0662,-9.25784 -6.2901,0.18736 -12.7675,2.78296 -18.0407,6.38799 -4.6558,3.08226 -8.1614,7.53074 -11.3276,12.05722 -2.5007,3.46689 -5.2653,6.7491 -8.3911,9.6706 -4.4415,4.50255 -9.4608,8.44636 -14.9813,11.54427 -6.0808,3.57826 -12.4404,6.71592 -19.0629,9.15925 -9.0155,3.13702 -18.6062,4.15383 -28.0959,4.51265 -10.8874,0.35869 -21.9715,-0.73748 -32.2225,-4.59839 -8.2474,-3.02881 -15.755,-7.87569 -22.198,-13.82141 -9.0181,-8.20761 -16.3833,-18.19925 -21.6153,-29.21075 -4.7349,-9.90437 -8.003,-14.41976 -9.9951,-25.20594 -1.8066,-7.68684 5.0431,-12.97301 10.7958,-12.97396 67.9003,-0.0111 129.4892,0.0133 197.389,-0.0783 11.614,-0.55063 22.6063,-8.58456 26.316,-19.66113 1.617,-4.57632 1.8327,-9.49406 1.6483,-14.30084 0.098,-17.03741 -0.8263,-34.13317 -3.8113,-50.92817 -0.125,-0.69003 -0.306,-1.68083 -0.4618,-2.48621 -0.4453,-2.32835 -0.9302,-4.64907 -1.4444,-6.96317 -0.1333,-0.58647 -0.3398,-1.49172 -0.5063,-2.20018 -0.4913,-2.0683 -1.0112,-4.12972 -1.5634,-6.1826 -0.1947,-0.68439 -0.4527,-1.66648 -0.6843,-2.46413 -5.2064,-18.34608 -13.0361,-36.02572 -23.795,-51.80369 -4.2819,-6.22986 -9.0608,-12.11802 -14.2887,-17.57878 -0.2655,-0.26646 -0.7877,-0.81334 -1.1532,-1.18597 -8.3028,-8.47658 -17.7819,-15.787376 -28.0555,-21.71937 -0.3233,-0.188442 -1.0289,-0.585168 -1.4985,-0.853349 -8.9389,-5.005377 -18.4511,-8.972803 -28.2744,-11.874839 -0.3659,-0.100613 -1.1375,-0.327205 -1.6587,-0.476046 -4.0521,-1.14558 -8.2983,-2.126171 -12.348,-2.887461 -2.3349,-0.447581 -4.6787,-0.846638 -7.0293,-1.203315 -0.3585,-0.04564 -1.1719,-0.165615 -1.7047,-0.239718 -9.5912,-1.334189 -19.2857,-1.852428 -28.9654,-1.768375 z m 2.0524,67.999834 c 11.6892,-0.0375 23.5303,1.65801 34.3368,6.26852 9.749,4.16316 18.6021,10.37155 25.9756,17.97539 10.0985,10.5605 16.8514,23.97566 20.7147,37.98661 4.2508,16.90297 0.8232,19.87795 -14.2168,19.87795 -42.4393,0 -84.8786,-1e-5 -127.3179,-1e-5 -20.3278,-0.28812 -22.1635,-4.38162 -18.7874,-18.15734 2.7422,-11.38794 7.279,-22.45588 14.2089,-31.95505 8.6269,-11.97445 20.6674,-21.56407 34.5135,-26.77736 9.7371,-3.68743 20.199,-5.13792 30.5726,-5.21871 z"
       sodipodi:nodetypes="sccccsccccccccccccccccccccsccscccccccccccccccccccccccccccccccccccccccsscccccccccc" /></g><text
     xml:space="preserve"
     transform="matrix(1.0535434,0,0,0.92179415,-18.064477,7.2867248)"
     id="text30525"
     style="fill:black;fill-opacity:1;line-height:1.25;stroke:none;font-family:sans-serif;font-style:normal;font-weight:normal;font-size:40px;white-space:pre;shape-inside:url(#rect30527)" /></g></svg>
