<?xml version="1.0" encoding="UTF-8" standalone="no"?>
<svg
   version="1.1"
   id="Layer_1"
   x="0px"
   y="0px"
   viewBox="0 0 512 256"
   xml:space="preserve"
   width="512"
   height="256"
   sodipodi:docname="sage.svg"
   inkscape:version="1.1.2 (0a00cf5339, 2022-02-04)"
   inkscape:export-filename="/home/doruk/Code/sage/resources/sage-S.png"
   inkscape:export-xdpi="48"
   inkscape:export-ydpi="48"
   xmlns:inkscape="http://www.inkscape.org/namespaces/inkscape"
   xmlns:sodipodi="http://sodipodi.sourceforge.net/DTD/sodipodi-0.dtd"
   xmlns:xlink="http://www.w3.org/1999/xlink"
   xmlns="http://www.w3.org/2000/svg"
   xmlns:svg="http://www.w3.org/2000/svg"
   xmlns:rdf="http://www.w3.org/1999/02/22-rdf-syntax-ns#"
   xmlns:cc="http://creativecommons.org/ns#"
   xmlns:dc="http://purl.org/dc/elements/1.1/"><metadata
   id="metadata9"><rdf:RDF><cc:Work
       rdf:about=""><dc:format>image/svg+xml</dc:format><dc:type
         rdf:resource="http://purl.org/dc/dcmitype/StillImage" /></cc:Work></rdf:RDF></metadata><defs
   id="defs7"><rect
     x="3252.9663"
     y="2670.2026"
     width="1625.3906"
     height="794.2627"
     id="rect30527" /><linearGradient
     inkscape:collect="always"
     id="linearGradient22659"><stop
       style="stop-color:#33cc4d;stop-opacity:1"
       offset="0"
       id="stop22655" /><stop
       style="stop-color:#d3e79d;stop-opacity:1"
       offset="1"
       id="stop22657" /></linearGradient><symbol
     id="u"
     overflow="visible"><path
       d="m 18.766,-1.125 c -0.96875,0.5 -1.9805,0.875 -3.0312,1.125 -1.043,0.25781 -2.1367,0.39062 -3.2812,0.39062 -3.3984,0 -6.0898,-0.94531 -8.0781,-2.8438 -1.9922,-1.9062 -2.9844,-4.4844 -2.9844,-7.7344 0,-3.2578 0.99219,-5.8359 2.9844,-7.7344 1.9883,-1.9062 4.6797,-2.8594 8.0781,-2.8594 1.1445,0 2.2383,0.13281 3.2812,0.39062 1.0508,0.25 2.0625,0.625 3.0312,1.125 v 4.2188 c -0.98047,-0.65625 -1.9453,-1.1406 -2.8906,-1.4531 -0.94922,-0.3125 -1.9492,-0.46875 -3,-0.46875 -1.875,0 -3.3516,0.60547 -4.4219,1.8125 -1.0742,1.1992 -1.6094,2.8555 -1.6094,4.9688 0,2.1055 0.53516,3.7617 1.6094,4.9688 1.0703,1.1992 2.5469,1.7969 4.4219,1.7969 1.0508,0 2.0508,-0.14844 3,-0.45312 0.94531,-0.3125 1.9102,-0.80078 2.8906,-1.4688 z"
       id="path1724" /></symbol><symbol
     id="c"
     overflow="visible"><path
       d="m 13.734,-11.141 c -0.4375,-0.19531 -0.87109,-0.34375 -1.2969,-0.4375 -0.41797,-0.10156 -0.83984,-0.15625 -1.2656,-0.15625 -1.2617,0 -2.2305,0.40625 -2.9062,1.2188 -0.67969,0.80469 -1.0156,1.9531 -1.0156,3.4531 v 7.0625 H 2.3591 v -15.312 h 4.8906 v 2.5156 c 0.625,-1 1.3438,-1.7266 2.1562,-2.1875 0.82031,-0.46875 1.8008,-0.70312 2.9375,-0.70312 0.16406,0 0.34375,0.01172 0.53125,0.03125 0.19531,0.01172 0.47656,0.03906 0.84375,0.07813 z"
       id="path1727" /></symbol><symbol
     id="a"
     overflow="visible"><path
       d="m 17.641,-7.7031 v 1.4062 H 6.188 c 0.125,1.1484 0.53906,2.0078 1.25,2.5781 0.70703,0.57422 1.7031,0.85938 2.9844,0.85938 1.0312,0 2.082,-0.14844 3.1562,-0.45312 1.082,-0.3125 2.1914,-0.77344 3.3281,-1.3906 v 3.7656 c -1.1562,0.4375 -2.3125,0.76562 -3.4688,0.98438 -1.1562,0.22656 -2.3125,0.34375 -3.4688,0.34375 -2.7734,0 -4.9297,-0.70312 -6.4688,-2.1094 -1.5312,-1.4062 -2.2969,-3.3789 -2.2969,-5.9219 0,-2.5 0.75391,-4.4609 2.2656,-5.8906 1.5078,-1.4375 3.582,-2.1562 6.2188,-2.1562 2.4062,0 4.332,0.73047 5.7812,2.1875 1.4453,1.4492 2.1719,3.3828 2.1719,5.7969 z m -5.0312,-1.625 c 0,-0.92578 -0.27344,-1.6719 -0.8125,-2.2344 -0.54297,-0.57031 -1.25,-0.85938 -2.125,-0.85938 -0.94922,0 -1.7188,0.26562 -2.3125,0.79688 -0.5937,0.53126 -0.96484,1.2969 -1.1094,2.2969 z"
       id="path1730" /></symbol><symbol
     id="j"
     overflow="visible"><path
       d="m 9.2188,-6.8906 c -1.0234,0 -1.793,0.17188 -2.3125,0.51562 -0.51172,0.34375 -0.76562,0.85547 -0.76562,1.5312 0,0.625 0.20703,1.1172 0.625,1.4688 0.41406,0.34375 0.98828,0.51562 1.7188,0.51562 0.92578,0 1.7031,-0.32812 2.3281,-0.98438 0.63281,-0.66406 0.95312,-1.4922 0.95312,-2.4844 v -0.5625 z m 7.4688,-1.8438 V 0 h -4.9219 v -2.2656 c -0.65625,0.92969 -1.3984,1.6055 -2.2188,2.0312 -0.82422,0.41406 -1.8242,0.625 -3,0.625 -1.5859,0 -2.8711,-0.45703 -3.8594,-1.375 -0.99219,-0.92578 -1.4844,-2.1289 -1.4844,-3.6094 0,-1.7891 0.61328,-3.1016 1.8438,-3.9375 1.2383,-0.84375 3.1797,-1.2656 5.8281,-1.2656 h 2.8906 v -0.39062 c 0,-0.76953 -0.30859,-1.332 -0.92188,-1.6875 -0.61719,-0.36328 -1.5703,-0.54688 -2.8594,-0.54688 -1.0547,0 -2.0312,0.10547 -2.9375,0.3125 -0.89844,0.21094 -1.7305,0.52344 -2.5,0.9375 v -3.7344 c 1.0391,-0.25 2.0859,-0.44141 3.1406,-0.57812 1.0625,-0.13281 2.125,-0.20312 3.1875,-0.20312 2.7578,0 4.75,0.54688 5.9688,1.6406 1.2266,1.0859 1.8438,2.8555 1.8438,5.3125 z"
       id="path1733" /></symbol><symbol
     id="b"
     overflow="visible"><path
       d="m 7.7031,-19.656 v 4.3438 H 12.75 v 3.5 H 7.7031 v 6.5 c 0,0.71094 0.14062,1.1875 0.42188,1.4375 0.28126,0.25 0.83594,0.375 1.6719,0.375 h 2.5156 v 3.5 h -4.1875 c -1.9375,0 -3.3125,-0.39844 -4.125,-1.2031 -0.80469,-0.8125 -1.2031,-2.1797 -1.2031,-4.1094 v -6.5 h -2.4219 v -3.5 h 2.4219 v -4.3438 z"
       id="path1736" /></symbol><symbol
     id="i"
     overflow="visible"><path
       d="m 12.766,-13.078 v -8.2031 h 4.9219 V -1e-4 H 12.766 v -2.2188 c -0.66797,0.90625 -1.4062,1.5703 -2.2188,1.9844 -0.8126,0.4141 -1.7578,0.625 -2.8281,0.625 -1.8867,0 -3.4336,-0.75 -4.6406,-2.25 -1.2109,-1.5 -1.8125,-3.4258 -1.8125,-5.7812 0,-2.3633 0.60156,-4.2969 1.8125,-5.7969 1.207,-1.5 2.7539,-2.25 4.6406,-2.25 1.0625,0 2,0.21484 2.8125,0.64062 0.82031,0.42969 1.5664,1.0859 2.2344,1.9688 z m -3.2188,9.9219 c 1.0391,0 1.8359,-0.37891 2.3906,-1.1406 0.55078,-0.76953 0.82812,-1.8828 0.82812,-3.3438 0,-1.457 -0.27734,-2.5664 -0.82812,-3.3281 -0.55469,-0.76953 -1.3516,-1.1562 -2.3906,-1.1562 -1.043,0 -1.8398,0.38672 -2.3906,1.1562 -0.55469,0.76172 -0.82812,1.8711 -0.82812,3.3281 0,1.4609 0.27344,2.5742 0.82812,3.3438 0.55078,0.76172 1.3477,1.1406 2.3906,1.1406 z"
       id="path1739" /></symbol><symbol
     id="h"
     overflow="visible"><path
       d="m 10.5,-3.1562 c 1.0508,0 1.8516,-0.37891 2.4062,-1.1406 0.55078,-0.76953 0.82812,-1.8828 0.82812,-3.3438 0,-1.457 -0.27734,-2.5664 -0.82812,-3.3281 -0.55469,-0.76953 -1.3555,-1.1562 -2.4062,-1.1562 -1.0547,0 -1.8594,0.38672 -2.4219,1.1562 -0.55469,0.77344 -0.82812,1.8828 -0.82812,3.3281 0,1.4492 0.27344,2.5586 0.82812,3.3281 0.5625,0.77344 1.3672,1.1562 2.4219,1.1562 z m -3.25,-9.9219 c 0.67578,-0.88281 1.4219,-1.5391 2.2344,-1.9688 0.82031,-0.42578 1.7656,-0.64062 2.8281,-0.64062 1.8945,0 3.4453,0.75 4.6562,2.25 1.207,1.5 1.8125,3.4336 1.8125,5.7969 0,2.3555 -0.60547,4.2812 -1.8125,5.7812 -1.2109,1.5 -2.7617,2.25 -4.6562,2.25 -1.0625,0 -2.0078,-0.21094 -2.8281,-0.625 C 8.6719,-0.6602 7.9258,-1.32032 7.25,-2.21882 V -2e-5 H 2.3594 v -21.281 H 7.25 Z"
       id="path1742" /></symbol><symbol
     id="g"
     overflow="visible"><path
       d="m 0.34375,-15.312 h 4.8906 l 4.125,10.391 3.5,-10.391 h 4.8906 l -6.4375,16.766 c -0.64844,1.6953 -1.4023,2.8828 -2.2656,3.5625 -0.86719,0.6875 -2,1.0312 -3.4062,1.0312 H 2.79685 V 2.8289 h 1.5312 c 0.83203,0 1.4375,-0.13672 1.8125,-0.40625 C 6.52336,2.16093 6.82024,1.69218 7.03117,1.01645 L 7.17179,0.59457 Z"
       id="path1745" /></symbol><symbol
     id="f"
     overflow="visible"><path
       d="M 2.3594,-21.281 H 7.25 V 0 H 2.3594 Z"
       id="path1748" /></symbol><symbol
     id="e"
     overflow="visible"><path
       d="M 2.3594,-15.312 H 7.25 V 0 H 2.3594 Z m 0,-5.9688 H 7.25 v 4 H 2.3594 Z"
       id="path1751" /></symbol><symbol
     id="t"
     overflow="visible"><path
       d="M 7.25,-2.2188 V 5.8281 H 2.3594 v -21.141 H 7.25 v 2.2344 c 0.67578,-0.88281 1.4219,-1.5391 2.2344,-1.9688 0.82031,-0.42578 1.7656,-0.64062 2.8281,-0.64062 1.8945,0 3.4453,0.75 4.6562,2.25 1.207,1.5 1.8125,3.4336 1.8125,5.7969 0,2.3555 -0.60547,4.2812 -1.8125,5.7812 -1.2109,1.5 -2.7617,2.25 -4.6562,2.25 -1.0625,0 -2.0078,-0.21094 -2.8281,-0.625 C 8.6719,-0.6606 7.9258,-1.32072 7.25,-2.21922 Z m 3.25,-9.9062 c -1.0547,0 -1.8594,0.38672 -2.4219,1.1562 -0.55469,0.77344 -0.82812,1.8828 -0.82812,3.3281 0,1.4492 0.27344,2.5586 0.82812,3.3281 0.5625,0.77344 1.3672,1.1562 2.4219,1.1562 1.0508,0 1.8516,-0.37891 2.4062,-1.1406 0.55078,-0.76953 0.82812,-1.8828 0.82812,-3.3438 0,-1.457 -0.27734,-2.5664 -0.82812,-3.3281 -0.55469,-0.76953 -1.3555,-1.1562 -2.4062,-1.1562 z"
       id="path1754" /></symbol><symbol
     id="s"
     overflow="visible"><path
       d="m 12.422,-21.281 v 3.2188 H 9.7189 c -0.6875,0 -1.1719,0.125 -1.4531,0.375 -0.27344,0.25 -0.40625,0.6875 -0.40625,1.3125 v 1.0625 h 4.1875 v 3.5 H 7.85955 V -2e-4 h -4.8906 v -11.812 h -2.4375 v -3.5 h 2.4375 v -1.0625 c 0,-1.6641 0.46094,-2.8984 1.3906,-3.7031 0.92578,-0.80078 2.3672,-1.2031 4.3281,-1.2031 z"
       id="path1757" /></symbol><symbol
     id="d"
     overflow="visible"><path
       d="m 9.6406,-12.188 c -1.0859,0 -1.9141,0.39062 -2.4844,1.1719 -0.57422,0.78125 -0.85938,1.9062 -0.85938,3.375 0,1.4688 0.28516,2.5938 0.85938,3.375 0.57031,0.77344 1.3984,1.1562 2.4844,1.1562 1.0625,0 1.875,-0.38281 2.4375,-1.1562 0.57031,-0.78125 0.85938,-1.9062 0.85938,-3.375 0,-1.4688 -0.28906,-2.5938 -0.85938,-3.375 -0.5625,-0.78125 -1.375,-1.1719 -2.4375,-1.1719 z m 0,-3.5 c 2.6328,0 4.6914,0.71484 6.1719,2.1406 1.4766,1.418 2.2188,3.3867 2.2188,5.9062 0,2.5117 -0.74219,4.4805 -2.2188,5.9062 C 14.332,-0.317 12.2734,0.39 9.6406,0.39 6.9922,0.39 4.9258,-0.31703 3.4375,-1.735 1.9453,-3.1608 1.2031,-5.1295 1.2031,-7.6412 c 0,-2.5195 0.74219,-4.4883 2.2344,-5.9062 1.4883,-1.4258 3.5547,-2.1406 6.2031,-2.1406 z"
       id="path1760" /></symbol><symbol
     id="r"
     overflow="visible"><path
       d="m 16.547,-12.766 c 0.61328,-0.94531 1.3477,-1.6719 2.2031,-2.1719 0.85156,-0.5 1.7891,-0.75 2.8125,-0.75 1.7578,0 3.0977,0.54688 4.0156,1.6406 0.92578,1.0859 1.3906,2.6562 1.3906,4.7188 V -4e-4 h -4.9219 v -7.9844 -0.35938 c 0.0078,-0.13281 0.01563,-0.32031 0.01563,-0.5625 0,-1.082 -0.16406,-1.8633 -0.48438,-2.3438 -0.3125,-0.48828 -0.82422,-0.73438 -1.5312,-0.73438 -0.92969,0 -1.6484,0.38672 -2.1562,1.1562 -0.51172,0.76172 -0.77344,1.8672 -0.78125,3.3125 v 7.5156 h -4.9219 v -7.9844 c 0,-1.6953 -0.14844,-2.7852 -0.4375,-3.2656 -0.29297,-0.48828 -0.8125,-0.73438 -1.5625,-0.73438 -0.9375,0 -1.6641,0.38672 -2.1719,1.1562 -0.51172,0.76172 -0.76562,1.8594 -0.76562,3.2969 v 7.5312 h -4.9219 v -15.312 h 4.9219 v 2.2344 c 0.60156,-0.86328 1.2891,-1.5156 2.0625,-1.9531 0.78125,-0.4375 1.6406,-0.65625 2.5781,-0.65625 1.0625,0 2,0.25781 2.8125,0.76562 0.8125,0.51172 1.4258,1.2305 1.8438,2.1562 z"
       id="path1763" /></symbol><symbol
     id="q"
     overflow="visible"><path
       d="M 17.75,-9.3281 V 0 h -4.9219 v -7.1094 c 0,-1.3438 -0.03125,-2.2656 -0.09375,-2.7656 -0.0625,-0.5 -0.16797,-0.86719 -0.3125,-1.1094 -0.1875,-0.3125 -0.44922,-0.55469 -0.78125,-0.73438 -0.32422,-0.17578 -0.69531,-0.26562 -1.1094,-0.26562 -1.0234,0 -1.8242,0.39844 -2.4062,1.1875 -0.58594,0.78125 -0.875,1.8711 -0.875,3.2656 V -1e-4 H 2.3594 v -21.281 H 7.25 v 8.2031 c 0.73828,-0.88281 1.5195,-1.5391 2.3438,-1.9688 0.83203,-0.42578 1.75,-0.64062 2.75,-0.64062 1.7695,0 3.1133,0.54688 4.0312,1.6406 0.91406,1.0859 1.375,2.6562 1.375,4.7188 z"
       id="path1766" /></symbol><symbol
     id="p"
     overflow="visible"><path
       d="m 2.5781,-20.406 h 5.875 l 7.4219,14 v -14 h 4.9844 V 0 h -5.875 L 7.5625,-14 V 0 H 2.5781 Z"
       id="path1769" /></symbol><symbol
     id="o"
     overflow="visible"><path
       d="m 2.1875,-5.9688 v -9.3438 h 4.9219 v 1.5312 c 0,0.83594 -0.00781,1.875 -0.015625,3.125 -0.011719,1.25 -0.015625,2.0859 -0.015625,2.5 0,1.2422 0.03125,2.1328 0.09375,2.6719 0.070313,0.54297 0.17969,0.93359 0.32812,1.1719 0.20703,0.32422 0.47266,0.57422 0.79688,0.75 0.32031,0.16797 0.69141,0.25 1.1094,0.25 1.0195,0 1.8203,-0.39062 2.4062,-1.1719 0.58203,-0.78125 0.875,-1.8672 0.875,-3.2656 v -7.5625 h 4.8906 V -6e-4 H 12.6875 V -2.2194 C 11.94531,-1.32096 11.1641,-0.6608 10.3437,-0.235 9.51948,0.17906 8.6093,0.39 7.6093,0.39 5.8476,0.39 4.5038,-0.14906 3.5781,-1.235 2.64841,-2.317 2.1875,-3.8952 2.1875,-5.9694 Z"
       id="path1772" /></symbol><symbol
     id="n"
     overflow="visible"><path
       d="M 17.75,-9.3281 V 0 h -4.9219 v -7.1406 c 0,-1.3203 -0.03125,-2.2344 -0.09375,-2.7344 -0.0625,-0.5 -0.16797,-0.86719 -0.3125,-1.1094 -0.1875,-0.3125 -0.44922,-0.55469 -0.78125,-0.73438 -0.32422,-0.17578 -0.69531,-0.26562 -1.1094,-0.26562 -1.0234,0 -1.8242,0.39844 -2.4062,1.1875 -0.58594,0.78125 -0.875,1.8711 -0.875,3.2656 V -1e-4 H 2.3594 v -15.312 H 7.25 v 2.2344 c 0.73828,-0.88281 1.5195,-1.5391 2.3438,-1.9688 0.83203,-0.42578 1.75,-0.64062 2.75,-0.64062 1.7695,0 3.1133,0.54688 4.0312,1.6406 0.91406,1.0859 1.375,2.6562 1.375,4.7188 z"
       id="path1775" /></symbol><symbol
     id="m"
     overflow="visible"><path
       d="m 2.5781,-20.406 h 8.7344 c 2.5938,0 4.582,0.57812 5.9688,1.7344 1.3945,1.1484 2.0938,2.7891 2.0938,4.9219 0,2.1367 -0.69922,3.7812 -2.0938,4.9375 -1.3867,1.1562 -3.375,1.7344 -5.9688,1.7344 H 7.8281 V 3e-4 h -5.25 z m 5.25,3.8125 v 5.7031 H 10.75 c 1.0195,0 1.8047,-0.25 2.3594,-0.75 0.5625,-0.5 0.84375,-1.2031 0.84375,-2.1094 0,-0.91406 -0.28125,-1.6172 -0.84375,-2.1094 -0.55469,-0.48828 -1.3398,-0.73438 -2.3594,-0.73438 z"
       id="path1778" /></symbol><symbol
     id="l"
     overflow="visible"><path
       d="M 2.3594,-15.312 H 7.25 v 15.031 c 0,2.0508 -0.49609,3.6172 -1.4844,4.7031 -0.98047,1.082 -2.4062,1.625 -4.2812,1.625 H -0.9375 V 2.8283 h 0.85938 c 0.92578,0 1.5625,-0.21094 1.9062,-0.625 0.35156,-0.41797 0.53125,-1.2461 0.53125,-2.4844 z m 0,-5.9688 H 7.25 v 4 H 2.3594 Z"
       id="path1781" /></symbol><symbol
     id="k"
     overflow="visible"><path
       d="m 14.719,-14.828 v 3.9844 c -0.65625,-0.45703 -1.3242,-0.79688 -2,-1.0156 -0.66797,-0.21875 -1.3594,-0.32812 -2.0781,-0.32812 -1.3672,0 -2.4336,0.40234 -3.2031,1.2031 -0.76172,0.79297 -1.1406,1.9062 -1.1406,3.3438 0,1.4297 0.37891,2.543 1.1406,3.3438 0.76953,0.79297 1.8359,1.1875 3.2031,1.1875 0.75781,0 1.4844,-0.10938 2.1719,-0.32812 0.6875,-0.22656 1.3203,-0.56641 1.9062,-1.0156 v 4 c -0.76172,0.28125 -1.5391,0.48828 -2.3281,0.625 -0.78125,0.14453 -1.5742,0.21875 -2.375,0.21875 -2.7617,0 -4.9219,-0.70703 -6.4844,-2.125 -1.5547,-1.4141 -2.3281,-3.3828 -2.3281,-5.9062 0,-2.5312 0.77344,-4.5039 2.3281,-5.9219 1.5625,-1.4141 3.7227,-2.125 6.4844,-2.125 0.80078,0 1.5938,0.07422 2.375,0.21875 0.78125,0.13672 1.5547,0.35156 2.3281,0.64062 z"
       id="path1784" /></symbol><symbol
     id="h-3"
     overflow="visible"><path
       d="m 18.766,-1.125 c -0.96875,0.5 -1.9805,0.875 -3.0312,1.125 -1.043,0.25781 -2.1367,0.39062 -3.2812,0.39062 -3.3984,0 -6.0898,-0.94531 -8.0781,-2.8438 -1.9922,-1.9062 -2.9844,-4.4844 -2.9844,-7.7344 0,-3.2578 0.99219,-5.8359 2.9844,-7.7344 1.9883,-1.9062 4.6797,-2.8594 8.0781,-2.8594 1.1445,0 2.2383,0.13281 3.2812,0.39062 1.0508,0.25 2.0625,0.625 3.0312,1.125 v 4.2188 c -0.98047,-0.65625 -1.9453,-1.1406 -2.8906,-1.4531 -0.94922,-0.3125 -1.9492,-0.46875 -3,-0.46875 -1.875,0 -3.3516,0.60547 -4.4219,1.8125 -1.0742,1.1992 -1.6094,2.8555 -1.6094,4.9688 0,2.1055 0.53516,3.7617 1.6094,4.9688 1.0703,1.1992 2.5469,1.7969 4.4219,1.7969 1.0508,0 2.0508,-0.14844 3,-0.45312 0.94531,-0.3125 1.9102,-0.80078 2.8906,-1.4688 z"
       id="path1937" /></symbol><symbol
     id="c-6"
     overflow="visible"><path
       d="m 13.734,-11.141 c -0.4375,-0.19531 -0.87109,-0.34375 -1.2969,-0.4375 -0.41797,-0.10156 -0.83984,-0.15625 -1.2656,-0.15625 -1.2617,0 -2.2305,0.40625 -2.9062,1.2188 -0.67969,0.80469 -1.0156,1.9531 -1.0156,3.4531 v 7.0625 H 2.3591 v -15.312 h 4.8906 v 2.5156 c 0.625,-1 1.3438,-1.7266 2.1562,-2.1875 0.82031,-0.46875 1.8008,-0.70312 2.9375,-0.70312 0.16406,0 0.34375,0.01172 0.53125,0.03125 0.19531,0.01172 0.47656,0.03906 0.84375,0.07813 z"
       id="path1940" /></symbol><symbol
     id="a-7"
     overflow="visible"><path
       d="m 17.641,-7.7031 v 1.4062 H 6.188 c 0.125,1.1484 0.53906,2.0078 1.25,2.5781 0.70703,0.57422 1.7031,0.85938 2.9844,0.85938 1.0312,0 2.082,-0.14844 3.1562,-0.45312 1.082,-0.3125 2.1914,-0.77344 3.3281,-1.3906 v 3.7656 c -1.1562,0.4375 -2.3125,0.76562 -3.4688,0.98438 -1.1562,0.22656 -2.3125,0.34375 -3.4688,0.34375 -2.7734,0 -4.9297,-0.70312 -6.4688,-2.1094 -1.5312,-1.4062 -2.2969,-3.3789 -2.2969,-5.9219 0,-2.5 0.75391,-4.4609 2.2656,-5.8906 1.5078,-1.4375 3.582,-2.1562 6.2188,-2.1562 2.4062,0 4.332,0.73047 5.7812,2.1875 1.4453,1.4492 2.1719,3.3828 2.1719,5.7969 z m -5.0312,-1.625 c 0,-0.92578 -0.27344,-1.6719 -0.8125,-2.2344 -0.54297,-0.57031 -1.25,-0.85938 -2.125,-0.85938 -0.94922,0 -1.7188,0.26562 -2.3125,0.79688 -0.5937,0.53126 -0.96484,1.2969 -1.1094,2.2969 z"
       id="path1943" /></symbol><symbol
     id="l-5"
     overflow="visible"><path
       d="m 9.2188,-6.8906 c -1.0234,0 -1.793,0.17188 -2.3125,0.51562 -0.51172,0.34375 -0.76562,0.85547 -0.76562,1.5312 0,0.625 0.20703,1.1172 0.625,1.4688 0.41406,0.34375 0.98828,0.51562 1.7188,0.51562 0.92578,0 1.7031,-0.32812 2.3281,-0.98438 0.63281,-0.66406 0.95312,-1.4922 0.95312,-2.4844 v -0.5625 z m 7.4688,-1.8438 V 0 h -4.9219 v -2.2656 c -0.65625,0.92969 -1.3984,1.6055 -2.2188,2.0312 -0.82422,0.41406 -1.8242,0.625 -3,0.625 -1.5859,0 -2.8711,-0.45703 -3.8594,-1.375 -0.99219,-0.92578 -1.4844,-2.1289 -1.4844,-3.6094 0,-1.7891 0.61328,-3.1016 1.8438,-3.9375 1.2383,-0.84375 3.1797,-1.2656 5.8281,-1.2656 h 2.8906 v -0.39062 c 0,-0.76953 -0.30859,-1.332 -0.92188,-1.6875 -0.61719,-0.36328 -1.5703,-0.54688 -2.8594,-0.54688 -1.0547,0 -2.0312,0.10547 -2.9375,0.3125 -0.89844,0.21094 -1.7305,0.52344 -2.5,0.9375 v -3.7344 c 1.0391,-0.25 2.0859,-0.44141 3.1406,-0.57812 1.0625,-0.13281 2.125,-0.20312 3.1875,-0.20312 2.7578,0 4.75,0.54688 5.9688,1.6406 1.2266,1.0859 1.8438,2.8555 1.8438,5.3125 z"
       id="path1946" /></symbol><symbol
     id="b-3"
     overflow="visible"><path
       d="m 7.7031,-19.656 v 4.3438 H 12.75 v 3.5 H 7.7031 v 6.5 c 0,0.71094 0.14062,1.1875 0.42188,1.4375 0.28126,0.25 0.83594,0.375 1.6719,0.375 h 2.5156 v 3.5 h -4.1875 c -1.9375,0 -3.3125,-0.39844 -4.125,-1.2031 -0.80469,-0.8125 -1.2031,-2.1797 -1.2031,-4.1094 v -6.5 h -2.4219 v -3.5 h 2.4219 v -4.3438 z"
       id="path1949" /></symbol><symbol
     id="e-5"
     overflow="visible"><path
       d="m 12.766,-13.078 v -8.2031 h 4.9219 V -1e-4 H 12.766 v -2.2188 c -0.66797,0.90625 -1.4062,1.5703 -2.2188,1.9844 -0.8126,0.4141 -1.7578,0.625 -2.8281,0.625 -1.8867,0 -3.4336,-0.75 -4.6406,-2.25 -1.2109,-1.5 -1.8125,-3.4258 -1.8125,-5.7812 0,-2.3633 0.60156,-4.2969 1.8125,-5.7969 1.207,-1.5 2.7539,-2.25 4.6406,-2.25 1.0625,0 2,0.21484 2.8125,0.64062 0.82031,0.42969 1.5664,1.0859 2.2344,1.9688 z m -3.2188,9.9219 c 1.0391,0 1.8359,-0.37891 2.3906,-1.1406 0.55078,-0.76953 0.82812,-1.8828 0.82812,-3.3438 0,-1.457 -0.27734,-2.5664 -0.82812,-3.3281 -0.55469,-0.76953 -1.3516,-1.1562 -2.3906,-1.1562 -1.043,0 -1.8398,0.38672 -2.3906,1.1562 -0.55469,0.76172 -0.82812,1.8711 -0.82812,3.3281 0,1.4609 0.27344,2.5742 0.82812,3.3438 0.55078,0.76172 1.3477,1.1406 2.3906,1.1406 z"
       id="path1952" /></symbol><symbol
     id="k-6"
     overflow="visible"><path
       d="m 10.5,-3.1562 c 1.0508,0 1.8516,-0.37891 2.4062,-1.1406 0.55078,-0.76953 0.82812,-1.8828 0.82812,-3.3438 0,-1.457 -0.27734,-2.5664 -0.82812,-3.3281 -0.55469,-0.76953 -1.3555,-1.1562 -2.4062,-1.1562 -1.0547,0 -1.8594,0.38672 -2.4219,1.1562 -0.55469,0.77344 -0.82812,1.8828 -0.82812,3.3281 0,1.4492 0.27344,2.5586 0.82812,3.3281 0.5625,0.77344 1.3672,1.1562 2.4219,1.1562 z m -3.25,-9.9219 c 0.67578,-0.88281 1.4219,-1.5391 2.2344,-1.9688 0.82031,-0.42578 1.7656,-0.64062 2.8281,-0.64062 1.8945,0 3.4453,0.75 4.6562,2.25 1.207,1.5 1.8125,3.4336 1.8125,5.7969 0,2.3555 -0.60547,4.2812 -1.8125,5.7812 -1.2109,1.5 -2.7617,2.25 -4.6562,2.25 -1.0625,0 -2.0078,-0.21094 -2.8281,-0.625 C 8.6719,-0.6602 7.9258,-1.32032 7.25,-2.21882 V -2e-5 H 2.3594 v -21.281 H 7.25 Z"
       id="path1955" /></symbol><symbol
     id="j-2"
     overflow="visible"><path
       d="m 0.34375,-15.312 h 4.8906 l 4.125,10.391 3.5,-10.391 h 4.8906 l -6.4375,16.766 c -0.64844,1.6953 -1.4023,2.8828 -2.2656,3.5625 -0.86719,0.6875 -2,1.0312 -3.4062,1.0312 H 2.79685 V 2.8289 h 1.5312 c 0.83203,0 1.4375,-0.13672 1.8125,-0.40625 C 6.52336,2.16093 6.82024,1.69218 7.03117,1.01645 L 7.17179,0.59457 Z"
       id="path1958" /></symbol><symbol
     id="i-9"
     overflow="visible"><path
       d="M 14.953,-3.7188 H 6.7342 L 5.4217,0 H 0.1405 L 7.703,-20.406 h 6.2656 L 21.5311,0 H 16.2499 Z M 8.0468,-7.5 h 5.5781 l -2.7812,-8.125 z"
       id="path1961" /></symbol><symbol
     id="u-1"
     overflow="visible"><path
       d="M 2.3594,-15.312 H 7.25 V 0 H 2.3594 Z m 0,-5.9688 H 7.25 v 4 H 2.3594 Z"
       id="path1964" /></symbol><symbol
     id="g-2"
     overflow="visible"><path
       d="M 17.75,-9.3281 V 0 h -4.9219 v -7.1406 c 0,-1.3203 -0.03125,-2.2344 -0.09375,-2.7344 -0.0625,-0.5 -0.16797,-0.86719 -0.3125,-1.1094 -0.1875,-0.3125 -0.44922,-0.55469 -0.78125,-0.73438 -0.32422,-0.17578 -0.69531,-0.26562 -1.1094,-0.26562 -1.0234,0 -1.8242,0.39844 -2.4062,1.1875 -0.58594,0.78125 -0.875,1.8711 -0.875,3.2656 V -1e-4 H 2.3594 v -15.312 H 7.25 v 2.2344 c 0.73828,-0.88281 1.5195,-1.5391 2.3438,-1.9688 0.83203,-0.42578 1.75,-0.64062 2.75,-0.64062 1.7695,0 3.1133,0.54688 4.0312,1.6406 0.91406,1.0859 1.375,2.6562 1.375,4.7188 z"
       id="path1967" /></symbol><symbol
     id="d-7"
     overflow="visible"><path
       d="m 9.6406,-12.188 c -1.0859,0 -1.9141,0.39062 -2.4844,1.1719 -0.57422,0.78125 -0.85938,1.9062 -0.85938,3.375 0,1.4688 0.28516,2.5938 0.85938,3.375 0.57031,0.77344 1.3984,1.1562 2.4844,1.1562 1.0625,0 1.875,-0.38281 2.4375,-1.1562 0.57031,-0.78125 0.85938,-1.9062 0.85938,-3.375 0,-1.4688 -0.28906,-2.5938 -0.85938,-3.375 -0.5625,-0.78125 -1.375,-1.1719 -2.4375,-1.1719 z m 0,-3.5 c 2.6328,0 4.6914,0.71484 6.1719,2.1406 1.4766,1.418 2.2188,3.3867 2.2188,5.9062 0,2.5117 -0.74219,4.4805 -2.2188,5.9062 C 14.332,-0.317 12.2734,0.39 9.6406,0.39 6.9922,0.39 4.9258,-0.31703 3.4375,-1.735 1.9453,-3.1608 1.2031,-5.1295 1.2031,-7.6412 c 0,-2.5195 0.74219,-4.4883 2.2344,-5.9062 1.4883,-1.4258 3.5547,-2.1406 6.2031,-2.1406 z"
       id="path1970" /></symbol><symbol
     id="t-0"
     overflow="visible"><path
       d="m 9.5469,-12.125 c -1.043,0 -1.8398,0.38672 -2.3906,1.1562 -0.55469,0.76172 -0.82812,1.8711 -0.82812,3.3281 0,1.4609 0.27344,2.5742 0.82812,3.3438 0.55078,0.76172 1.3477,1.1406 2.3906,1.1406 1.0391,0 1.8359,-0.37891 2.3906,-1.1406 0.55078,-0.76953 0.82812,-1.8828 0.82812,-3.3438 0,-1.457 -0.27734,-2.5664 -0.82812,-3.3281 -0.55469,-0.76953 -1.3516,-1.1562 -2.3906,-1.1562 z m 3.2188,9.9062 c -0.66797,0.90625 -1.4062,1.5703 -2.2188,1.9844 -0.8126,0.4141 -1.7578,0.625 -2.8281,0.625 -1.8867,0 -3.4336,-0.75 -4.6406,-2.25 -1.2109,-1.5 -1.8125,-3.4258 -1.8125,-5.7812 0,-2.3633 0.60156,-4.2891 1.8125,-5.7812 1.207,-1.4883 2.7539,-2.2344 4.6406,-2.2344 1.0703,0 2.0156,0.21484 2.8281,0.64062 0.8125,0.41797 1.5508,1.0742 2.2188,1.9688 v -2.2656 h 4.9219 v 21.141 h -4.9219 z"
       id="path1973" /></symbol><symbol
     id="f-9"
     overflow="visible"><path
       d="m 2.1875,-5.9688 v -9.3438 h 4.9219 v 1.5312 c 0,0.83594 -0.00781,1.875 -0.015625,3.125 -0.011719,1.25 -0.015625,2.0859 -0.015625,2.5 0,1.2422 0.03125,2.1328 0.09375,2.6719 0.070313,0.54297 0.17969,0.93359 0.32812,1.1719 0.20703,0.32422 0.47266,0.57422 0.79688,0.75 0.32031,0.16797 0.69141,0.25 1.1094,0.25 1.0195,0 1.8203,-0.39062 2.4062,-1.1719 0.58203,-0.78125 0.875,-1.8672 0.875,-3.2656 v -7.5625 h 4.8906 V -6e-4 H 12.6875 V -2.2194 C 11.94531,-1.32096 11.1641,-0.6608 10.3437,-0.235 9.51948,0.17906 8.6093,0.39 7.6093,0.39 5.8476,0.39 4.5038,-0.14906 3.5781,-1.235 2.64841,-2.317 2.1875,-3.8952 2.1875,-5.9694 Z"
       id="path1976" /></symbol><symbol
     id="s-3"
     overflow="visible"><path
       d="m 12.422,-21.281 v 3.2188 H 9.7189 c -0.6875,0 -1.1719,0.125 -1.4531,0.375 -0.27344,0.25 -0.40625,0.6875 -0.40625,1.3125 v 1.0625 h 4.1875 v 3.5 H 7.85955 V -2e-4 h -4.8906 v -11.812 h -2.4375 v -3.5 h 2.4375 v -1.0625 c 0,-1.6641 0.46094,-2.8984 1.3906,-3.7031 0.92578,-0.80078 2.3672,-1.2031 4.3281,-1.2031 z"
       id="path1979" /></symbol><symbol
     id="r-6"
     overflow="visible"><path
       d="m 16.547,-12.766 c 0.61328,-0.94531 1.3477,-1.6719 2.2031,-2.1719 0.85156,-0.5 1.7891,-0.75 2.8125,-0.75 1.7578,0 3.0977,0.54688 4.0156,1.6406 0.92578,1.0859 1.3906,2.6562 1.3906,4.7188 V -4e-4 h -4.9219 v -7.9844 -0.35938 c 0.0078,-0.13281 0.01563,-0.32031 0.01563,-0.5625 0,-1.082 -0.16406,-1.8633 -0.48438,-2.3438 -0.3125,-0.48828 -0.82422,-0.73438 -1.5312,-0.73438 -0.92969,0 -1.6484,0.38672 -2.1562,1.1562 -0.51172,0.76172 -0.77344,1.8672 -0.78125,3.3125 v 7.5156 h -4.9219 v -7.9844 c 0,-1.6953 -0.14844,-2.7852 -0.4375,-3.2656 -0.29297,-0.48828 -0.8125,-0.73438 -1.5625,-0.73438 -0.9375,0 -1.6641,0.38672 -2.1719,1.1562 -0.51172,0.76172 -0.76562,1.8594 -0.76562,3.2969 v 7.5312 h -4.9219 v -15.312 h 4.9219 v 2.2344 c 0.60156,-0.86328 1.2891,-1.5156 2.0625,-1.9531 0.78125,-0.4375 1.6406,-0.65625 2.5781,-0.65625 1.0625,0 2,0.25781 2.8125,0.76562 0.8125,0.51172 1.4258,1.2305 1.8438,2.1562 z"
       id="path1982" /></symbol><symbol
     id="q-0"
     overflow="visible"><path
       d="M 17.75,-9.3281 V 0 h -4.9219 v -7.1094 c 0,-1.3438 -0.03125,-2.2656 -0.09375,-2.7656 -0.0625,-0.5 -0.16797,-0.86719 -0.3125,-1.1094 -0.1875,-0.3125 -0.44922,-0.55469 -0.78125,-0.73438 -0.32422,-0.17578 -0.69531,-0.26562 -1.1094,-0.26562 -1.0234,0 -1.8242,0.39844 -2.4062,1.1875 -0.58594,0.78125 -0.875,1.8711 -0.875,3.2656 V -1e-4 H 2.3594 v -21.281 H 7.25 v 8.2031 c 0.73828,-0.88281 1.5195,-1.5391 2.3438,-1.9688 0.83203,-0.42578 1.75,-0.64062 2.75,-0.64062 1.7695,0 3.1133,0.54688 4.0312,1.6406 0.91406,1.0859 1.375,2.6562 1.375,4.7188 z"
       id="path1985" /></symbol><symbol
     id="p-6"
     overflow="visible"><path
       d="m 2.5781,-20.406 h 5.875 l 7.4219,14 v -14 h 4.9844 V 0 h -5.875 L 7.5625,-14 V 0 H 2.5781 Z"
       id="path1988" /></symbol><symbol
     id="o-2"
     overflow="visible"><path
       d="m 2.5781,-20.406 h 8.7344 c 2.5938,0 4.582,0.57812 5.9688,1.7344 1.3945,1.1484 2.0938,2.7891 2.0938,4.9219 0,2.1367 -0.69922,3.7812 -2.0938,4.9375 -1.3867,1.1562 -3.375,1.7344 -5.9688,1.7344 H 7.8281 V 3e-4 h -5.25 z m 5.25,3.8125 v 5.7031 H 10.75 c 1.0195,0 1.8047,-0.25 2.3594,-0.75 0.5625,-0.5 0.84375,-1.2031 0.84375,-2.1094 0,-0.91406 -0.28125,-1.6172 -0.84375,-2.1094 -0.55469,-0.48828 -1.3398,-0.73438 -2.3594,-0.73438 z"
       id="path1991" /></symbol><symbol
     id="n-6"
     overflow="visible"><path
       d="M 2.3594,-15.312 H 7.25 v 15.031 c 0,2.0508 -0.49609,3.6172 -1.4844,4.7031 -0.98047,1.082 -2.4062,1.625 -4.2812,1.625 H -0.9375 V 2.8283 h 0.85938 c 0.92578,0 1.5625,-0.21094 1.9062,-0.625 0.35156,-0.41797 0.53125,-1.2461 0.53125,-2.4844 z m 0,-5.9688 H 7.25 v 4 H 2.3594 Z"
       id="path1994" /></symbol><symbol
     id="m-1"
     overflow="visible"><path
       d="m 14.719,-14.828 v 3.9844 c -0.65625,-0.45703 -1.3242,-0.79688 -2,-1.0156 -0.66797,-0.21875 -1.3594,-0.32812 -2.0781,-0.32812 -1.3672,0 -2.4336,0.40234 -3.2031,1.2031 -0.76172,0.79297 -1.1406,1.9062 -1.1406,3.3438 0,1.4297 0.37891,2.543 1.1406,3.3438 0.76953,0.79297 1.8359,1.1875 3.2031,1.1875 0.75781,0 1.4844,-0.10938 2.1719,-0.32812 0.6875,-0.22656 1.3203,-0.56641 1.9062,-1.0156 v 4 c -0.76172,0.28125 -1.5391,0.48828 -2.3281,0.625 -0.78125,0.14453 -1.5742,0.21875 -2.375,0.21875 -2.7617,0 -4.9219,-0.70703 -6.4844,-2.125 -1.5547,-1.4141 -2.3281,-3.3828 -2.3281,-5.9062 0,-2.5312 0.77344,-4.5039 2.3281,-5.9219 1.5625,-1.4141 3.7227,-2.125 6.4844,-2.125 0.80078,0 1.5938,0.07422 2.375,0.21875 0.78125,0.13672 1.5547,0.35156 2.3281,0.64062 z"
       id="path1997" /></symbol><symbol
     id="g-8"
     overflow="visible"><path
       d="m 18.766,-1.125 c -0.96875,0.5 -1.9805,0.875 -3.0312,1.125 -1.043,0.25781 -2.1367,0.39062 -3.2812,0.39062 -3.3984,0 -6.0898,-0.94531 -8.0781,-2.8438 -1.9922,-1.9062 -2.9844,-4.4844 -2.9844,-7.7344 0,-3.2578 0.99219,-5.8359 2.9844,-7.7344 1.9883,-1.9062 4.6797,-2.8594 8.0781,-2.8594 1.1445,0 2.2383,0.13281 3.2812,0.39062 1.0508,0.25 2.0625,0.625 3.0312,1.125 v 4.2188 c -0.98047,-0.65625 -1.9453,-1.1406 -2.8906,-1.4531 -0.94922,-0.3125 -1.9492,-0.46875 -3,-0.46875 -1.875,0 -3.3516,0.60547 -4.4219,1.8125 -1.0742,1.1992 -1.6094,2.8555 -1.6094,4.9688 0,2.1055 0.53516,3.7617 1.6094,4.9688 1.0703,1.1992 2.5469,1.7969 4.4219,1.7969 1.0508,0 2.0508,-0.14844 3,-0.45312 0.94531,-0.3125 1.9102,-0.80078 2.8906,-1.4688 z"
       id="path2171" /></symbol><symbol
     id="a-79"
     overflow="visible"><path
       d="m 13.734,-11.141 c -0.4375,-0.19531 -0.87109,-0.34375 -1.2969,-0.4375 -0.41797,-0.10156 -0.83984,-0.15625 -1.2656,-0.15625 -1.2617,0 -2.2305,0.40625 -2.9062,1.2188 -0.67969,0.80469 -1.0156,1.9531 -1.0156,3.4531 v 7.0625 H 2.3591 v -15.312 h 4.8906 v 2.5156 c 0.625,-1 1.3438,-1.7266 2.1562,-2.1875 0.82031,-0.46875 1.8008,-0.70312 2.9375,-0.70312 0.16406,0 0.34375,0.01172 0.53125,0.03125 0.19531,0.01172 0.47656,0.03906 0.84375,0.07813 z"
       id="path2174" /></symbol><symbol
     id="b-2"
     overflow="visible"><path
       d="m 17.641,-7.7031 v 1.4062 H 6.188 c 0.125,1.1484 0.53906,2.0078 1.25,2.5781 0.70703,0.57422 1.7031,0.85938 2.9844,0.85938 1.0312,0 2.082,-0.14844 3.1562,-0.45312 1.082,-0.3125 2.1914,-0.77344 3.3281,-1.3906 v 3.7656 c -1.1562,0.4375 -2.3125,0.76562 -3.4688,0.98438 -1.1562,0.22656 -2.3125,0.34375 -3.4688,0.34375 -2.7734,0 -4.9297,-0.70312 -6.4688,-2.1094 -1.5312,-1.4062 -2.2969,-3.3789 -2.2969,-5.9219 0,-2.5 0.75391,-4.4609 2.2656,-5.8906 1.5078,-1.4375 3.582,-2.1562 6.2188,-2.1562 2.4062,0 4.332,0.73047 5.7812,2.1875 1.4453,1.4492 2.1719,3.3828 2.1719,5.7969 z m -5.0312,-1.625 c 0,-0.92578 -0.27344,-1.6719 -0.8125,-2.2344 -0.54297,-0.57031 -1.25,-0.85938 -2.125,-0.85938 -0.94922,0 -1.7188,0.26562 -2.3125,0.79688 -0.5937,0.53126 -0.96484,1.2969 -1.1094,2.2969 z"
       id="path2177" /></symbol><symbol
     id="c-0"
     overflow="visible"><path
       d="m 9.2188,-6.8906 c -1.0234,0 -1.793,0.17188 -2.3125,0.51562 -0.51172,0.34375 -0.76562,0.85547 -0.76562,1.5312 0,0.625 0.20703,1.1172 0.625,1.4688 0.41406,0.34375 0.98828,0.51562 1.7188,0.51562 0.92578,0 1.7031,-0.32812 2.3281,-0.98438 0.63281,-0.66406 0.95312,-1.4922 0.95312,-2.4844 v -0.5625 z m 7.4688,-1.8438 V 0 h -4.9219 v -2.2656 c -0.65625,0.92969 -1.3984,1.6055 -2.2188,2.0312 -0.82422,0.41406 -1.8242,0.625 -3,0.625 -1.5859,0 -2.8711,-0.45703 -3.8594,-1.375 -0.99219,-0.92578 -1.4844,-2.1289 -1.4844,-3.6094 0,-1.7891 0.61328,-3.1016 1.8438,-3.9375 1.2383,-0.84375 3.1797,-1.2656 5.8281,-1.2656 h 2.8906 v -0.39062 c 0,-0.76953 -0.30859,-1.332 -0.92188,-1.6875 -0.61719,-0.36328 -1.5703,-0.54688 -2.8594,-0.54688 -1.0547,0 -2.0312,0.10547 -2.9375,0.3125 -0.89844,0.21094 -1.7305,0.52344 -2.5,0.9375 v -3.7344 c 1.0391,-0.25 2.0859,-0.44141 3.1406,-0.57812 1.0625,-0.13281 2.125,-0.20312 3.1875,-0.20312 2.7578,0 4.75,0.54688 5.9688,1.6406 1.2266,1.0859 1.8438,2.8555 1.8438,5.3125 z"
       id="path2180" /></symbol><symbol
     id="e-2"
     overflow="visible"><path
       d="m 7.7031,-19.656 v 4.3438 H 12.75 v 3.5 H 7.7031 v 6.5 c 0,0.71094 0.14062,1.1875 0.42188,1.4375 0.28126,0.25 0.83594,0.375 1.6719,0.375 h 2.5156 v 3.5 h -4.1875 c -1.9375,0 -3.3125,-0.39844 -4.125,-1.2031 -0.80469,-0.8125 -1.2031,-2.1797 -1.2031,-4.1094 v -6.5 h -2.4219 v -3.5 h 2.4219 v -4.3438 z"
       id="path2183" /></symbol><symbol
     id="j-3"
     overflow="visible"><path
       d="m 12.766,-13.078 v -8.2031 h 4.9219 V -1e-4 H 12.766 v -2.2188 c -0.66797,0.90625 -1.4062,1.5703 -2.2188,1.9844 -0.8126,0.4141 -1.7578,0.625 -2.8281,0.625 -1.8867,0 -3.4336,-0.75 -4.6406,-2.25 -1.2109,-1.5 -1.8125,-3.4258 -1.8125,-5.7812 0,-2.3633 0.60156,-4.2969 1.8125,-5.7969 1.207,-1.5 2.7539,-2.25 4.6406,-2.25 1.0625,0 2,0.21484 2.8125,0.64062 0.82031,0.42969 1.5664,1.0859 2.2344,1.9688 z m -3.2188,9.9219 c 1.0391,0 1.8359,-0.37891 2.3906,-1.1406 0.55078,-0.76953 0.82812,-1.8828 0.82812,-3.3438 0,-1.457 -0.27734,-2.5664 -0.82812,-3.3281 -0.55469,-0.76953 -1.3516,-1.1562 -2.3906,-1.1562 -1.043,0 -1.8398,0.38672 -2.3906,1.1562 -0.55469,0.76172 -0.82812,1.8711 -0.82812,3.3281 0,1.4609 0.27344,2.5742 0.82812,3.3438 0.55078,0.76172 1.3477,1.1406 2.3906,1.1406 z"
       id="path2186" /></symbol><symbol
     id="f-7"
     overflow="visible"><path
       d="m 10.5,-3.1562 c 1.0508,0 1.8516,-0.37891 2.4062,-1.1406 0.55078,-0.76953 0.82812,-1.8828 0.82812,-3.3438 0,-1.457 -0.27734,-2.5664 -0.82812,-3.3281 -0.55469,-0.76953 -1.3555,-1.1562 -2.4062,-1.1562 -1.0547,0 -1.8594,0.38672 -2.4219,1.1562 -0.55469,0.77344 -0.82812,1.8828 -0.82812,3.3281 0,1.4492 0.27344,2.5586 0.82812,3.3281 0.5625,0.77344 1.3672,1.1562 2.4219,1.1562 z m -3.25,-9.9219 c 0.67578,-0.88281 1.4219,-1.5391 2.2344,-1.9688 0.82031,-0.42578 1.7656,-0.64062 2.8281,-0.64062 1.8945,0 3.4453,0.75 4.6562,2.25 1.207,1.5 1.8125,3.4336 1.8125,5.7969 0,2.3555 -0.60547,4.2812 -1.8125,5.7812 -1.2109,1.5 -2.7617,2.25 -4.6562,2.25 -1.0625,0 -2.0078,-0.21094 -2.8281,-0.625 C 8.6719,-0.6602 7.9258,-1.32032 7.25,-2.21882 V -2e-5 H 2.3594 v -21.281 H 7.25 Z"
       id="path2189" /></symbol><symbol
     id="i-5"
     overflow="visible"><path
       d="m 0.34375,-15.312 h 4.8906 l 4.125,10.391 3.5,-10.391 h 4.8906 l -6.4375,16.766 c -0.64844,1.6953 -1.4023,2.8828 -2.2656,3.5625 -0.86719,0.6875 -2,1.0312 -3.4062,1.0312 H 2.79685 V 2.8289 h 1.5312 c 0.83203,0 1.4375,-0.13672 1.8125,-0.40625 C 6.52336,2.16093 6.82024,1.69218 7.03117,1.01645 L 7.17179,0.59457 Z"
       id="path2192" /></symbol><symbol
     id="h-9"
     overflow="visible"><path
       d="M 14.953,-3.7188 H 6.7342 L 5.4217,0 H 0.1405 L 7.703,-20.406 h 6.2656 L 21.5311,0 H 16.2499 Z M 8.0468,-7.5 h 5.5781 l -2.7812,-8.125 z"
       id="path2195" /></symbol><symbol
     id="u-2"
     overflow="visible"><path
       d="M 2.3594,-21.281 H 7.25 V 0 H 2.3594 Z"
       id="path2198" /></symbol><symbol
     id="t-2"
     overflow="visible"><path
       d="m 0.42188,-15.312 h 4.8906 l 3.8281,10.578 3.7969,-10.578 h 4.9062 L 11.81248,0 h -5.375 z"
       id="path2201" /></symbol><symbol
     id="d-8"
     overflow="visible"><path
       d="m 9.6406,-12.188 c -1.0859,0 -1.9141,0.39062 -2.4844,1.1719 -0.57422,0.78125 -0.85938,1.9062 -0.85938,3.375 0,1.4688 0.28516,2.5938 0.85938,3.375 0.57031,0.77344 1.3984,1.1562 2.4844,1.1562 1.0625,0 1.875,-0.38281 2.4375,-1.1562 0.57031,-0.78125 0.85938,-1.9062 0.85938,-3.375 0,-1.4688 -0.28906,-2.5938 -0.85938,-3.375 -0.5625,-0.78125 -1.375,-1.1719 -2.4375,-1.1719 z m 0,-3.5 c 2.6328,0 4.6914,0.71484 6.1719,2.1406 1.4766,1.418 2.2188,3.3867 2.2188,5.9062 0,2.5117 -0.74219,4.4805 -2.2188,5.9062 C 14.332,-0.317 12.2734,0.39 9.6406,0.39 6.9922,0.39 4.9258,-0.31703 3.4375,-1.735 1.9453,-3.1608 1.2031,-5.1295 1.2031,-7.6412 c 0,-2.5195 0.74219,-4.4883 2.2344,-5.9062 1.4883,-1.4258 3.5547,-2.1406 6.2031,-2.1406 z"
       id="path2204" /></symbol><symbol
     id="s-9"
     overflow="visible"><path
       d="m 12.422,-21.281 v 3.2188 H 9.7189 c -0.6875,0 -1.1719,0.125 -1.4531,0.375 -0.27344,0.25 -0.40625,0.6875 -0.40625,1.3125 v 1.0625 h 4.1875 v 3.5 H 7.85955 V -2e-4 h -4.8906 v -11.812 h -2.4375 v -3.5 h 2.4375 v -1.0625 c 0,-1.6641 0.46094,-2.8984 1.3906,-3.7031 0.92578,-0.80078 2.3672,-1.2031 4.3281,-1.2031 z"
       id="path2207" /></symbol><symbol
     id="r-7"
     overflow="visible"><path
       d="m 16.547,-12.766 c 0.61328,-0.94531 1.3477,-1.6719 2.2031,-2.1719 0.85156,-0.5 1.7891,-0.75 2.8125,-0.75 1.7578,0 3.0977,0.54688 4.0156,1.6406 0.92578,1.0859 1.3906,2.6562 1.3906,4.7188 V -4e-4 h -4.9219 v -7.9844 -0.35938 c 0.0078,-0.13281 0.01563,-0.32031 0.01563,-0.5625 0,-1.082 -0.16406,-1.8633 -0.48438,-2.3438 -0.3125,-0.48828 -0.82422,-0.73438 -1.5312,-0.73438 -0.92969,0 -1.6484,0.38672 -2.1562,1.1562 -0.51172,0.76172 -0.77344,1.8672 -0.78125,3.3125 v 7.5156 h -4.9219 v -7.9844 c 0,-1.6953 -0.14844,-2.7852 -0.4375,-3.2656 -0.29297,-0.48828 -0.8125,-0.73438 -1.5625,-0.73438 -0.9375,0 -1.6641,0.38672 -2.1719,1.1562 -0.51172,0.76172 -0.76562,1.8594 -0.76562,3.2969 v 7.5312 h -4.9219 v -15.312 h 4.9219 v 2.2344 c 0.60156,-0.86328 1.2891,-1.5156 2.0625,-1.9531 0.78125,-0.4375 1.6406,-0.65625 2.5781,-0.65625 1.0625,0 2,0.25781 2.8125,0.76562 0.8125,0.51172 1.4258,1.2305 1.8438,2.1562 z"
       id="path2210" /></symbol><symbol
     id="q-3"
     overflow="visible"><path
       d="M 17.75,-9.3281 V 0 h -4.9219 v -7.1094 c 0,-1.3438 -0.03125,-2.2656 -0.09375,-2.7656 -0.0625,-0.5 -0.16797,-0.86719 -0.3125,-1.1094 -0.1875,-0.3125 -0.44922,-0.55469 -0.78125,-0.73438 -0.32422,-0.17578 -0.69531,-0.26562 -1.1094,-0.26562 -1.0234,0 -1.8242,0.39844 -2.4062,1.1875 -0.58594,0.78125 -0.875,1.8711 -0.875,3.2656 V -1e-4 H 2.3594 v -21.281 H 7.25 v 8.2031 c 0.73828,-0.88281 1.5195,-1.5391 2.3438,-1.9688 0.83203,-0.42578 1.75,-0.64062 2.75,-0.64062 1.7695,0 3.1133,0.54688 4.0312,1.6406 0.91406,1.0859 1.375,2.6562 1.375,4.7188 z"
       id="path2213" /></symbol><symbol
     id="p-61"
     overflow="visible"><path
       d="m 2.5781,-20.406 h 5.875 l 7.4219,14 v -14 h 4.9844 V 0 h -5.875 L 7.5625,-14 V 0 H 2.5781 Z"
       id="path2216" /></symbol><symbol
     id="o-29"
     overflow="visible"><path
       d="m 2.1875,-5.9688 v -9.3438 h 4.9219 v 1.5312 c 0,0.83594 -0.00781,1.875 -0.015625,3.125 -0.011719,1.25 -0.015625,2.0859 -0.015625,2.5 0,1.2422 0.03125,2.1328 0.09375,2.6719 0.070313,0.54297 0.17969,0.93359 0.32812,1.1719 0.20703,0.32422 0.47266,0.57422 0.79688,0.75 0.32031,0.16797 0.69141,0.25 1.1094,0.25 1.0195,0 1.8203,-0.39062 2.4062,-1.1719 0.58203,-0.78125 0.875,-1.8672 0.875,-3.2656 v -7.5625 h 4.8906 V -6e-4 H 12.6875 V -2.2194 C 11.94531,-1.32096 11.1641,-0.6608 10.3437,-0.235 9.51948,0.17906 8.6093,0.39 7.6093,0.39 5.8476,0.39 4.5038,-0.14906 3.5781,-1.235 2.64841,-2.317 2.1875,-3.8952 2.1875,-5.9694 Z"
       id="path2219" /></symbol><symbol
     id="n-3"
     overflow="visible"><path
       d="M 17.75,-9.3281 V 0 h -4.9219 v -7.1406 c 0,-1.3203 -0.03125,-2.2344 -0.09375,-2.7344 -0.0625,-0.5 -0.16797,-0.86719 -0.3125,-1.1094 -0.1875,-0.3125 -0.44922,-0.55469 -0.78125,-0.73438 -0.32422,-0.17578 -0.69531,-0.26562 -1.1094,-0.26562 -1.0234,0 -1.8242,0.39844 -2.4062,1.1875 -0.58594,0.78125 -0.875,1.8711 -0.875,3.2656 V -1e-4 H 2.3594 v -15.312 H 7.25 v 2.2344 c 0.73828,-0.88281 1.5195,-1.5391 2.3438,-1.9688 0.83203,-0.42578 1.75,-0.64062 2.75,-0.64062 1.7695,0 3.1133,0.54688 4.0312,1.6406 0.91406,1.0859 1.375,2.6562 1.375,4.7188 z"
       id="path2222" /></symbol><symbol
     id="m-19"
     overflow="visible"><path
       d="m 2.5781,-20.406 h 8.7344 c 2.5938,0 4.582,0.57812 5.9688,1.7344 1.3945,1.1484 2.0938,2.7891 2.0938,4.9219 0,2.1367 -0.69922,3.7812 -2.0938,4.9375 -1.3867,1.1562 -3.375,1.7344 -5.9688,1.7344 H 7.8281 V 3e-4 h -5.25 z m 5.25,3.8125 v 5.7031 H 10.75 c 1.0195,0 1.8047,-0.25 2.3594,-0.75 0.5625,-0.5 0.84375,-1.2031 0.84375,-2.1094 0,-0.91406 -0.28125,-1.6172 -0.84375,-2.1094 -0.55469,-0.48828 -1.3398,-0.73438 -2.3594,-0.73438 z"
       id="path2225" /></symbol><symbol
     id="l-4"
     overflow="visible"><path
       d="M 2.3594,-15.312 H 7.25 v 15.031 c 0,2.0508 -0.49609,3.6172 -1.4844,4.7031 -0.98047,1.082 -2.4062,1.625 -4.2812,1.625 H -0.9375 V 2.8283 h 0.85938 c 0.92578,0 1.5625,-0.21094 1.9062,-0.625 0.35156,-0.41797 0.53125,-1.2461 0.53125,-2.4844 z m 0,-5.9688 H 7.25 v 4 H 2.3594 Z"
       id="path2228" /></symbol><symbol
     id="k-7"
     overflow="visible"><path
       d="m 14.719,-14.828 v 3.9844 c -0.65625,-0.45703 -1.3242,-0.79688 -2,-1.0156 -0.66797,-0.21875 -1.3594,-0.32812 -2.0781,-0.32812 -1.3672,0 -2.4336,0.40234 -3.2031,1.2031 -0.76172,0.79297 -1.1406,1.9062 -1.1406,3.3438 0,1.4297 0.37891,2.543 1.1406,3.3438 0.76953,0.79297 1.8359,1.1875 3.2031,1.1875 0.75781,0 1.4844,-0.10938 2.1719,-0.32812 0.6875,-0.22656 1.3203,-0.56641 1.9062,-1.0156 v 4 c -0.76172,0.28125 -1.5391,0.48828 -2.3281,0.625 -0.78125,0.14453 -1.5742,0.21875 -2.375,0.21875 -2.7617,0 -4.9219,-0.70703 -6.4844,-2.125 -1.5547,-1.4141 -2.3281,-3.3828 -2.3281,-5.9062 0,-2.5312 0.77344,-4.5039 2.3281,-5.9219 1.5625,-1.4141 3.7227,-2.125 6.4844,-2.125 0.80078,0 1.5938,0.07422 2.375,0.21875 0.78125,0.13672 1.5547,0.35156 2.3281,0.64062 z"
       id="path2231" /></symbol><symbol
     id="v"
     overflow="visible"><path
       d="m 18.766,-1.125 c -0.96875,0.5 -1.9805,0.875 -3.0312,1.125 -1.043,0.25781 -2.1367,0.39062 -3.2812,0.39062 -3.3984,0 -6.0898,-0.94531 -8.0781,-2.8438 -1.9922,-1.9062 -2.9844,-4.4844 -2.9844,-7.7344 0,-3.2578 0.99219,-5.8359 2.9844,-7.7344 1.9883,-1.9062 4.6797,-2.8594 8.0781,-2.8594 1.1445,0 2.2383,0.13281 3.2812,0.39062 1.0508,0.25 2.0625,0.625 3.0312,1.125 v 4.2188 c -0.98047,-0.65625 -1.9453,-1.1406 -2.8906,-1.4531 -0.94922,-0.3125 -1.9492,-0.46875 -3,-0.46875 -1.875,0 -3.3516,0.60547 -4.4219,1.8125 -1.0742,1.1992 -1.6094,2.8555 -1.6094,4.9688 0,2.1055 0.53516,3.7617 1.6094,4.9688 1.0703,1.1992 2.5469,1.7969 4.4219,1.7969 1.0508,0 2.0508,-0.14844 3,-0.45312 0.94531,-0.3125 1.9102,-0.80078 2.8906,-1.4688 z"
       id="path2408" /></symbol><symbol
     id="e-8"
     overflow="visible"><path
       d="m 13.734,-11.141 c -0.4375,-0.19531 -0.87109,-0.34375 -1.2969,-0.4375 -0.41797,-0.10156 -0.83984,-0.15625 -1.2656,-0.15625 -1.2617,0 -2.2305,0.40625 -2.9062,1.2188 -0.67969,0.80469 -1.0156,1.9531 -1.0156,3.4531 v 7.0625 H 2.3591 v -15.312 h 4.8906 v 2.5156 c 0.625,-1 1.3438,-1.7266 2.1562,-2.1875 0.82031,-0.46875 1.8008,-0.70312 2.9375,-0.70312 0.16406,0 0.34375,0.01172 0.53125,0.03125 0.19531,0.01172 0.47656,0.03906 0.84375,0.07813 z"
       id="path2411" /></symbol><symbol
     id="a-4"
     overflow="visible"><path
       d="m 17.641,-7.7031 v 1.4062 H 6.188 c 0.125,1.1484 0.53906,2.0078 1.25,2.5781 0.70703,0.57422 1.7031,0.85938 2.9844,0.85938 1.0312,0 2.082,-0.14844 3.1562,-0.45312 1.082,-0.3125 2.1914,-0.77344 3.3281,-1.3906 v 3.7656 c -1.1562,0.4375 -2.3125,0.76562 -3.4688,0.98438 -1.1562,0.22656 -2.3125,0.34375 -3.4688,0.34375 -2.7734,0 -4.9297,-0.70312 -6.4688,-2.1094 -1.5312,-1.4062 -2.2969,-3.3789 -2.2969,-5.9219 0,-2.5 0.75391,-4.4609 2.2656,-5.8906 1.5078,-1.4375 3.582,-2.1562 6.2188,-2.1562 2.4062,0 4.332,0.73047 5.7812,2.1875 1.4453,1.4492 2.1719,3.3828 2.1719,5.7969 z m -5.0312,-1.625 c 0,-0.92578 -0.27344,-1.6719 -0.8125,-2.2344 -0.54297,-0.57031 -1.25,-0.85938 -2.125,-0.85938 -0.94922,0 -1.7188,0.26562 -2.3125,0.79688 -0.5937,0.53126 -0.96484,1.2969 -1.1094,2.2969 z"
       id="path2414" /></symbol><symbol
     id="d-5"
     overflow="visible"><path
       d="m 9.2188,-6.8906 c -1.0234,0 -1.793,0.17188 -2.3125,0.51562 -0.51172,0.34375 -0.76562,0.85547 -0.76562,1.5312 0,0.625 0.20703,1.1172 0.625,1.4688 0.41406,0.34375 0.98828,0.51562 1.7188,0.51562 0.92578,0 1.7031,-0.32812 2.3281,-0.98438 0.63281,-0.66406 0.95312,-1.4922 0.95312,-2.4844 v -0.5625 z m 7.4688,-1.8438 V 0 h -4.9219 v -2.2656 c -0.65625,0.92969 -1.3984,1.6055 -2.2188,2.0312 -0.82422,0.41406 -1.8242,0.625 -3,0.625 -1.5859,0 -2.8711,-0.45703 -3.8594,-1.375 -0.99219,-0.92578 -1.4844,-2.1289 -1.4844,-3.6094 0,-1.7891 0.61328,-3.1016 1.8438,-3.9375 1.2383,-0.84375 3.1797,-1.2656 5.8281,-1.2656 h 2.8906 v -0.39062 c 0,-0.76953 -0.30859,-1.332 -0.92188,-1.6875 -0.61719,-0.36328 -1.5703,-0.54688 -2.8594,-0.54688 -1.0547,0 -2.0312,0.10547 -2.9375,0.3125 -0.89844,0.21094 -1.7305,0.52344 -2.5,0.9375 v -3.7344 c 1.0391,-0.25 2.0859,-0.44141 3.1406,-0.57812 1.0625,-0.13281 2.125,-0.20312 3.1875,-0.20312 2.7578,0 4.75,0.54688 5.9688,1.6406 1.2266,1.0859 1.8438,2.8555 1.8438,5.3125 z"
       id="path2417" /></symbol><symbol
     id="c-03"
     overflow="visible"><path
       d="m 7.7031,-19.656 v 4.3438 H 12.75 v 3.5 H 7.7031 v 6.5 c 0,0.71094 0.14062,1.1875 0.42188,1.4375 0.28126,0.25 0.83594,0.375 1.6719,0.375 h 2.5156 v 3.5 h -4.1875 c -1.9375,0 -3.3125,-0.39844 -4.125,-1.2031 -0.80469,-0.8125 -1.2031,-2.1797 -1.2031,-4.1094 v -6.5 h -2.4219 v -3.5 h 2.4219 v -4.3438 z"
       id="path2420" /></symbol><symbol
     id="l-6"
     overflow="visible"><path
       d="m 12.766,-13.078 v -8.2031 h 4.9219 V -1e-4 H 12.766 v -2.2188 c -0.66797,0.90625 -1.4062,1.5703 -2.2188,1.9844 -0.8126,0.4141 -1.7578,0.625 -2.8281,0.625 -1.8867,0 -3.4336,-0.75 -4.6406,-2.25 -1.2109,-1.5 -1.8125,-3.4258 -1.8125,-5.7812 0,-2.3633 0.60156,-4.2969 1.8125,-5.7969 1.207,-1.5 2.7539,-2.25 4.6406,-2.25 1.0625,0 2,0.21484 2.8125,0.64062 0.82031,0.42969 1.5664,1.0859 2.2344,1.9688 z m -3.2188,9.9219 c 1.0391,0 1.8359,-0.37891 2.3906,-1.1406 0.55078,-0.76953 0.82812,-1.8828 0.82812,-3.3438 0,-1.457 -0.27734,-2.5664 -0.82812,-3.3281 -0.55469,-0.76953 -1.3516,-1.1562 -2.3906,-1.1562 -1.043,0 -1.8398,0.38672 -2.3906,1.1562 -0.55469,0.76172 -0.82812,1.8711 -0.82812,3.3281 0,1.4609 0.27344,2.5742 0.82812,3.3438 0.55078,0.76172 1.3477,1.1406 2.3906,1.1406 z"
       id="path2423" /></symbol><symbol
     id="k-1"
     overflow="visible"><path
       d="m 10.5,-3.1562 c 1.0508,0 1.8516,-0.37891 2.4062,-1.1406 0.55078,-0.76953 0.82812,-1.8828 0.82812,-3.3438 0,-1.457 -0.27734,-2.5664 -0.82812,-3.3281 -0.55469,-0.76953 -1.3555,-1.1562 -2.4062,-1.1562 -1.0547,0 -1.8594,0.38672 -2.4219,1.1562 -0.55469,0.77344 -0.82812,1.8828 -0.82812,3.3281 0,1.4492 0.27344,2.5586 0.82812,3.3281 0.5625,0.77344 1.3672,1.1562 2.4219,1.1562 z m -3.25,-9.9219 c 0.67578,-0.88281 1.4219,-1.5391 2.2344,-1.9688 0.82031,-0.42578 1.7656,-0.64062 2.8281,-0.64062 1.8945,0 3.4453,0.75 4.6562,2.25 1.207,1.5 1.8125,3.4336 1.8125,5.7969 0,2.3555 -0.60547,4.2812 -1.8125,5.7812 -1.2109,1.5 -2.7617,2.25 -4.6562,2.25 -1.0625,0 -2.0078,-0.21094 -2.8281,-0.625 C 8.6719,-0.6602 7.9258,-1.32032 7.25,-2.21882 V -2e-5 H 2.3594 v -21.281 H 7.25 Z"
       id="path2426" /></symbol><symbol
     id="j-0"
     overflow="visible"><path
       d="m 0.34375,-15.312 h 4.8906 l 4.125,10.391 3.5,-10.391 h 4.8906 l -6.4375,16.766 c -0.64844,1.6953 -1.4023,2.8828 -2.2656,3.5625 -0.86719,0.6875 -2,1.0312 -3.4062,1.0312 H 2.79685 V 2.8289 h 1.5312 c 0.83203,0 1.4375,-0.13672 1.8125,-0.40625 C 6.52336,2.16093 6.82024,1.69218 7.03117,1.01645 L 7.17179,0.59457 Z"
       id="path2429" /></symbol><symbol
     id="i-6"
     overflow="visible"><path
       d="m 0.14062,-20.406 h 18.812 v 3.9688 h -6.7656 V 8e-4 h -5.2656 v -16.438 h -6.7812 z"
       id="path2432" /></symbol><symbol
     id="h-32"
     overflow="visible"><path
       d="M 17.75,-9.3281 V 0 h -4.9219 v -7.1094 c 0,-1.3438 -0.03125,-2.2656 -0.09375,-2.7656 -0.0625,-0.5 -0.16797,-0.86719 -0.3125,-1.1094 -0.1875,-0.3125 -0.44922,-0.55469 -0.78125,-0.73438 -0.32422,-0.17578 -0.69531,-0.26562 -1.1094,-0.26562 -1.0234,0 -1.8242,0.39844 -2.4062,1.1875 -0.58594,0.78125 -0.875,1.8711 -0.875,3.2656 V -1e-4 H 2.3594 v -21.281 H 7.25 v 8.2031 c 0.73828,-0.88281 1.5195,-1.5391 2.3438,-1.9688 0.83203,-0.42578 1.75,-0.64062 2.75,-0.64062 1.7695,0 3.1133,0.54688 4.0312,1.6406 0.91406,1.0859 1.375,2.6562 1.375,4.7188 z"
       id="path2435" /></symbol><symbol
     id="b-0"
     overflow="visible"><path
       d="m 9.6406,-12.188 c -1.0859,0 -1.9141,0.39062 -2.4844,1.1719 -0.57422,0.78125 -0.85938,1.9062 -0.85938,3.375 0,1.4688 0.28516,2.5938 0.85938,3.375 0.57031,0.77344 1.3984,1.1562 2.4844,1.1562 1.0625,0 1.875,-0.38281 2.4375,-1.1562 0.57031,-0.78125 0.85938,-1.9062 0.85938,-3.375 0,-1.4688 -0.28906,-2.5938 -0.85938,-3.375 -0.5625,-0.78125 -1.375,-1.1719 -2.4375,-1.1719 z m 0,-3.5 c 2.6328,0 4.6914,0.71484 6.1719,2.1406 1.4766,1.418 2.2188,3.3867 2.2188,5.9062 0,2.5117 -0.74219,4.4805 -2.2188,5.9062 C 14.332,-0.317 12.2734,0.39 9.6406,0.39 6.9922,0.39 4.9258,-0.31703 3.4375,-1.735 1.9453,-3.1608 1.2031,-5.1295 1.2031,-7.6412 c 0,-2.5195 0.74219,-4.4883 2.2344,-5.9062 1.4883,-1.4258 3.5547,-2.1406 6.2031,-2.1406 z"
       id="path2438" /></symbol><symbol
     id="g-6"
     overflow="visible"><path
       d="m 16.547,-12.766 c 0.61328,-0.94531 1.3477,-1.6719 2.2031,-2.1719 0.85156,-0.5 1.7891,-0.75 2.8125,-0.75 1.7578,0 3.0977,0.54688 4.0156,1.6406 0.92578,1.0859 1.3906,2.6562 1.3906,4.7188 V -4e-4 h -4.9219 v -7.9844 -0.35938 c 0.0078,-0.13281 0.01563,-0.32031 0.01563,-0.5625 0,-1.082 -0.16406,-1.8633 -0.48438,-2.3438 -0.3125,-0.48828 -0.82422,-0.73438 -1.5312,-0.73438 -0.92969,0 -1.6484,0.38672 -2.1562,1.1562 -0.51172,0.76172 -0.77344,1.8672 -0.78125,3.3125 v 7.5156 h -4.9219 v -7.9844 c 0,-1.6953 -0.14844,-2.7852 -0.4375,-3.2656 -0.29297,-0.48828 -0.8125,-0.73438 -1.5625,-0.73438 -0.9375,0 -1.6641,0.38672 -2.1719,1.1562 -0.51172,0.76172 -0.76562,1.8594 -0.76562,3.2969 v 7.5312 h -4.9219 v -15.312 h 4.9219 v 2.2344 c 0.60156,-0.86328 1.2891,-1.5156 2.0625,-1.9531 0.78125,-0.4375 1.6406,-0.65625 2.5781,-0.65625 1.0625,0 2,0.25781 2.8125,0.76562 0.8125,0.51172 1.4258,1.2305 1.8438,2.1562 z"
       id="path2441" /></symbol><symbol
     id="f-1"
     overflow="visible"><path
       d="m 14.312,-14.828 v 3.7188 c -1.043,-0.4375 -2.0547,-0.76562 -3.0312,-0.98438 -0.98047,-0.21875 -1.9023,-0.32812 -2.7656,-0.32812 -0.92969,0 -1.6211,0.11719 -2.0781,0.34375 -0.44922,0.23047 -0.67188,0.58984 -0.67188,1.0781 0,0.38672 0.17188,0.68359 0.51562,0.89062 0.34375,0.21094 0.95703,0.36719 1.8438,0.46875 l 0.85938,0.125 c 2.5078,0.32422 4.1953,0.85156 5.0625,1.5781 0.86328,0.73047 1.2969,1.8711 1.2969,3.4219 0,1.6367 -0.60547,2.8672 -1.8125,3.6875 -1.1992,0.8125 -2.9922,1.2188 -5.375,1.2188 -1.0234,0 -2.0742,-0.078125 -3.1562,-0.23438 -1.0742,-0.15625 -2.1797,-0.39453 -3.3125,-0.71875 v -3.7188 c 0.96875,0.48047 1.9609,0.83984 2.9844,1.0781 1.0312,0.23047 2.0781,0.34375 3.1406,0.34375 0.95703,0 1.6758,-0.12891 2.1562,-0.39062 0.47656,-0.26953 0.71875,-0.66406 0.71875,-1.1875 0,-0.4375 -0.16797,-0.75781 -0.5,-0.96875 -0.33594,-0.21875 -0.99609,-0.38281 -1.9844,-0.5 L 7.34339,-6.01551 c -2.1797,-0.26953 -3.7031,-0.77344 -4.5781,-1.5156 -0.875,-0.73828 -1.3125,-1.8594 -1.3125,-3.3594 0,-1.625 0.55078,-2.8281 1.6562,-3.6094 1.1133,-0.78906 2.8203,-1.1875 5.125,-1.1875 0.89453,0 1.8359,0.07422 2.8281,0.21875 1,0.13672 2.082,0.35156 3.25,0.64062 z"
       id="path2444" /></symbol><symbol
     id="u-5"
     overflow="visible"><path
       d="m 2.5781,-20.406 h 5.25 v 16.422 h 9.25 V 4e-4 h -14.5 z"
       id="path2447" /></symbol><symbol
     id="t-5"
     overflow="visible"><path
       d="m 10.75,-12.516 c 0.82031,0 1.4453,-0.17969 1.875,-0.54688 0.4375,-0.36328 0.65625,-0.89844 0.65625,-1.6094 0,-0.69531 -0.21875,-1.2266 -0.65625,-1.5938 -0.42969,-0.375 -1.0547,-0.5625 -1.875,-0.5625 H 7.8281 v 4.3125 z m 0.17188,8.9375 c 1.0625,0 1.8594,-0.22266 2.3906,-0.67188 0.53125,-0.44531 0.79688,-1.125 0.79688,-2.0312 0,-0.88281 -0.26562,-1.5469 -0.79688,-1.9844 -0.52344,-0.4375 -1.3203,-0.65625 -2.3906,-0.65625 h -3.0938 v 5.3438 z m 4.8906,-7.3438 c 1.1328,0.32422 2.0078,0.92969 2.625,1.8125 0.625,0.88672 0.9375,1.9688 0.9375,3.25 0,1.9688 -0.66797,3.4375 -2,4.4062 -1.3359,0.96875 -3.3555,1.4531 -6.0625,1.4531 h -8.7344 v -20.406 h 7.8906 c 2.832,0 4.8828,0.42969 6.1562,1.2812 1.2812,0.85547 1.9219,2.2266 1.9219,4.1094 0,1 -0.23438,1.8516 -0.70312,2.5469 -0.46875,0.6875 -1.1484,1.2031 -2.0312,1.5469 z"
       id="path2450" /></symbol><symbol
     id="s-4"
     overflow="visible"><path
       d="m 12.422,-21.281 v 3.2188 H 9.7189 c -0.6875,0 -1.1719,0.125 -1.4531,0.375 -0.27344,0.25 -0.40625,0.6875 -0.40625,1.3125 v 1.0625 h 4.1875 v 3.5 H 7.85955 V -2e-4 h -4.8906 v -11.812 h -2.4375 v -3.5 h 2.4375 v -1.0625 c 0,-1.6641 0.46094,-2.8984 1.3906,-3.7031 0.92578,-0.80078 2.3672,-1.2031 4.3281,-1.2031 z"
       id="path2453" /></symbol><symbol
     id="r-76"
     overflow="visible"><path
       d="m 2.5781,-20.406 h 5.875 l 7.4219,14 v -14 h 4.9844 V 0 h -5.875 L 7.5625,-14 V 0 H 2.5781 Z"
       id="path2456" /></symbol><symbol
     id="q-5"
     overflow="visible"><path
       d="m 2.1875,-5.9688 v -9.3438 h 4.9219 v 1.5312 c 0,0.83594 -0.00781,1.875 -0.015625,3.125 -0.011719,1.25 -0.015625,2.0859 -0.015625,2.5 0,1.2422 0.03125,2.1328 0.09375,2.6719 0.070313,0.54297 0.17969,0.93359 0.32812,1.1719 0.20703,0.32422 0.47266,0.57422 0.79688,0.75 0.32031,0.16797 0.69141,0.25 1.1094,0.25 1.0195,0 1.8203,-0.39062 2.4062,-1.1719 0.58203,-0.78125 0.875,-1.8672 0.875,-3.2656 v -7.5625 h 4.8906 V -6e-4 H 12.6875 V -2.2194 C 11.94531,-1.32096 11.1641,-0.6608 10.3437,-0.235 9.51948,0.17906 8.6093,0.39 7.6093,0.39 5.8476,0.39 4.5038,-0.14906 3.5781,-1.235 2.64841,-2.317 2.1875,-3.8952 2.1875,-5.9694 Z"
       id="path2459" /></symbol><symbol
     id="p-69"
     overflow="visible"><path
       d="M 17.75,-9.3281 V 0 h -4.9219 v -7.1406 c 0,-1.3203 -0.03125,-2.2344 -0.09375,-2.7344 -0.0625,-0.5 -0.16797,-0.86719 -0.3125,-1.1094 -0.1875,-0.3125 -0.44922,-0.55469 -0.78125,-0.73438 -0.32422,-0.17578 -0.69531,-0.26562 -1.1094,-0.26562 -1.0234,0 -1.8242,0.39844 -2.4062,1.1875 -0.58594,0.78125 -0.875,1.8711 -0.875,3.2656 V -1e-4 H 2.3594 v -15.312 H 7.25 v 2.2344 c 0.73828,-0.88281 1.5195,-1.5391 2.3438,-1.9688 0.83203,-0.42578 1.75,-0.64062 2.75,-0.64062 1.7695,0 3.1133,0.54688 4.0312,1.6406 0.91406,1.0859 1.375,2.6562 1.375,4.7188 z"
       id="path2462" /></symbol><symbol
     id="o-3"
     overflow="visible"><path
       d="m 2.5781,-20.406 h 8.7344 c 2.5938,0 4.582,0.57812 5.9688,1.7344 1.3945,1.1484 2.0938,2.7891 2.0938,4.9219 0,2.1367 -0.69922,3.7812 -2.0938,4.9375 -1.3867,1.1562 -3.375,1.7344 -5.9688,1.7344 H 7.8281 V 3e-4 h -5.25 z m 5.25,3.8125 v 5.7031 H 10.75 c 1.0195,0 1.8047,-0.25 2.3594,-0.75 0.5625,-0.5 0.84375,-1.2031 0.84375,-2.1094 0,-0.91406 -0.28125,-1.6172 -0.84375,-2.1094 -0.55469,-0.48828 -1.3398,-0.73438 -2.3594,-0.73438 z"
       id="path2465" /></symbol><symbol
     id="n-7"
     overflow="visible"><path
       d="M 2.3594,-15.312 H 7.25 v 15.031 c 0,2.0508 -0.49609,3.6172 -1.4844,4.7031 -0.98047,1.082 -2.4062,1.625 -4.2812,1.625 H -0.9375 V 2.8283 h 0.85938 c 0.92578,0 1.5625,-0.21094 1.9062,-0.625 0.35156,-0.41797 0.53125,-1.2461 0.53125,-2.4844 z m 0,-5.9688 H 7.25 v 4 H 2.3594 Z"
       id="path2468" /></symbol><symbol
     id="m-4"
     overflow="visible"><path
       d="m 14.719,-14.828 v 3.9844 c -0.65625,-0.45703 -1.3242,-0.79688 -2,-1.0156 -0.66797,-0.21875 -1.3594,-0.32812 -2.0781,-0.32812 -1.3672,0 -2.4336,0.40234 -3.2031,1.2031 -0.76172,0.79297 -1.1406,1.9062 -1.1406,3.3438 0,1.4297 0.37891,2.543 1.1406,3.3438 0.76953,0.79297 1.8359,1.1875 3.2031,1.1875 0.75781,0 1.4844,-0.10938 2.1719,-0.32812 0.6875,-0.22656 1.3203,-0.56641 1.9062,-1.0156 v 4 c -0.76172,0.28125 -1.5391,0.48828 -2.3281,0.625 -0.78125,0.14453 -1.5742,0.21875 -2.375,0.21875 -2.7617,0 -4.9219,-0.70703 -6.4844,-2.125 -1.5547,-1.4141 -2.3281,-3.3828 -2.3281,-5.9062 0,-2.5312 0.77344,-4.5039 2.3281,-5.9219 1.5625,-1.4141 3.7227,-2.125 6.4844,-2.125 0.80078,0 1.5938,0.07422 2.375,0.21875 0.78125,0.13672 1.5547,0.35156 2.3281,0.64062 z"
       id="path2471" /></symbol><symbol
     id="u-52"
     overflow="visible"><path
       d="m 14.656,-0.875 c -0.76172,0.39844 -1.5547,0.69531 -2.375,0.89062 -0.8125,0.19531 -1.6641,0.29688 -2.5469,0.29688 -2.6562,0 -4.7617,-0.73828 -6.3125,-2.2188 -1.5547,-1.4883 -2.3281,-3.5039 -2.3281,-6.0469 0,-2.5508 0.77344,-4.5664 2.3281,-6.0469 1.5508,-1.4883 3.6562,-2.2344 6.3125,-2.2344 0.88281,0 1.7344,0.10156 2.5469,0.29688 0.82031,0.19922 1.6133,0.49609 2.375,0.89062 v 3.2969 c -0.76172,-0.51953 -1.5117,-0.89844 -2.25,-1.1406 -0.74219,-0.23828 -1.5234,-0.35938 -2.3438,-0.35938 -1.4688,0 -2.625,0.46875 -3.4688,1.4062 -0.83594,0.9375 -1.25,2.2344 -1.25,3.8906 0,1.6484 0.41406,2.9375 1.25,3.875 0.84375,0.9375 2,1.4062 3.4688,1.4062 0.82031,0 1.6016,-0.11719 2.3438,-0.35938 0.73828,-0.23828 1.4883,-0.61719 2.25,-1.1406 z"
       id="path2686" /></symbol><symbol
     id="c-5"
     overflow="visible"><path
       d="m 10.719,-8.7031 c -0.33594,-0.15625 -0.66797,-0.26953 -1,-0.34375 -0.32422,-0.082031 -0.65625,-0.125 -1,-0.125 -0.98047,0 -1.7344,0.32031 -2.2656,0.95312 -0.53125,0.625 -0.79688,1.5273 -0.79688,2.7031 V -3e-5 h -3.8125 v -11.969 h 3.8125 v 1.9688 c 0.48828,-0.78125 1.0508,-1.3477 1.6875,-1.7031 0.64453,-0.36328 1.4102,-0.54688 2.2969,-0.54688 0.13281,0 0.27344,0.0078 0.42188,0.01563 0.14453,0.01172 0.36328,0.03125 0.65625,0.0625 z"
       id="path2689" /></symbol><symbol
     id="b-4"
     overflow="visible"><path
       d="m 13.781,-6.0156 v 1.0938 H 4.8435 c 0.09375,0.89844 0.41406,1.5703 0.96875,2.0156 0.55078,0.44922 1.3281,0.67188 2.3281,0.67188 0.80078,0 1.625,-0.11719 2.4688,-0.35938 0.84375,-0.23828 1.7109,-0.59766 2.6094,-1.0781 v 2.9531 c -0.90625,0.33594 -1.8125,0.58984 -2.7188,0.76562 -0.9063,0.17578 -1.8125,0.26562 -2.7188,0.26562 -2.1562,0 -3.8398,-0.54688 -5.0469,-1.6406 -1.1992,-1.1016 -1.7969,-2.6484 -1.7969,-4.6406 0,-1.9453 0.58594,-3.4766 1.7656,-4.5938 1.1758,-1.125 2.8008,-1.6875 4.875,-1.6875 1.875,0 3.375,0.57031 4.5,1.7031 1.1328,1.125 1.7031,2.6367 1.7031,4.5312 z M 9.8435,-7.2812 c 0,-0.72656 -0.21484,-1.3125 -0.64062,-1.75 -0.41797,-0.44531 -0.96875,-0.67188 -1.6562,-0.67188 -0.74219,0 -1.3438,0.21094 -1.8125,0.625 -0.46094,0.41797 -0.74609,1.0156 -0.85938,1.7969 z"
       id="path2692" /></symbol><symbol
     id="a-74"
     overflow="visible"><path
       d="m 7.2031,-5.3906 c -0.80469,0 -1.4062,0.13672 -1.8125,0.40625 -0.39844,0.27344 -0.59375,0.67188 -0.59375,1.2031 0,0.48047 0.16016,0.85938 0.48438,1.1406 0.32031,0.27344 0.77344,0.40625 1.3594,0.40625 0.71875,0 1.3203,-0.25391 1.8125,-0.76562 0.48828,-0.51953 0.73438,-1.1719 0.73438,-1.9531 v -0.4375 z m 5.8438,-1.4375 V 0 H 9.1875 v -1.7656 c -0.51172,0.71875 -1.0898,1.2461 -1.7344,1.5781 -0.63672,0.33203 -1.418,0.5 -2.3438,0.5 -1.2422,0 -2.2461,-0.35938 -3.0156,-1.0781 -0.77344,-0.72656 -1.1562,-1.6719 -1.1562,-2.8281 0,-1.3945 0.47656,-2.4219 1.4375,-3.0781 0.96875,-0.65625 2.4883,-0.98438 4.5625,-0.98438 h 2.25 v -0.29688 c 0,-0.60156 -0.24219,-1.0469 -0.71875,-1.3281 -0.48047,-0.28125 -1.2266,-0.42188 -2.2344,-0.42188 -0.8125,0 -1.5742,0.085937 -2.2812,0.25 -0.71094,0.15625 -1.3672,0.40234 -1.9688,0.73438 v -2.9219 c 0.82031,-0.19531 1.6445,-0.34766 2.4688,-0.45312 0.82031,-0.10156 1.6484,-0.15625 2.4844,-0.15625 2.1562,0 3.7109,0.42969 4.6719,1.2812 0.95703,0.84375 1.4375,2.2266 1.4375,4.1406 z"
       id="path2695" /></symbol><symbol
     id="d-4"
     overflow="visible"><path
       d="m 6.0156,-15.359 v 3.3906 H 9.9531 V -9.234 H 6.0156 v 5.0781 c 0,0.55469 0.10938,0.92969 0.32812,1.125 0.21875,0.19922 0.65625,0.29688 1.3125,0.29688 h 1.9688 v 2.7344 h -3.2812 c -1.5117,0 -2.5859,-0.3125 -3.2188,-0.9375 -0.625,-0.63281 -0.9375,-1.707 -0.9375,-3.2188 v -5.0781 h -1.9062 v -2.7344 h 1.9062 v -3.3906 z"
       id="path2698" /></symbol><symbol
     id="f-3"
     overflow="visible"><path
       d="m 9.9688,-10.219 v -6.4062 h 3.8594 V -2e-4 H 9.9688 V -1.7346 C 9.44536,-1.02366 8.8672,-0.5041 8.2344,-0.1721 7.59768,0.14821 6.8633,0.31228 6.0313,0.31228 c -1.4688,0 -2.6797,-0.58203 -3.625,-1.75 -0.94922,-1.1758 -1.4219,-2.6875 -1.4219,-4.5312 0,-1.8437 0.47266,-3.3477 1.4219,-4.5156 0.94531,-1.1758 2.1562,-1.7656 3.625,-1.7656 0.83203,0 1.5664,0.16797 2.2031,0.5 0.63281,0.32422 1.2109,0.83594 1.7344,1.5312 z m -2.5156,7.75 c 0.82031,0 1.4453,-0.29688 1.875,-0.89062 0.42578,-0.60156 0.64062,-1.4727 0.64062,-2.6094 0,-1.1445 -0.21484,-2.0156 -0.64062,-2.6094 -0.42969,-0.59375 -1.0547,-0.89062 -1.875,-0.89062 -0.8125,0 -1.4336,0.29688 -1.8594,0.89062 -0.42969,0.59375 -0.64062,1.4648 -0.64062,2.6094 0,1.1367 0.21094,2.0078 0.64062,2.6094 0.42578,0.59375 1.0469,0.89062 1.8594,0.89062 z"
       id="path2701" /></symbol><symbol
     id="l-0"
     overflow="visible"><path
       d="m 8.2031,-2.4688 c 0.82031,0 1.4453,-0.29688 1.875,-0.89062 0.42578,-0.60156 0.64062,-1.4727 0.64062,-2.6094 0,-1.1445 -0.21484,-2.0156 -0.64062,-2.6094 -0.42969,-0.59375 -1.0547,-0.89062 -1.875,-0.89062 -0.82422,0 -1.4531,0.30469 -1.8906,0.90625 -0.4375,0.59375 -0.65625,1.4609 -0.65625,2.5938 0,1.1367 0.21875,2.0078 0.65625,2.6094 0.4375,0.59375 1.0664,0.89062 1.8906,0.89062 z m -2.5469,-7.75 c 0.53125,-0.69531 1.1133,-1.207 1.75,-1.5312 0.64453,-0.33203 1.3828,-0.5 2.2188,-0.5 1.4688,0 2.6758,0.58984 3.625,1.7656 0.94531,1.168 1.4219,2.6719 1.4219,4.5156 0,1.8437 -0.47656,3.3555 -1.4219,4.5312 -0.94922,1.168 -2.1562,1.75 -3.625,1.75 -0.83594,0 -1.5742,-0.16797 -2.2188,-0.5 -0.63672,-0.33203 -1.2188,-0.84766 -1.75,-1.5469 V -1e-4 H 1.8437 v -16.625 h 3.8125 z"
       id="path2704" /></symbol><symbol
     id="k-78"
     overflow="visible"><path
       d="m 0.26562,-11.969 h 3.8281 l 3.2188,8.125 2.7344,-8.125 h 3.8125 L 8.82822,1.125 c -0.5,1.332 -1.0898,2.2656 -1.7656,2.7969 -0.66797,0.53125 -1.5547,0.79688 -2.6562,0.79688 h -2.2188 v -2.5 h 1.2031 c 0.64453,0 1.1133,-0.10547 1.4062,-0.3125 C 5.0977,1.69534 5.32817,1.32816 5.48442,0.79688 L 5.5938,0.45313 Z"
       id="path2707" /></symbol><symbol
     id="j-6"
     overflow="visible"><path
       d="M 11.688,-2.9062 H 5.2505 L 4.2349,0 h -4.125 l 5.9062,-15.953 h 4.9062 L 16.8285,0 H 12.6879 Z M 6.2818,-5.8593 h 4.375 l -2.1875,-6.3438 z"
       id="path2710" /></symbol><symbol
     id="i-8"
     overflow="visible"><path
       d="M 13.859,-7.2812 V 0 h -3.8438 v -5.5469 c 0,-1.0508 -0.027344,-1.7695 -0.078125,-2.1562 -0.042969,-0.39453 -0.12109,-0.6875 -0.23438,-0.875 -0.14844,-0.25 -0.35156,-0.44141 -0.60938,-0.57812 -0.25,-0.14453 -0.54297,-0.21875 -0.875,-0.21875 -0.79297,0 -1.418,0.3125 -1.875,0.9375 -0.46094,0.61719 -0.6875,1.4648 -0.6875,2.5469 V 3e-5 h -3.8125 v -16.625 h 3.8125 v 6.4062 c 0.58203,-0.69531 1.1953,-1.207 1.8438,-1.5312 0.64453,-0.33203 1.3594,-0.5 2.1406,-0.5 1.3828,0 2.4297,0.42969 3.1406,1.2812 0.71875,0.84375 1.0781,2.0742 1.0781,3.6875 z"
       id="path2713" /></symbol><symbol
     id="t-8"
     overflow="visible"><path
       d="M 1.8438,-11.969 H 5.6563 V 0 H 1.8438 Z m 0,-4.6562 h 3.8125 v 3.125 H 1.8438 Z"
       id="path2716" /></symbol><symbol
     id="h-4"
     overflow="visible"><path
       d="M 13.859,-7.2812 V 0 h -3.8438 v -5.5781 c 0,-1.0312 -0.027344,-1.7383 -0.078125,-2.125 -0.042969,-0.39453 -0.12109,-0.6875 -0.23438,-0.875 -0.14844,-0.25 -0.35156,-0.44141 -0.60938,-0.57812 -0.25,-0.14453 -0.54297,-0.21875 -0.875,-0.21875 -0.79297,0 -1.418,0.3125 -1.875,0.9375 -0.46094,0.61719 -0.6875,1.4648 -0.6875,2.5469 V 3e-5 h -3.8125 v -11.969 h 3.8125 v 1.75 c 0.58203,-0.69531 1.1953,-1.207 1.8438,-1.5312 0.64453,-0.33203 1.3594,-0.5 2.1406,-0.5 1.3828,0 2.4297,0.42969 3.1406,1.2812 0.71875,0.84375 1.0781,2.0742 1.0781,3.6875 z"
       id="path2719" /></symbol><symbol
     id="s-31"
     overflow="visible"><path
       d="m 7.8438,-8.875 c 0.86328,0 1.4844,-0.16016 1.8594,-0.48438 0.375,-0.32031 0.5625,-0.84766 0.5625,-1.5781 0,-0.72656 -0.1875,-1.25 -0.5625,-1.5625 -0.375,-0.3125 -0.99609,-0.46875 -1.8594,-0.46875 H 6.125 v 4.0938 z M 6.125,-6.0312 V 0 H 2.0156 v -15.953 h 6.2656 c 2.1016,0 3.6445,0.35547 4.625,1.0625 0.97656,0.71094 1.4688,1.8242 1.4688,3.3438 0,1.0547 -0.25781,1.918 -0.76562,2.5938 -0.51172,0.67969 -1.2773,1.1797 -2.2969,1.5 0.5625,0.125 1.0625,0.41797 1.5,0.875 0.44531,0.44922 0.89844,1.1328 1.3594,2.0469 l 2.2344,4.5312 h -4.375 l -1.9531,-3.9688 C 9.69146,-4.75766 9.29693,-5.3006 8.89068,-5.5936 8.48443,-5.88266 7.94537,-6.0311 7.28128,-6.0311 Z"
       id="path2722" /></symbol><symbol
     id="g-4"
     overflow="visible"><path
       d="m 12.922,-9.9688 c 0.48828,-0.75 1.0625,-1.3164 1.7188,-1.7031 0.66406,-0.38281 1.3984,-0.57812 2.2031,-0.57812 1.375,0 2.4219,0.42969 3.1406,1.2812 0.71875,0.84375 1.0781,2.0742 1.0781,3.6875 v 7.2812 h -3.8438 v -6.2344 c 0.0078,-0.09375 0.01563,-0.1875 0.01563,-0.28125 v -0.4375 c 0,-0.84375 -0.125,-1.457 -0.375,-1.8438 -0.25,-0.38281 -0.65234,-0.57812 -1.2031,-0.57812 -0.73047,0 -1.293,0.30469 -1.6875,0.90625 -0.38672,0.59375 -0.58984,1.4609 -0.60938,2.5938 v 5.875 h -3.8438 v -6.2344 c 0,-1.3203 -0.11719,-2.1758 -0.34375,-2.5625 -0.23047,-0.38281 -0.63672,-0.57812 -1.2188,-0.57812 -0.73047,0 -1.2969,0.30469 -1.7031,0.90625 -0.39844,0.60547 -0.59375,1.4648 -0.59375,2.5781 v 5.8906 h -3.8438 v -11.969 h 3.8438 v 1.75 c 0.46875,-0.66406 1.0039,-1.1719 1.6094,-1.5156 0.61328,-0.34375 1.2891,-0.51562 2.0312,-0.51562 0.82031,0 1.5508,0.19922 2.1875,0.59375 0.63281,0.39844 1.1133,0.96094 1.4375,1.6875 z"
       id="path2725" /></symbol><symbol
     id="r-9"
     overflow="visible"><path
       d="m 9.7031,-16.625 v 2.5156 H 7.5937 c -0.54297,0 -0.92188,0.10156 -1.1406,0.29688 -0.21094,0.19922 -0.3125,0.53906 -0.3125,1.0156 v 0.82812 h 3.2656 v 2.7344 H 6.1406 V 0 H 2.3125 V -9.2344 H 0.4219 v -2.7344 h 1.8906 v -0.82812 c 0,-1.3008 0.36328,-2.2656 1.0938,-2.8906 0.72656,-0.625 1.8516,-0.9375 3.375,-0.9375 z"
       id="path2728" /></symbol><symbol
     id="e-20"
     overflow="visible"><path
       d="m 7.5312,-9.5156 c -0.84375,0 -1.4922,0.30859 -1.9375,0.92188 -0.44922,0.60547 -0.67188,1.4805 -0.67188,2.625 0,1.1484 0.22266,2.0273 0.67188,2.6406 0.44531,0.60547 1.0938,0.90625 1.9375,0.90625 0.83203,0 1.4688,-0.30078 1.9062,-0.90625 0.44531,-0.61328 0.67188,-1.4922 0.67188,-2.6406 0,-1.1445 -0.22656,-2.0195 -0.67188,-2.625 C 8.9999,-9.207 8.3632,-9.5156 7.5312,-9.5156 Z m 0,-2.7344 c 2.0508,0 3.6562,0.55859 4.8125,1.6719 1.1641,1.1055 1.75,2.6406 1.75,4.6094 0,1.9688 -0.58594,3.5117 -1.75,4.625 -1.1562,1.1055 -2.7617,1.6562 -4.8125,1.6562 -2.0625,0 -3.6797,-0.55078 -4.8438,-1.6562 -1.168,-1.1133 -1.75,-2.6562 -1.75,-4.625 0,-1.9688 0.58203,-3.5039 1.75,-4.6094 1.1641,-1.1133 2.7812,-1.6719 4.8438,-1.6719 z"
       id="path2731" /></symbol><symbol
     id="q-6"
     overflow="visible"><path
       d="m 2.0156,-15.953 h 4.5781 l 5.8125,10.938 v -10.938 h 3.8906 V 0 H 11.703 L 5.9061,-10.938 V 0 H 2.0155 Z"
       id="path2734" /></symbol><symbol
     id="p-8"
     overflow="visible"><path
       d="m 1.7031,-4.6562 v -7.3125 h 3.8438 v 1.2031 c 0,0.64844 -0.00781,1.4609 -0.015625,2.4375 v 1.9688 c 0,0.96094 0.023438,1.6523 0.078125,2.0781 0.050781,0.41797 0.13281,0.72656 0.25,0.92188 0.15625,0.25 0.35938,0.44531 0.60938,0.57812 0.25781,0.13672 0.55078,0.20312 0.875,0.20312 0.80078,0 1.4258,-0.30469 1.875,-0.92188 0.45703,-0.61328 0.6875,-1.4688 0.6875,-2.5625 v -5.9062 h 3.8281 v 11.969 h -3.8281 v -1.7344 c -0.57422,0.69922 -1.1836,1.2148 -1.8281,1.5469 -0.64844,0.33203 -1.3555,0.5 -2.125,0.5 -1.3867,0 -2.4453,-0.42188 -3.1719,-1.2656 -0.71875,-0.85156 -1.0781,-2.0859 -1.0781,-3.7031 z"
       id="path2737" /></symbol><symbol
     id="o-9"
     overflow="visible"><path
       d="m 2.0156,-15.953 h 6.8125 c 2.0312,0 3.5859,0.45312 4.6719,1.3594 1.0938,0.89844 1.6406,2.1797 1.6406,3.8438 0,1.6797 -0.54688,2.9688 -1.6406,3.875 -1.0859,0.89844 -2.6406,1.3438 -4.6719,1.3438 H 6.125 V 2e-4 H 2.0156 Z m 4.1094,2.9844 v 4.4531 h 2.2656 c 0.80078,0 1.4141,-0.19141 1.8438,-0.57812 0.4375,-0.38281 0.65625,-0.9375 0.65625,-1.6562 0,-0.70703 -0.21875,-1.2539 -0.65625,-1.6406 -0.42969,-0.38281 -1.043,-0.57812 -1.8438,-0.57812 z"
       id="path2740" /></symbol><symbol
     id="n-2"
     overflow="visible"><path
       d="m 1.8438,-11.969 h 3.8125 v 11.75 c 0,1.6016 -0.38672,2.8281 -1.1562,3.6719 C 3.73838,4.29665 2.629,4.7185 1.172,4.7185 h -1.8906 v -2.5 h 0.65625 c 0.72656,0 1.2266,-0.16797 1.5,-0.5 C 1.70718,1.39428 1.8439,0.74975 1.8439,-0.219 Z m 0,-4.6562 h 3.8125 v 3.125 H 1.8438 Z"
       id="path2743" /></symbol><symbol
     id="m-6"
     overflow="visible"><path
       d="m 11.5,-11.594 v 3.125 C 10.97656,-8.82056 10.457,-9.08228 9.9375,-9.25025 9.41406,-9.42603 8.875,-9.51587 8.3125,-9.51587 c -1.0742,0 -1.9062,0.3125 -2.5,0.9375 -0.5938,0.625 -0.89062,1.4961 -0.89062,2.6094 0,1.1172 0.29688,1.9844 0.89062,2.6094 0.59374,0.625 1.4258,0.9375 2.5,0.9375 0.59375,0 1.1562,-0.085937 1.6875,-0.26562 0.53906,-0.17578 1.0391,-0.44141 1.5,-0.79688 v 3.125 c -0.59375,0.23047 -1.1992,0.39453 -1.8125,0.5 -0.61719,0.11328 -1.2344,0.17188 -1.8594,0.17188 -2.1562,0 -3.8438,-0.55078 -5.0625,-1.6562 -1.2188,-1.1133 -1.8281,-2.6562 -1.8281,-4.625 0,-1.9688 0.60938,-3.5039 1.8281,-4.6094 1.2188,-1.1133 2.9062,-1.6719 5.0625,-1.6719 0.625,0 1.2383,0.05859 1.8438,0.17188 0.61328,0.10547 1.2227,0.26562 1.8281,0.48438 z"
       id="path2746" /></symbol><linearGradient
     inkscape:collect="always"
     xlink:href="#linearGradient22659"
     id="linearGradient20181"
     x1="162.41364"
     y1="243.75438"
     x2="545.53516"
     y2="243.75438"
     gradientUnits="userSpaceOnUse"
     gradientTransform="translate(-22.392969,980.20674)" /></defs><sodipodi:namedview
   pagecolor="#ffffff"
   bordercolor="#666666"
   borderopacity="1"
   objecttolerance="10"
   gridtolerance="10"
   guidetolerance="10"
   inkscape:pageopacity="0"
   inkscape:pageshadow="2"
   inkscape:window-width="1920"
   inkscape:window-height="947"
   id="namedview5"
   showgrid="false"
   inkscape:zoom="0.70710678"
   inkscape:cx="53.740115"
   inkscape:cy="345.77521"
   inkscape:window-x="0"
   inkscape:window-y="0"
   inkscape:window-maximized="1"
   inkscape:current-layer="g2082"
   showguides="true"
   inkscape:guide-bbox="true"
   inkscape:document-rotation="0"
   inkscape:pagecheckerboard="0"
   width="500px" />
















<g
   id="g994"
   transform="translate(-475.39726,-433.86506)"><g
     id="g937">
	<g
   id="g935">
		
	</g>
</g><g
     id="g939">
</g><g
     id="g941">
</g><g
     id="g943">
</g><g
     id="g945">
</g><g
     id="g947">
</g><g
     id="g949">
</g><g
     id="g951">
</g><g
     id="g953">
</g><g
     id="g955">
</g><g
     id="g957">
</g><g
     id="g959">
</g><g
     id="g961">
</g><g
     id="g963">
</g><g
     id="g965">
</g><g
     id="g967">
</g></g><g
   id="g2082"
   transform="matrix(0.41721182,0,0,0.41721182,-46.002118,-393.67309)"><path
     d="m 523.14286,1401.488 v -370.2212 c 0,-23.8717 -16.24923,-37.06006 -37.47023,-37.06006 H 178.47184 c -21.49764,0 -38.46322,13.66796 -38.46322,38.46896 v 415.6928 c 0,28.5592 22.961,51.5204 51.52,51.5204 10.09733,0 16.62017,-4.3257 16.62017,-16.4478 0,-10.3673 -4.20785,-16.0324 -16.61659,-16.0324 -10.641,0 -19.039,-8.3985 -19.039,-19.0392 0,-10.6406 8.3984,-19.6021 19.039,-19.6021 h 33.602 v 89.6026 c 0,6.1602 7.2812,10.078 12.32,6.7188 l 24.078,-16.2381 c 2.8008,-1.6797 6.1602,-1.6797 8.9609,0 l 24.078,16.2381 c 5.0391,3.3594 12.32,0 12.32,-6.7188 v -89.6026 h 162.96 c -1.6797,5.6016 -3.3594,12.3201 -3.3594,19.6021 0,7.2821 1.1211,13.4411 3.3594,19.0392 H 341.49045 c -8.91038,0 -14.99935,5.6328 -14.99935,15.9856 0,8.6093 5.55063,16.4946 14.99935,16.4946 H 498.9711 c 6.7188,0 12.32,-3.922 15.121,-10.6411 2.2383,-6.1603 0.55859,-13.4411 -4.4805,-17.9221 0,0 -10.641,-10.0781 -10.641,-23.5202 0,-6.7188 3.11446,-18.4745 12.97334,-24.1665 8.31019,-4.7979 11.19892,-13.2148 11.19892,-22.151 z"
     id="path2002"
     sodipodi:nodetypes="csssssssssscsccccsccscsccsccssc"
     style="fill:url(#linearGradient20181);fill-opacity:1" /></g><g
   id="g14804"
   transform="matrix(0.40521672,0,0,0.40521672,1.6657071,-304.96213)"
   style="fill:#ffffff"><g
     id="g14772"
     transform="translate(-44.75519,788.32908)"
     style="fill:#ffffff;fill-opacity:1"><g
       id="g14770"
       transform="matrix(1.0705272,0,0,1.0705272,-12.369194,-19.72674)"
       style="fill:#ffffff;fill-opacity:1"><path
         id="path14768"
         style="fill:#ffffff;fill-opacity:1;stroke-width:1.10552"
         d="m 262.15255,86.048203 c -4.67539,0.205863 -8.6838,2.905808 -12.63532,5.125493 -0.72203,0.42215 -1.63697,0.944486 -2.23865,1.30381 -28.49975,16.937564 -51.79461,42.555144 -65.74089,72.650014 -4.73121,10.13382 -8.45203,20.90162 -11.02581,31.68529 -0.63322,2.66871 -1.219,5.41113 -1.7039,8.01696 -1.62205,8.62592 -2.55093,17.38093 -2.78863,26.15469 -0.0407,1.75666 -0.0729,3.74855 -0.0598,5.59685 0.10554,19.21223 3.54941,38.40066 10.13515,56.44923 0.437,1.1766 0.96633,2.61623 1.47539,3.88001 3.4067,8.66432 7.5778,17.02368 12.38684,24.99398 0.50969,0.80776 1.15276,1.89143 1.73716,2.7948 11.18629,17.66473 25.72428,33.20017 42.62193,45.51588 0.8101,0.57892 1.85106,1.34161 2.76971,1.97301 3.73659,2.60921 7.72757,5.13145 11.56585,7.39454 1.34264,0.77541 2.49687,1.44061 3.87308,2.17587 1.97157,0.98828 3.88922,2.1462 5.99607,2.82082 4.94195,1.42027 10.38896,0.27547 14.63832,-2.52115 30.00593,-16.2548 54.85138,-41.92979 69.90433,-72.57469 2.6669,-5.38611 5.0226,-10.9245 7.09091,-16.56718 0.41608,-1.17813 0.93784,-2.61521 1.36324,-3.9033 6.55031,-19.40313 9.48306,-40.01738 8.59601,-60.47781 -0.057,-0.95759 -0.10107,-2.2174 -0.17821,-3.29549 -1.65892,-26.83747 -9.83807,-53.28296 -23.88813,-76.2283 -10.82162,-17.77366 -24.99666,-33.50054 -41.57846,-46.07508 -1.1119,-0.84406 -2.44878,-1.82803 -3.66515,-2.69951 -5.32477,-3.782633 -10.84286,-7.328753 -16.6323,-10.485723 -2.74808,-1.431112 -5.45995,-3.166278 -8.6068,-3.529197 -1.12858,-0.172088 -2.27213,-0.21086 -3.41203,-0.173817 z m 2.11949,36.417897 c 24.41975,15.21828 43.74809,38.5168 53.95171,65.44127 9.549,24.98549 11.40099,52.86064 5.11129,78.86792 -4.88713,20.47014 -14.69418,39.75452 -28.45327,55.68744 -4.05685,4.80621 -8.60202,9.15882 -13.07018,13.57402 l -2.07347,2.05446 v -74.24739 c 11.41549,-11.51044 22.51016,-23.30931 33.80219,-34.94681 4.8876,-5.92778 4.82245,-15.3774 -0.31772,-21.13659 -3.92707,-4.61424 -10.54869,-6.94562 -16.45644,-5.38362 -2.923,1.02866 -5.50158,3.17392 -7.66155,5.02482 -10.70776,9.17564 -9.36578,9.84694 -9.37703,2.713 -0.0204,-10.33724 0.13045,-25.81267 -0.10571,-36.14827 0.0362,-2.05984 -0.59552,-4.28029 -1.5361,-6.18619 -2.58931,-5.30496 -8.09197,-9.18976 -14.05337,-9.38282 -6.23161,-0.35642 -12.60426,3.03209 -15.49855,8.61978 -1.81315,3.27994 -2.31205,7.11758 -2.05451,10.81374 l -0.19975,84.13942 c -0.004,1.56259 -6.21152,-7.31461 -9.82653,-8.79017 -6.29629,-2.40716 -13.99306,-0.44488 -18.31137,4.7517 -4.0795,4.6462 -5.23454,11.66288 -2.71567,17.33283 1.19305,2.90194 3.31476,5.28854 5.62419,7.35918 8.47639,8.47774 16.95265,16.95562 25.42913,25.43329 v 30.02774 c -7.31581,-7.18256 -14.75057,-14.33942 -20.79798,-22.65994 -14.22438,-19.00627 -23.23689,-41.87876 -25.70183,-65.49653 -2.49478,-23.23978 1.16308,-47.13601 10.69089,-68.49319 9.31694,-21.05552 24.24535,-39.57621 42.80611,-53.19587 3.10926,-2.31646 6.35941,-4.43392 9.62902,-6.51494 0.38882,0.24724 0.77764,0.49448 1.16646,0.74171 z"
         sodipodi:nodetypes="scccccccccccccccccccccccccccsssccccccccsccccccsccccccccccccs" /></g></g><g
     id="g14774"
     style="fill:#ffffff" /><g
     id="g14776"
     style="fill:#ffffff" /><g
     id="g14778"
     style="fill:#ffffff" /><g
     id="g14780"
     style="fill:#ffffff" /><g
     id="g14782"
     style="fill:#ffffff" /><g
     id="g14784"
     style="fill:#ffffff" /><g
     id="g14786"
     style="fill:#ffffff" /><g
     id="g14788"
     style="fill:#ffffff" /><g
     id="g14790"
     style="fill:#ffffff" /><g
     id="g14792"
     style="fill:#ffffff" /><g
     id="g14794"
     style="fill:#ffffff" /><g
     id="g14796"
     style="fill:#ffffff" /><g
     id="g14798"
     style="fill:#ffffff" /><g
     id="g14800"
     style="fill:#ffffff" /><g
     id="g14802"
     style="fill:#ffffff" /></g><text
   xml:space="preserve"
   style="font-style:normal;font-weight:normal;font-size:333.902px;line-height:1.25;font-family:sans-serif;letter-spacing:-13.157px;fill:#000000;fill-opacity:1;stroke:none;stroke-width:8.34757"
   x="399.82022"
   y="396.02957"
   id="text27214"
   transform="scale(1.1263772,0.88780205)"><tspan
     sodipodi:role="line"
     id="tspan27212"
     x="399.82022"
     y="396.02957"
     style="font-style:normal;font-variant:normal;font-weight:bold;font-stretch:normal;font-family:'Tlwg Typewriter';-inkscape-font-specification:'Tlwg Typewriter Bold';stroke-width:8.34757" /></text><g
   aria-label="SAGE"
   transform="scale(0.9546193,1.047538)"
   id="text227594"
   style="font-weight:bold;font-size:334.601px;line-height:1.25;font-family:'Tlwg Typewriter';-inkscape-font-specification:'Tlwg Typewriter Bold';letter-spacing:-10px;stroke-width:8.36503" /><g
   aria-label="sage"
   transform="matrix(0.39788794,0,0,0.45475687,1.1763193,17.640783)"
   id="text388106"
   style="font-weight:bold;font-size:361.816px;line-height:1.25;font-family:'Tlwg Typewriter';-inkscape-font-specification:'Tlwg Typewriter Bold';letter-spacing:-27.0334px;fill:#22282a;fill-opacity:1;stroke-width:9.04543"><g
     aria-label="sage"
     transform="matrix(0.57040831,0,0,0.4990768,255.64761,103.60435)"
     id="text27314"
     style="font-weight:normal;font-size:637.213px;font-family:Rubik;-inkscape-font-specification:Rubik;fill:#000000;stroke-width:144.097"><path
       id="path28516"
       style="font-weight:300;-inkscape-font-specification:'Rubik Light';fill:#2c333a;fill-opacity:1;stroke-width:32.2381"
       d="m 466.50781,75.175781 c -5.38713,0.06622 -10.81583,1.152068 -15.65234,3.574219 -5.59961,2.808719 -10.27405,7.346168 -13.42383,12.746094 -3.21289,5.452074 -5.04441,11.640396 -5.79492,17.902346 -0.4551,3.78273 -0.4518,7.60051 -0.39844,11.40429 0.0517,2.91548 0.27209,5.83317 0.77734,8.70704 0.89304,5.26162 2.58776,10.42115 5.28907,15.03906 2.49731,4.28952 5.82023,8.14963 9.92578,10.9707 3.2961,2.26153 7.03217,3.86943 10.93359,4.73438 4.44201,1.00315 9.04733,1.16529 13.57227,0.74023 4.23554,-0.39275 8.4135,-1.45126 12.30273,-3.17969 2.92339,-1.27286 5.68561,-2.9223 8.16016,-4.93554 2.63413,-2.09938 5.0332,-4.55454 6.76172,-7.46289 1.06886,-1.7722 1.90854,-3.74549 2.04297,-5.83204 0.11159,-1.58286 -0.3579,-3.2007 -1.32618,-4.46093 -0.49554,-0.66499 -1.13993,-1.20409 -1.84765,-1.63086 -1.64901,-1.03759 -3.58671,-1.52868 -5.51563,-1.66797 -0.89038,-0.057 -1.79379,-0.12051 -2.67383,0.0684 -1.50652,0.29562 -2.91993,1.0037 -4.11132,1.96484 -0.91782,0.76019 -1.6307,1.72628 -2.31641,2.69141 -0.53292,0.72941 -1.14326,1.3972 -1.79883,2.01758 -0.98575,0.98128 -2.11288,1.81682 -3.33398,2.48242 -1.35531,0.77423 -2.76446,1.46916 -4.2461,1.96679 -1.47863,0.46706 -3.0232,0.68426 -4.5664,0.79102 -0.083,0.006 -0.26287,0.0157 -0.38281,0.0234 -2.62158,0.15845 -5.31508,-0.025 -7.78907,-0.96485 -1.99465,-0.73688 -3.76863,-1.98658 -5.26562,-3.48437 -1.76311,-1.73318 -3.19086,-3.79579 -4.23047,-6.03711 -0.67647,-1.41014 -1.49457,-2.77446 -1.86523,-4.30859 -0.0998,-0.42386 -0.21219,-0.85108 -0.25196,-1.28516 -0.0254,-0.69504 0.5755,-1.25439 1.21289,-1.41406 0.4177,-0.0936 0.84912,-0.0297 1.27344,-0.0488 14.64811,-0.003 29.29734,0.004 43.94531,-0.0195 2.94261,-0.14486 5.72339,-2.14218 6.73828,-4.91797 0.46622,-1.21079 0.53926,-2.52858 0.49024,-3.8125 0.0239,-4.60102 -0.28634,-9.22642 -1.29688,-13.72461 -1.16606,-5.235009 -3.20918,-10.307579 -6.25,-14.740234 -2.22814,-3.221959 -5.03111,-6.056756 -8.28711,-8.242188 -3.79075,-2.56315 -8.15028,-4.25051 -12.65625,-5.017578 -2.68562,-0.477282 -5.41878,-0.658923 -8.14453,-0.636719 z m -152.77539,0.002 c -4.03733,0.07998 -8.11394,0.547325 -11.9375,1.902344 -3.76976,1.349503 -7.36586,3.298736 -10.33984,6.001953 -2.17339,1.978773 -4.18562,4.189761 -5.61719,6.773438 -0.96399,1.748584 -1.70132,3.636014 -2.06445,5.603515 -0.26128,1.39297 -0.28039,2.843645 0.0723,4.222657 0.42724,1.745602 1.47002,3.371352 3.00196,4.341802 1.29639,0.84574 2.8668,1.14863 4.39453,1.16601 0.71937,0.007 1.43876,-0.002 2.1582,-0.004 1.09019,-0.0137 2.19831,-0.17489 3.18945,-0.65039 1.73724,-0.79432 3.09578,-2.32478 3.75196,-4.11133 0.34681,-0.867797 0.68651,-1.753365 1.24218,-2.513677 1.23935,-1.809818 3.07091,-3.151175 5.0586,-4.039062 2.00352,-0.87629 4.19616,-1.219851 6.36719,-1.330078 0.085,-0.0025 0.25558,-0.01145 0.375,-0.01563 1.05274,-0.03832 2.10854,-0.02123 3.16015,0.03906 0.0846,0.0049 0.25623,0.01572 0.375,0.02344 2.33598,0.161867 4.70104,0.541303 6.83789,1.541015 2.16704,1.036355 3.91608,2.91858 4.76563,5.167969 0.48449,1.277093 0.71923,2.643593 0.76562,4.005853 0.01,0.61665 -0.25185,1.24274 -0.7539,1.61524 -0.4379,0.3355 -0.96312,0.55662 -1.5,0.67187 -6.17991,0.86113 -12.36132,1.71034 -18.53516,2.61328 -5.77985,0.97596 -11.48096,2.73144 -16.58008,5.66407 -2.75309,1.59522 -5.36484,3.49251 -7.5,5.86719 -3.05569,3.35516 -5.03934,7.66754 -5.60351,12.16992 -0.53834,3.93631 -0.17571,8.02631 1.27148,11.74023 1.24409,3.21631 3.25868,6.10782 5.73242,8.5 4.47562,4.41179 10.32053,7.38022 16.4961,8.50391 3.02584,0.56205 6.12158,0.65772 9.18945,0.49414 3.68058,-0.17365 7.37882,-0.6773 10.86719,-1.9043 2.686,-0.95906 5.26698,-2.22515 7.64453,-3.80273 0.90749,2.02464 2.77484,3.6074 4.94336,4.10742 1.43018,0.3506 2.9134,0.23428 4.37109,0.24414 1.30022,-0.0174 2.62424,-0.23986 3.77735,-0.86719 2.14015,-1.10997 3.68112,-3.32839 3.90039,-5.73828 0.14459,-1.28778 0.0549,-2.58644 0.0703,-3.87891 0,-0.0905 0.004,-0.27678 0.006,-0.40429 -0.003,-15.09941 0.005,-30.1995 -0.0234,-45.29883 -0.15547,-4.136943 -0.97781,-8.269593 -2.60156,-12.085936 -1.37555,-3.075981 -3.38122,-5.851818 -5.76758,-8.222656 -2.45129,-2.397947 -5.45392,-4.169127 -8.60938,-5.47461 -4.09743,-1.697385 -8.53843,-2.396953 -12.94921,-2.582031 -1.13347,-0.04805 -2.26793,-0.06328 -3.40235,-0.05664 z m -72.2832,0.0059 c -0.65706,-0.01017 -1.31365,-0.0062 -1.9707,0.0039 -3.81759,0.110863 -7.65764,0.636097 -11.26563,1.927734 -3.16353,1.133652 -6.13389,2.815472 -8.71094,4.97461 -1.80806,1.511972 -3.39865,3.281667 -4.70703,5.242187 -2.19717,3.292316 -3.68294,7.102683 -4.04101,11.058594 -0.21717,2.341914 -0.0468,4.709254 0.37304,7.019534 0.4471,2.36284 1.20673,4.67968 2.36719,6.79101 1.50941,2.67286 3.75046,4.87143 6.25195,6.6211 2.97858,2.09176 6.37558,3.49083 9.8086,4.64648 3.97082,1.34123 8.08891,2.15439 12.14843,3.16992 0.17241,0.0433 0.41172,0.1041 0.60938,0.1543 2.9247,0.75455 5.84049,1.57016 8.66602,2.64453 1.4211,0.55946 2.83443,1.21078 4.02148,2.1875 0.71497,0.60607 1.27006,1.43295 1.42383,2.36914 0.21288,1.09745 0.17252,2.24112 -0.0703,3.33008 -0.2753,1.15646 -0.91491,2.22715 -1.83594,2.98437 -1.12878,0.96982 -2.49515,1.61246 -3.875,2.14063 -2.79522,1.03348 -5.79257,1.38607 -8.75781,1.42773 -0.3969,0.006 -0.84141,0.002 -1.20899,-0.004 -1.12744,-0.0203 -2.25439,-0.0838 -3.375,-0.21094 -0.0867,-0.0116 -0.26898,-0.0331 -0.39258,-0.0488 -2.57339,-0.31162 -5.13282,-1.10607 -7.26953,-2.60547 -0.80013,-0.55647 -1.50824,-1.23128 -2.16406,-1.94922 -1.19257,-1.24107 -2.23678,-2.61393 -3.36133,-3.91406 -1.25215,-1.3415 -2.96509,-2.31061 -4.81445,-2.45703 -1.00165,-0.10112 -2.00894,-0.0657 -3.01367,-0.0527 -0.16962,0.003 -0.40757,-0.007 -0.60352,0.0137 -1.78684,0.1311 -3.4645,0.96201 -4.82031,2.10547 -0.97474,0.83491 -1.73136,1.94025 -2.07227,3.18359 -0.49523,1.70098 -0.295,3.54506 0.33399,5.18359 0.59541,1.64618 1.44643,3.19205 2.43554,4.63282 1.64726,2.31993 3.70771,4.32297 5.9336,6.08398 2.98372,2.28471 6.40117,3.9374 9.91601,5.23047 4.2158,1.49732 8.70867,2.06793 13.16602,2.13281 2.45878,0.0272 4.92186,-0.0725 7.36523,-0.35547 4.01538,-0.46841 7.99681,-1.46817 11.63867,-3.25 3.85517,-1.87534 7.38065,-4.54575 9.94336,-8.00781 2.4339,-3.26037 4.11146,-7.12365 4.60352,-11.17578 0.34454,-2.76765 0.21885,-5.59252 -0.33789,-8.32422 -0.69498,-3.36933 -2.15592,-6.60123 -4.37109,-9.24609 -1.83275,-2.19298 -4.16118,-3.92188 -6.62891,-5.33789 -3.07096,-1.75359 -6.37636,-3.06553 -9.75977,-4.07813 -2.22381,-0.67578 -4.48313,-1.22678 -6.74609,-1.7539 -0.33508,-0.0804 -0.71977,-0.17405 -1.07422,-0.25977 -0.92301,-0.22257 -1.81351,-0.44773 -2.73242,-0.6875 -2.65963,-0.69795 -5.30607,-1.46214 -7.89453,-2.39258 -1.67736,-0.6257 -3.32634,-1.39324 -4.74414,-2.5 -0.55197,-0.45309 -0.9662,-1.06846 -1.15821,-1.75781 -0.41778,-1.34714 -0.31128,-2.820501 0.12696,-4.148438 0.49007,-1.421047 1.54557,-2.585392 2.7832,-3.408203 1.14923,-0.77237 2.47592,-1.240338 3.82617,-1.515625 1.86344,-0.399921 3.77586,-0.510053 5.67774,-0.494141 0.0841,6.81e-4 0.27246,0.0041 0.39648,0.0059 0.90685,0.01823 1.81394,0.06141 2.7168,0.15039 0.0697,0.0085 0.24629,0.02676 0.35742,0.03906 1.35956,0.152357 2.70473,0.449359 3.98242,0.943359 1.30735,0.476141 2.58054,1.136435 3.56055,2.142578 0.29979,0.301973 0.57623,0.624233 0.85742,0.94336 0.0373,0.04639 0.15482,0.180653 0.2207,0.263672 0.78259,0.951712 1.44337,1.994818 2.17188,2.986328 0.92344,1.18616 2.14024,2.20388 3.59375,2.65235 1.78447,0.38497 3.62717,0.57895 5.44922,0.39453 1.27243,-0.13292 2.53973,-0.49095 3.625,-1.1836 1.681,-1.0361 2.96791,-2.754636 3.32617,-4.71289 0.34724,-1.835575 -0.0431,-3.740359 -0.78906,-5.429687 -0.76927,-1.79374 -1.79825,-3.469814 -2.97266,-5.025391 -1.80838,-2.278843 -4.03371,-4.195752 -6.42187,-5.84375 -2.80079,-1.865435 -5.91737,-3.22269 -9.12696,-4.210937 -3.43143,-1.017388 -7.0221,-1.379306 -10.58984,-1.439453 z m 146.28906,0 c -4.49739,0.07821 -9.02842,0.803944 -13.19922,2.533203 -3.6004,1.499949 -6.89201,3.723935 -9.66211,6.466797 -2.84908,2.821481 -5.08536,6.218187 -6.79883,9.832031 -2.3196,4.899968 -3.58868,10.240268 -4.17382,15.613288 -0.34997,3.23995 -0.36475,6.50452 -0.35352,9.75976 0.0152,4.24037 0.2982,8.49757 1.17188,12.6543 0.88693,4.34487 2.3021,8.60636 4.45898,12.49219 1.93142,3.5151 4.4286,6.74748 7.50977,9.33007 3.60526,3.04835 7.93252,5.24928 12.53515,6.31446 4.49694,1.06211 9.1676,1.22764 13.75977,0.83789 3.78122,-0.33442 7.55159,-1.17619 10.99609,-2.80274 0.84302,-0.38545 1.64359,-0.85313 2.45508,-1.29882 0.42541,-0.20106 0.87037,-0.44231 1.35352,-0.42774 0.13649,0.0217 0.13872,0.21224 0.18164,0.31445 0.12548,0.59776 0.0497,1.21446 0.0664,1.82032 -0.0109,1.73403 -0.007,3.46758 -0.043,5.20117 -0.12305,2.54479 -0.45881,5.11031 -1.33789,7.51367 -0.66167,1.75369 -1.61263,3.42543 -2.9375,4.76367 -1.28946,1.25851 -2.92587,2.12387 -4.65234,2.61328 -2.69379,0.84101 -5.51754,1.16939 -8.32813,1.28907 -0.14738,0.006 -0.36946,0.0111 -0.54492,0.0176 -0.36225,0.0102 -0.72457,0.0507 -1.08593,0.0234 -1.2998,-0.0981 -2.60452,-0.29119 -3.85352,-0.66406 -1.45247,-0.43362 -2.91684,-0.94182 -4.17188,-1.8125 -1.3172,-0.87833 -2.54162,-1.95441 -3.35937,-3.32617 -0.55205,-0.90051 -1.06633,-1.8269 -1.53125,-2.77539 -0.39357,-0.81136 -0.70398,-1.65725 -1,-2.50782 -0.64554,-1.71073 -1.8256,-3.2423 -3.41016,-4.17773 -1.89635,-1.1425 -4.23147,-1.41129 -6.38281,-0.98828 -1.94694,0.38188 -3.81512,1.29851 -5.20898,2.72461 -1.2113,1.27903 -1.93482,3.01131 -1.96094,4.77539 -0.0484,1.64162 0.33728,3.25595 0.75391,4.83203 0.47981,1.68876 1.08156,3.34608 1.82812,4.93555 1.32635,2.73748 3.18025,5.20269 5.3457,7.33203 2.42771,2.39412 5.35707,4.23219 8.44336,5.6543 1.5376,0.70698 3.1219,1.3148 4.75586,1.75976 3.53316,0.97904 5.05937,1.34386 7.6543,1.52539 4.01013,0.28053 8.06236,-0.0502 12.03906,-0.6875 3.92434,-0.63344 7.80675,-1.79448 11.26367,-3.78906 4.50057,-2.58555 8.35416,-6.36067 10.82617,-10.94141 1.36389,-2.51434 2.28591,-5.24184 3.00782,-8.00195 0.51233,-2.0037 0.9149,-4.03799 1.16211,-6.0918 0.25104,-2.49511 0.33161,-5.00455 0.41406,-7.50976 0.0906,-3.14565 0.11872,-6.2926 0.0957,-9.43946 -0.002,-22.60882 0.005,-45.21745 -0.0176,-67.826171 -0.11216,-2.182221 -1.28038,-4.237706 -2.97851,-5.585938 -1.5117,-1.254521 -3.5291,-1.810304 -5.47461,-1.683593 -1.40276,-0.0089 -2.84913,-0.06408 -4.18945,0.421875 -2.12465,0.744935 -3.85425,2.494896 -4.625,4.603515 -0.009,0.186826 -0.094,0.149357 -0.21094,0.04492 -2.7002,-1.845198 -5.6432,-3.37824 -8.80078,-4.267578 -3.81983,-1.104919 -7.82115,-1.455375 -11.78516,-1.394531 z m 79.2168,17.318359 c 0.16956,4.54e-4 0.34023,0.003 0.50976,0.0039 1.97704,0.0332 3.96242,0.299857 5.8418,0.929688 0.0571,0.02122 0.22736,0.07704 0.32813,0.115234 2.51751,0.923665 4.79146,2.482616 6.60937,4.449219 1.30195,1.429857 2.33314,3.092159 3.11524,4.857419 0.0235,0.0583 0.0957,0.21433 0.13671,0.31446 0.57164,1.38672 1.0627,2.82453 1.26368,4.3164 0.037,0.41598 0.10125,0.86778 -0.0859,1.25781 -0.19491,0.28355 -0.57502,0.33143 -0.88672,0.39844 -1.03623,0.15483 -2.08735,0.0817 -3.13086,0.0996 -9.1763,-0.002 -18.35304,0.001 -27.5293,-0.004 -0.94026,-0.0282 -1.8986,-0.0431 -2.80664,-0.31445 -0.28869,-0.0914 -0.6307,-0.25273 -0.67187,-0.5918 -0.0927,-0.66711 0.0925,-1.33139 0.23437,-1.97851 0.0508,-0.20909 0.12178,-0.49775 0.18946,-0.74024 0.66936,-2.48445 1.76718,-4.87703 3.38671,-6.888667 2.09939,-2.645045 5.01712,-4.665662 8.28907,-5.546874 1.56712,-0.434029 3.19322,-0.628559 4.8164,-0.669922 0.065,-0.0016 0.27093,-0.0057 0.39063,-0.0078 z m -77.29492,1.009766 c 0.1078,0.0016 0.21443,0.0042 0.32226,0.0059 2.67573,0.05861 5.40212,0.455972 7.82813,1.640625 1.5289,0.763927 2.8871,1.844242 4.0625,3.078125 1.52539,1.863384 2.94351,3.831854 4.04883,5.976564 0.49946,0.96038 0.89695,1.97365 1.16992,3.02149 0.59286,2.12243 0.90828,4.31518 0.99804,6.51562 0.0573,1.06804 0.0894,2.13762 0.10547,3.20703 -2.2e-4,0.0898 0.002,0.27307 0.002,0.39844 0.009,0.84381 9.9e-4,1.7328 -0.0117,2.54687 -0.0544,2.9183 -0.18374,5.8702 -0.95508,8.70118 -0.44979,1.63959 -1.2303,3.15788 -1.90039,4.71289 -0.77211,1.71688 -1.82309,3.3072 -3.10547,4.68554 -1.06739,1.15 -2.273,2.18363 -3.61523,3 -2.28119,1.33555 -4.93438,1.87836 -7.54883,2.02735 -0.46527,0.028 -0.93043,0.0418 -1.39649,0.0469 -0.0725,-0.001 -0.26636,-0.002 -0.38476,-0.002 -2.52008,-0.0307 -5.07655,-0.31536 -7.43946,-1.23633 -1.43251,-0.54799 -2.76028,-1.36289 -3.89062,-2.40039 -1.90187,-1.72044 -3.34998,-3.91935 -4.25977,-6.3125 -0.45605,-1.20437 -0.82791,-2.43868 -1.16992,-3.67969 -0.71592,-2.60835 -1.1069,-5.30408 -1.17383,-8.00781 -0.04,-1.44399 -0.055,-2.87269 -0.0449,-4.32812 0,-0.10128 0.004,-0.28804 0.006,-0.42188 0.036,-2.29634 0.11687,-4.60346 0.53516,-6.86719 0.41551,-2.3089 1.14922,-4.54791 1.99804,-6.73047 0.86923,-2.14242 2.17546,-4.11263 3.85547,-5.705076 0.0548,-0.05289 0.19451,-0.18068 0.28321,-0.259766 1.22641,-1.104542 2.66672,-1.973021 4.22851,-2.511719 2.38384,-0.850282 4.93629,-1.096401 7.45313,-1.101562 z M 328.9375,122.30664 c 0.29007,0.062 0.39763,0.41547 0.37109,0.67969 -0.0909,3.24428 -0.53046,6.51979 -1.71484,9.55859 -0.46542,1.18702 -1.0389,2.33366 -1.72266,3.41016 -0.0408,0.06 -0.14366,0.22386 -0.21093,0.32226 -1.14176,1.70817 -2.51188,3.18328 -4.22266,4.35157 -2.04706,1.39492 -4.40225,2.29967 -6.82031,2.80273 -3.38326,0.68891 -6.92042,0.57349 -10.26367,-0.27734 -1.64099,-0.41826 -3.22268,-1.10197 -4.59766,-2.09766 -0.84676,-0.61381 -1.64376,-1.31755 -2.27148,-2.1582 -0.841,-1.16545 -1.1491,-2.63602 -1.14454,-4.05274 -0.008,-0.99535 0.19659,-2.00405 0.69532,-2.87304 0.77604,-1.32673 1.98233,-2.34262 3.26757,-3.15625 2.23723,-1.40306 4.74232,-2.31734 7.27539,-3.02539 3.44753,-0.97124 6.99871,-1.48564 10.54102,-1.96875 3.41547,-0.4746 6.83912,-0.95873 10.25781,-1.4336 0.18765,-0.0203 0.37433,-0.0602 0.56055,-0.082 z"
       transform="matrix(4.4060902,0,0,4.4060899,-450.46999,-269.14974)" /></g><text
     xml:space="preserve"
     transform="matrix(1.0535434,0,0,0.92179415,-18.064477,7.2867248)"
     id="text30525"
     style="font-style:normal;font-weight:normal;font-size:40px;line-height:1.25;font-family:sans-serif;white-space:pre;shape-inside:url(#rect30527);fill:#000000;fill-opacity:1;stroke:none" /></g></svg>
