<svg id="Flat" width="500" height="250" version="1.1" viewBox="0 0 500 250" xmlns="http://www.w3.org/2000/svg"><g fill="#8690fa"><g transform="matrix(.38654 0 0 .38654 -3.8503 24.283)"><path d="m107.71 1.0081c-4.4007.11811-8.7874.72794-13.051 1.8265-.31806.08487-1.0187.26984-1.4888.40386-13.373 3.8077-25.22 12.608-32.791 24.263-3.4608 5.2917-6.0503 11.152-7.6303 17.274-.08446.38475-.29182 1.1612-.40615 1.7009-1.1867 5.0995-1.527 10.352-1.4262 15.575 0 130.61-.01005 261.23.01006 391.84.02715 4.7782.6506 9.5511 1.841 14.178.08447.31807.26979 1.0187.40383 1.4888 3.8077 13.373 12.608 25.22 24.263 32.79 5.2918 3.4608 11.152 6.0503 17.274 7.6303.38473.0843 1.1612.29182 1.7009.40618 5.0994 1.1866 10.352 1.5271 15.575 1.4262 116.79-.003 233.58.006 350.36-.005 6.3061.0149 12.438-3.584 15.536-9.0702 3.4033-5.7713 3.172-13.439-.58071-18.991-3.2832-5.0588-9.2249-8.2314-15.257-8.134-117.68-.003-235.37.007-353.05-.005-7.078-.0198-13.99-3.7333-17.965-9.5808-4.2-5.9791-5.0846-14.092-2.2854-20.839 2.7683-6.9598 9.2976-12.26 16.693-13.486 3.2822-.57058 6.629-.24845 9.9414-.33357 115.66-.003 231.31.006 346.97-.005 6.3061.0149 12.438-3.584 15.536-9.0702 1.8633-3.1468 2.5724-6.8545 2.4122-10.482-.011-19.509.0221-39.018-.0171-58.526-.15818-6.4228-4.0748-12.555-9.8076-15.441-5.9085-3.1154-13.531-2.5423-18.896 1.4426-4.7474 3.3862-7.6272 9.1758-7.48 15.004v40.877h-276.53c-.01-98.629.01-197.26-.01-295.89-.0161-6.3407-3.6934-12.482-9.2423-15.535-5.7809-3.3199-13.396-3.0261-18.901.73514-5.0097 3.2959-8.1461 9.2038-8.0494 15.202v295.49c-8.0071.0211-16.015-.0429-24.022.0331-6.4885.18273-12.906 1.5611-18.987 3.8058-.52983.10463-1.4997.82504-1.2361-.18038 0-113.26-.01005-226.51 0-339.77.02011-7.0779 3.7334-13.99 9.5808-17.965 3.9564-2.7683 8.8313-4.0914 13.643-3.9072h333.75c0 72.15-.01 144.3.01 216.45.0161 6.3407 3.6934 12.482 9.2423 15.535 5.7809 3.3199 13.396 3.0261 18.901-.73512 5.0098-3.2959 8.1461-9.2038 8.0494-15.203-.01-78.133.01-156.27-.01-234.4-.0161-6.3407-3.6933-12.482-9.2423-15.535-3.1093-1.7932-6.7467-2.4672-10.308-2.3122-117.33.004022-234.67-.00905-352 .006033-.34239.004022-.68479.00905-1.0272.013173z" fill="#57db57" stroke-width="1.0056"/><g transform="translate(-475.4 -433.87)"></g><g transform="matrix(.93252 0 0 .93252 101.24 -747.04)"><g transform="translate(-44.755 788.33)"><g transform="matrix(1.0705 0 0 1.0705 -12.369 -19.727)"><path d="m259.22 101.28c-4.463.19651-8.2893 2.7738-12.061 4.8926-.68923.40297-1.5626.90157-2.1369 1.2446-27.205 16.168-49.441 40.622-62.754 69.349-4.5162 9.6734-8.068 19.952-10.525 30.246-.60444 2.5475-1.1636 5.1653-1.6265 7.6527-1.5484 8.234-2.435 16.591-2.6619 24.966-.0388 1.6768-.0696 3.5782-.057 5.3426.10075 18.339 3.3882 36.656 9.6747 53.885.41714 1.1231.92242 2.4974 1.4084 3.7037 3.2519 8.2707 7.2335 16.25 11.824 23.858.48654.77106 1.1004 1.8055 1.6582 2.6678 10.678 16.862 24.556 31.692 40.685 43.448.77329.55261 1.767 1.2806 2.6439 1.8834 3.5668 2.4907 7.3765 4.8983 11.04 7.0586 1.2816.74018 2.3834 1.3752 3.6971 2.077 1.882.94338 3.7125 2.0487 5.7236 2.6927 4.7174 1.3557 9.9169.26296 13.973-2.4066 28.643-15.516 52.359-40.025 66.728-69.277 2.5457-5.1414 4.7944-10.428 6.7687-15.814.39716-1.1246.89522-2.4964 1.3013-3.726 6.2527-18.522 9.0522-38.199 8.2054-57.73-.0544-.91409-.0965-2.1166-.17011-3.1458-1.5836-25.618-9.3911-50.862-22.803-72.765-10.33-16.966-23.861-31.978-39.689-43.982-1.0614-.80571-2.3375-1.745-3.4986-2.5769-5.0828-3.6108-10.35-6.9958-15.877-10.009-2.6232-1.3661-5.2119-3.0224-8.2158-3.3688-1.0773-.16427-2.1689-.20128-3.257-.16592zm2.0232 34.763c23.31 14.527 41.76 36.767 51.5 62.468 9.1152 23.85 10.883 50.459 4.8791 75.285-4.6651 19.54-14.027 37.948-27.161 53.157-3.8725 4.5878-8.2112 8.7427-12.476 12.957l-1.9793 1.9611v-70.874c10.897-10.987 21.487-22.25 32.266-33.359 4.6655-5.6584 4.6033-14.679-.30329-20.176-3.7486-4.4046-10.069-6.63-15.709-5.139-2.7902.98193-5.2516 3.0297-7.3134 4.7965-10.221 8.7588-8.9403 9.3995-8.951 2.5897-.0195-9.8676.12452-22.2-.10091-32.066.0345-1.9663-.56846-4.0858-1.4663-5.9051-2.4717-5.0639-7.7243-8.7722-13.415-8.9565-5.9485-.34023-12.032 2.8943-14.794 8.2281-1.7308 3.1309-2.207 6.7942-1.9612 10.322l-.19067 77.876c-.004 1.4916-5.9293-6.9823-9.3801-8.3908-6.0102-2.2978-13.357-.42467-17.479 4.5358-3.8942 4.4351-4.9967 11.133-2.5923 16.545 1.1388 2.7701 3.1642 5.0482 5.3687 7.0248 8.0913 8.0926 16.182 16.185 24.274 24.278v28.663c-6.9834-6.8562-14.08-13.688-19.853-21.63-13.578-18.143-22.181-39.976-24.534-62.521-2.3814-22.184 1.1102-44.994 10.205-65.381 8.8936-20.099 23.144-37.778 40.861-50.779 2.968-2.2112 6.0705-4.2325 9.1915-6.2189.37115.23601.74231.47201 1.1135.70801z" fill="#96e996" stroke-width="1.0553"/></g></g></g></g><path d="m290.66 116.2h-20.821c-.67638 0-1.2248-.5484-1.2248-1.2248v-20.821c0-3.3819-2.742-6.1239-6.1239-6.1239s-6.1239 2.742-6.1239 6.1239v20.821c0 .67638-.5484 1.2248-1.2248 1.2248h-20.821c-3.3819 0-6.1239 2.742-6.1239 6.1239s2.742 6.1239 6.1239 6.1239h20.821c.67638 0 1.2248.5484 1.2248 1.2248v20.821c0 3.3819 2.742 6.1239 6.1239 6.1239s6.1239-2.742 6.1239-6.1239v-20.821c0-.67638.54841-1.2248 1.2248-1.2248h20.821c3.3819 0 6.1239-2.742 6.1239-6.1239s-2.742-6.1239-6.1239-6.1239z" fill="#d2d7df" stroke-width=".1531"/></g><g transform="matrix(.39559 0 0 .39559 311.22 21.976)"><path d="m392 488h-272a48 48 0 01-48-48v-368a48 48 0 0148-48h224l96 96v320a48 48 0 01-48 48z" fill="#fff6af"/><path d="m72 360h368v80a48 48 0 01-48 48h-272a48 48 0 01-48-48z" fill="#ffd714"/><path d="m440 120h-48a48 48 0 01-48-48v-48z" fill="#ffec80"/><g fill="#fac419"><circle cx="261.14" cy="238.12" r="11.459" stroke-width="1.4323"/><circle cx="261.18" cy="195.26" r="11.459" stroke-width="1.4323"/><path d="m209.49 272a8.009 8.009 0 01-8-8v-32a23.9 23.9 0 00-6.131-16 23.9 23.9 0 006.131-16v-32a8.009 8.009 0 018-8 8 8 0 000-16 24.028 24.028 0 00-24 24v32a8.009 8.009 0 01-8 8 8 8 0 000 16 8.009 8.009 0 018 8v32a24.028 24.028 0 0024 24 8 8 0 000-16z"/><path d="m342.72 208a8.009 8.009 0 01-8-8v-32a24.028 24.028 0 00-24-24 8 8 0 000 16 8.009 8.009 0 018 8v32a23.9 23.9 0 006.131 16 23.9 23.9 0 00-6.131 16v32a8.009 8.009 0 01-8 8 8 8 0 000 16 24.028 24.028 0 0024-24v-32a8.009 8.009 0 018-8 8 8 0 000-16z"/></g><path d="m240 384a8 8 0 00-8 8v48a8 8 0 01-16 0 8 8 0 00-16 0 24 24 0 0048 0v-48a8 8 0 00-8-8z" fill="#303541"/><path d="m288 400h16a8 8 0 000-16h-16a24 24 0 000 48 8 8 0 010 16h-16a8 8 0 000 16h16a24 24 0 000-48 8 8 0 010-16z" fill="#303541"/></g></svg>
