<?xml version="1.0" encoding="UTF-8" standalone="no"?>
<svg
   xmlns:dc="http://purl.org/dc/elements/1.1/"
   xmlns:cc="http://creativecommons.org/ns#"
   xmlns:rdf="http://www.w3.org/1999/02/22-rdf-syntax-ns#"
   xmlns:svg="http://www.w3.org/2000/svg"
   xmlns="http://www.w3.org/2000/svg"
   xmlns:xlink="http://www.w3.org/1999/xlink"
   xmlns:sodipodi="http://sodipodi.sourceforge.net/DTD/sodipodi-0.dtd"
   xmlns:inkscape="http://www.inkscape.org/namespaces/inkscape"
   id="Capa_1"
   enable-background="new 0 0 512 512"
   height="512"
   viewBox="0 0 512 512"
   width="512"
   version="1.1"
   sodipodi:docname="spell-book.svg"
   inkscape:version="1.0.1 (1.0.1+r74)">
  <metadata
     id="metadata29">
    <rdf:RDF>
      <cc:Work
         rdf:about="">
        <dc:format>image/svg+xml</dc:format>
        <dc:type
           rdf:resource="http://purl.org/dc/dcmitype/StillImage" />
        <dc:title></dc:title>
      </cc:Work>
    </rdf:RDF>
  </metadata>
  <defs
     id="defs27">
    <linearGradient
       inkscape:collect="always"
       id="linearGradient872">
      <stop
         style="stop-color:#8adf8a;stop-opacity:1;"
         offset="0"
         id="stop868" />
      <stop
         style="stop-color:#aaaaff;stop-opacity:1"
         offset="1"
         id="stop870" />
    </linearGradient>
    <linearGradient
       inkscape:collect="always"
       xlink:href="#linearGradient872"
       id="linearGradient874"
       x1="80.328094"
       y1="262.69443"
       x2="619.54132"
       y2="485.7002"
       gradientUnits="userSpaceOnUse" />
  </defs>
  <sodipodi:namedview
     pagecolor="#ffffff"
     bordercolor="#666666"
     borderopacity="1"
     objecttolerance="10"
     gridtolerance="10"
     guidetolerance="10"
     inkscape:pageopacity="0"
     inkscape:pageshadow="2"
     inkscape:window-width="1920"
     inkscape:window-height="1007"
     id="namedview25"
     showgrid="false"
     inkscape:zoom="1.0044418"
     inkscape:cx="81.413698"
     inkscape:cy="277.76082"
     inkscape:window-x="0"
     inkscape:window-y="0"
     inkscape:window-maximized="1"
     inkscape:current-layer="g22"
     inkscape:document-rotation="0" />
  <g
     id="g22">
    <path
       d="m 364.83972,276.80059 h 23.11943 c 0,-27.46435 22.3434,-49.80775 49.80775,-49.80775 v -23.11943 c -27.46435,0 -49.80775,-22.34417 -49.80775,-49.80776 h -23.11943 c 0,27.46435 -22.34341,49.80776 -49.80776,49.80776 v 23.11943 c 27.46435,0 49.80776,22.3434 49.80776,49.80775 z m 11.55971,-83.37332 c 5.67274,8.8139 13.19196,16.33312 22.00585,22.00585 -8.81389,5.67351 -16.33234,13.19196 -22.00585,22.00585 -5.67351,-8.81389 -13.19195,-16.33234 -22.00585,-22.00585 8.8139,-5.67351 16.33234,-13.19195 22.00585,-22.00585 z"
       id="path2"
       style="fill:#9ae59a;fill-opacity:1;stroke-width:0.770648" />
    <path
       d="m 172.143,310.036 h 30 v 30 h -30 z"
       id="path4"
       style="fill:#d6f5d6;fill-opacity:1" />
    <path
       d="m 309.857,103.286 h 30 v 30 h -30 z"
       id="path6"
       style="fill:#d6f5d6;fill-opacity:1" />
    <path
       d="m 309.857,310.036 h 30 v 30 h -30 z"
       id="path8"
       style="fill:#d6f5d6;fill-opacity:1" />
    <path
       d="m 413.143,103.286 h 30 v 30 h -30 z"
       id="path10"
       style="fill:#d6f5d6;fill-opacity:1" />
    <path
       d="m 413.143,310.036 h 30 v 30 h -30 z"
       id="path12"
       style="fill:#d6f5d6;fill-opacity:1" />
    <path
       d="m 68.857,103.25 h 133.285 v 30 H 68.857 Z"
       id="path14"
       style="fill:#bdefbd;fill-opacity:1" />
    <path
       d="m 68.857,172.036 h 133.285 v 30 H 68.857 Z"
       id="path16"
       style="fill:#bdefbd;fill-opacity:1" />
    <path
       d="m 68.857,241.036 h 133.285 v 30 H 68.857 Z"
       id="path18"
       style="fill:#bdefbd;fill-opacity:1" />
    <path
       d="m 494.84193,34.429 h -64.45521 c -6.74453,0.76028 -9.6418,1.902084 -14.22829,5.846718 L 393.80693,62.644 371.93784,40.757715 C 365.85311,36.141777 364.05011,34.429 354.64126,34.429 H 325.004 c -28.45863,0 -53.65183,14.275 -68.80292,36.044 -15.1511,-21.769 -40.3443,-36.044 -68.80293,-36.044 H 30.179135 C 9.5759616,34.404058 0.6820595,42.810835 0.40211277,63.498178 V 448.82937 C 0.45713085,470.6029 7.339085,477.61566 29.487779,477.572 l 467.889801,-0.0319 c 9.91419,-0.0201 14.64153,-5.37702 14.67561,-13.82897 l -0.051,-412.274989 C 512.034,37.846569 508.10538,34.391355 494.84193,34.429 Z m -169.83793,30 h 28.19385 l 29.7713,29.795429 c 7.69995,8.175581 12.77665,8.154341 21.01111,0.665248 L 434.41702,64.429 h 47.60658 v 260.429 c 0,29.697 -24.14103,53.857 -53.81471,53.857 H 325.004 c -20.46791,0 -39.24615,7.385 -53.8147,19.63 V 118.286 c 0,-29.697 24.14103,-53.857 53.8147,-53.857 z m -294.625446,0 H 187.39815 c 29.67368,0 53.81471,24.16 53.81471,53.857 v 280.059 c -14.56855,-12.245 -33.3468,-19.63 -53.81471,-19.63 h -28.19384 l -29.11978,-29.14337 c -8.52089,-8.70757 -14.26217,-9.20689 -22.71454,-0.26429 L 78.305887,378.395 C 51.390041,375.451 30.378554,352.564 30.378554,324.857 Z m 0,324.639 c 14.56955,12.25 33.341796,19.647 53.814706,19.647 4.697745,0.0359 5.798277,-0.196 9.330632,-3.12485 L 118.59522,380.5 142.4438,404.36732 c 3.54946,4.46865 5.013,4.1548 11.45441,4.34768 h 33.49994 c 24.47277,0 45.1675,16.438 51.67539,38.857 H 30.378554 Z m 242.950066,58.503 c 6.50788,-22.418 27.20262,-38.857 51.67538,-38.857 h 103.2039 c 20.47291,0 39.24615,-7.397 53.8147,-19.647 v 58.504 z"
       id="path20"
       sodipodi:nodetypes="ccccccscsccccccccscccccssscsscsscsccccscccccccsccccssccc"
       style="fill:#71db71;fill-opacity:1;stroke-width:0.999607" />
    <g
       id="g1110"
       transform="translate(-639.85942,129.46747)">
      <g
         id="g1046" />
      <g
         id="g1048" />
      <g
         id="g1050" />
      <g
         id="g1052" />
      <g
         id="g1054" />
      <g
         id="g1056" />
      <g
         id="g1058" />
      <g
         id="g1060" />
      <g
         id="g1062" />
      <g
         id="g1064" />
      <g
         id="g1066" />
      <g
         id="g1068" />
      <g
         id="g1070" />
      <g
         id="g1072" />
      <g
         id="g1074" />
    </g>
    <path
       d="m 3158.453,204.03221 c -13.852,-13.852 -29.018,-25.912 -45.207,-36.083 -1.547,-42.688 -13.725,-84.341 -35.443,-120.979 -22.504,-37.9629996 -54.624,-69.669 -92.887,-91.69 -4.632,-2.666 -10.332,-2.666 -14.964,0 -38.35,22.072 -70.521,53.8590004 -93.037,91.927 -21.666,36.632 -33.794,78.25 -35.314,120.9 -34.844,21.863 -64.117,51.938 -84.991,87.419 -23.013,39.117 -35.177,83.906 -35.177,129.525 0,0.271 0.01,0.537 0.017,0.836 0.084,5.25 2.908,10.08 7.455,12.725 38.945,22.659 83.389,34.636 128.528,34.636 42.593,0 83.487,-10.248 120.238,-29.91 36.884,19.591 78.101,29.91 119.762,29.91 45.139,0 89.583,-11.977 128.528,-34.636 4.547,-2.645 7.371,-7.476 7.455,-12.726 0.01,-0.277 0.017,-0.555 0.017,-0.835 0,-68.38 -26.629,-132.667 -74.98,-181.019 z m -181.02,-218.249 c 58.161,36.55 96.54,97.818 104.458,165.408 -10.52,-4.704 -21.357,-8.674 -32.444,-11.906 -8.339,-41.987 -30.124,-80.263 -62.049,-108.638 -5.684,-5.051 -14.246,-5.051 -19.93,0 -41.967,37.299 -66.036,90.733 -66.036,146.603 0,49.964 19.273,97.984 53.374,134.26 -8.249,5.988 -17.051,11.227 -26.297,15.634 -36.879,-41.433 -57.076,-94.264 -57.076,-149.896 0,-77.679 40.399,-150.247 106,-191.465 z m 39.453,146.285 c -12.938,-1.99 -26.116,-3.016 -39.453,-3.016 -13.218,0 -26.505,1.061 -39.715,3.159 7.335,-25.854 20.9,-49.772 39.707,-69.508 18.551,19.524 32.095,43.378 39.461,69.365 z m -78.737,91.709 c 12.856,-3.141 26.017,-4.73 39.284,-4.73 13.49,0 26.678,1.653 39.353,4.769 -7.597,25.974 -21.32,49.122 -39.362,67.963 -18.442,-19.356 -31.846,-42.727 -39.275,-68.002 z m -39.718,114.285 c -13.178,3.384 -26.923,5.184 -40.998,5.184 -13.301,0 -26.488,-1.589 -39.357,-4.732 7.598,-25.876 21.545,-49.607 40.509,-69.065 9.534,24.63 22.92,47.758 39.846,68.613 z m -40.998,65.186 c -36.941,0 -73.352,-9.085 -105.852,-26.345 2.501,-68.588 36.472,-132.541 91.21,-173.29 1.18,11.511 3.127,22.865 5.822,33.999 -32.409,28.331 -54.736,66.427 -63.257,108.307 -1.511,7.428 2.756,14.815 9.945,17.217 20.076,6.708 40.979,10.109 62.131,10.109 86.832,0 163.134,-57.758 187.743,-139.642 9.353,4.207 18.278,9.254 26.658,15.064 -30.473,91.515 -117.194,154.581 -214.4,154.581 z m 238.826,-133.932 c 18.622,19.063 32.784,42.652 40.541,69.195 -12.873,3.146 -26.063,4.734 -39.367,4.734 -13.893,0 -27.601,-1.749 -40.965,-5.191 16.708,-20.711 30.195,-43.96 39.791,-68.738 z m 1.174,133.932 c -30.874,0 -61.479,-6.429 -89.78,-18.735 1.84,-1.338 3.67,-2.693 5.482,-4.084 7.257,-5.573 14.191,-11.542 20.789,-17.849 20.488,7.078 41.805,10.667 63.509,10.667 21.152,0 42.056,-3.401 62.131,-10.109 7.189,-2.401 11.457,-9.79 9.945,-17.217 -18.493,-90.9 -99.273,-156.875 -192.076,-156.875 -15.228,0 -30.335,1.779 -45.106,5.282 -0.59,-5.65 -0.895,-11.349 -0.895,-17.079 0,-4.516 0.197,-9.012 0.565,-13.481 15.076,-3.115 30.315,-4.717 45.436,-4.717 121.886,0 221.546,96.996 225.855,217.85 -32.501,17.262 -68.911,26.347 -105.855,26.347 z"
       id="path860"
       style="fill:#87d385;fill-opacity:1" />
  </g>
</svg>
